<svg width="88" height="88" viewBox="0 0 88 88" fill="none" xmlns="http://www.w3.org/2000/svg">
<circle cx="44.5" cy="43.5" r="35.5" fill="#37C8DC"/>
<path d="M44.8561 30.1493L54.8123 33.4898C55.9267 33.8619 56.6803 34.8857 56.6863 36.033L56.7497 45.994C56.7694 49.0137 55.6685 51.9423 53.6525 54.2369C52.7253 55.2901 51.5369 56.1947 50.0192 57.0037L44.6674 59.8646C44.4998 59.9529 44.3155 59.9985 44.1298 60C43.944 60.0014 43.7583 59.9573 43.5922 59.8705L38.1905 57.0758C36.6563 56.28 35.4572 55.3886 34.521 54.3502C32.4717 52.0791 31.3331 49.1638 31.3135 46.1396L31.25 36.1859C31.244 35.0372 31.984 34.0061 33.0924 33.6192L43.0108 30.1596C43.5997 29.9508 44.2566 29.9464 44.8561 30.1493ZM49.6172 40.828C49.1717 40.3999 48.4544 40.4029 48.015 40.8368L42.9622 45.8173L40.8933 43.8286C40.4478 43.4006 39.732 43.405 39.2911 43.8389C38.8517 44.2728 38.8562 44.9701 39.3017 45.3981L42.1754 48.1634C42.3989 48.3781 42.6888 48.4841 42.9788 48.4812C43.2687 48.4796 43.5571 48.3708 43.7776 48.1531L49.6263 42.3871C50.0657 41.9532 50.0612 41.256 49.6172 40.828Z" fill="white"/>
</svg>
