<svg width="88" height="88" viewBox="0 0 88 88" fill="none" xmlns="http://www.w3.org/2000/svg">
<circle cx="44.5" cy="43.5" r="35.5" fill="#57E190"/>
<g clip-path="url(#clip0_214_643)">
<path d="M56.4295 57.3586C56.6862 55.0053 56.9246 52.6519 57.2017 50.3006C57.3973 48.6421 56.6862 47.7415 55.0399 47.7374C47.9799 47.7232 40.9199 47.7232 33.8599 47.7313C32.2095 47.7334 31.4556 48.6197 31.641 50.264C31.8733 52.3198 32.1178 54.3757 32.3501 56.4315C32.3867 56.7555 32.3827 57.0835 32.185 57.5359C31.3109 56.5293 30.3472 55.586 29.5933 54.4959C28.9474 53.5647 29.0004 52.438 29.3732 51.3601C30.2779 48.7317 31.1866 46.1054 32.0852 43.4749C32.6618 41.7919 33.7722 40.7447 35.5592 40.435C37.0241 40.1803 38.483 39.8746 40.0865 39.5629C39.6036 39.0107 39.1411 38.5115 38.7132 37.9818C36.9691 35.8159 37.0954 35.3941 39.8135 34.9336C43.0491 34.3856 46.305 34.3978 49.5304 35.0172C51.5965 35.4145 51.7473 35.8872 50.4697 37.5804C49.9665 38.2487 49.3817 38.8559 48.7725 39.5588C50.4005 39.8706 51.951 40.1558 53.4934 40.4676C55.0888 40.7895 56.1524 41.7369 56.6862 43.2773C57.6072 45.9363 58.5363 48.5912 59.4552 51.2501C60.0013 52.8333 59.7547 54.2494 58.5587 55.4719C57.923 56.1218 57.3097 56.7901 56.6862 57.4523C56.6027 57.4238 56.5151 57.3912 56.4295 57.3586ZM47.279 43.9436C47.3768 44.0353 47.4725 44.129 47.5703 44.2207C47.9208 44.0312 48.5585 43.8621 48.5748 43.6481C48.6706 42.3951 48.6217 41.1298 48.6217 39.8706C48.5239 39.8298 48.4241 39.7891 48.3263 39.7463C47.9779 40.1436 47.3951 40.5063 47.3258 40.9484C47.173 41.9264 47.279 42.9431 47.279 43.9436ZM40.2088 39.7748C40.2088 41.0971 40.1741 42.2708 40.2393 43.4383C40.2516 43.6644 40.6265 43.9904 40.8893 44.0577C41.3722 44.182 41.6249 43.9049 41.6004 43.3731C41.5719 42.8005 41.5372 42.2198 41.6086 41.6554C41.7328 40.6733 41.2418 40.166 40.2088 39.7748Z" fill="white"/>
<path d="M44.4711 49.0578C47.8677 49.0578 51.2622 49.0823 54.6567 49.0415C55.5919 49.0313 55.9546 49.3227 55.8405 50.2803C55.4676 53.414 55.1416 56.5539 54.7891 59.6896C54.7056 60.4394 54.2227 60.6961 53.5096 60.6921C51.3355 60.6798 49.1635 60.6921 46.9895 60.69C43.1875 60.69 39.3834 60.6697 35.5814 60.6982C34.5769 60.7063 34.1185 60.3579 34.0227 59.3106C33.7436 56.3053 33.3951 53.306 33.0304 50.3089C32.9163 49.3655 33.224 49.0313 34.1837 49.0415C37.6128 49.0802 41.042 49.0578 44.4711 49.0578ZM47.2462 53.3346C46.7939 52.976 46.3945 52.595 46.3517 52.6337C45.7466 53.1492 45.1904 53.7237 44.6219 54.282C44.844 54.4919 45.2107 54.9177 45.2637 54.8811C45.8953 54.4491 46.4842 53.9479 47.2462 53.3346ZM44.5424 56.0424C44.1084 55.6859 43.7091 55.3008 43.6683 55.3354C43.0652 55.8468 42.511 56.4133 41.9466 56.9654C42.1565 57.1773 42.509 57.5991 42.5538 57.5685C43.1895 57.1366 43.7845 56.6435 44.5424 56.0424ZM45.3269 54.9748C44.9805 55.4516 44.6178 55.855 44.6606 55.9039C45.1822 56.5009 45.7629 57.0449 46.3273 57.6011C46.527 57.377 46.9365 57.0082 46.8978 56.9512C46.4618 56.3216 45.9565 55.7429 45.3269 54.9748ZM44.3203 54.5143C44.3509 54.3615 44.3815 54.2087 44.412 54.0559C43.7865 53.5791 43.218 52.9454 42.513 52.6765C42.0159 52.487 41.7653 53.143 42.0363 53.5607C42.3562 54.0518 42.8146 54.498 43.3118 54.8016C43.5155 54.9238 43.976 54.6223 44.3203 54.5143Z" fill="white"/>
<path d="M51.2966 34.5406C46.6246 33.4526 42.2419 33.4506 37.6758 34.5121C38.7985 31.5801 39.86 28.7602 42.3417 26.8205C43.8658 25.6285 45.5039 25.7284 46.9424 27.1628C47.8878 28.1061 48.6866 29.241 49.363 30.4004C50.0904 31.6494 50.5998 33.0247 51.2966 34.5406Z" fill="white"/>
<path d="M44.4534 61.4421C47.4037 61.4421 50.352 61.4502 53.3024 61.4359C54.0196 61.4319 54.6858 61.5725 54.696 62.3956C54.7062 63.2453 53.9951 63.3573 53.3044 63.3573C47.3711 63.3573 41.4399 63.3594 35.5066 63.3594C34.8465 63.3594 34.1802 63.2025 34.1578 62.4425C34.1354 61.6316 34.7772 61.4074 35.5046 61.438C35.7084 61.4461 35.9121 61.44 36.1138 61.44C38.895 61.4421 41.6742 61.4421 44.4534 61.4421Z" fill="white"/>
<path d="M47.2465 53.3347C46.4844 53.95 45.8956 54.4492 45.2619 54.8832C45.209 54.9199 44.8422 54.4941 44.6201 54.2842C45.1886 53.7239 45.7448 53.1513 46.35 52.6358C46.3948 52.5951 46.7942 52.9741 47.2465 53.3347Z" fill="white"/>
<path d="M44.5421 56.0427C43.7821 56.6438 43.1892 57.1368 42.5535 57.5688C42.5086 57.5994 42.1562 57.1776 41.9463 56.9657C42.5127 56.4115 43.0669 55.8451 43.668 55.3357C43.7108 55.299 44.1081 55.6861 44.5421 56.0427Z" fill="white"/>
<path d="M45.327 54.9751C45.9566 55.7432 46.4619 56.3219 46.8979 56.9515C46.9386 57.0085 46.5291 57.3773 46.3274 57.6015C45.763 57.0432 45.1823 56.4992 44.6607 55.9042C44.6179 55.8553 44.9785 55.4519 45.327 54.9751Z" fill="white"/>
<path d="M44.3207 54.5144C43.9784 54.6224 43.5159 54.9239 43.3142 54.8017C42.8171 54.4961 42.3566 54.0498 42.0387 53.5608C41.7677 53.1452 42.0183 52.4871 42.5155 52.6766C43.2205 52.9455 43.7869 53.5792 44.4145 54.056C44.3819 54.2088 44.3513 54.3616 44.3207 54.5144Z" fill="white"/>
</g>
<defs>
<clipPath id="clip0_214_643">
<rect width="30.6341" height="37.36" fill="white" transform="translate(29.0996 26)"/>
</clipPath>
</defs>
</svg>
