<svg width="200" height="39" viewBox="0 0 200 39" fill="none" xmlns="http://www.w3.org/2000/svg">
<g clip-path="url(#clip0_214_969)">
<path d="M69.3635 27.3468C69.3635 28.9902 69.1578 30.5022 68.7488 31.8804C68.3373 33.2611 67.2541 34.493 65.4966 35.5787C63.7392 36.6644 61.6446 37.2073 59.2155 37.2073C56.3748 37.2073 54.191 36.5975 52.669 35.3804C51.1446 34.1634 50.1655 32.9959 49.7267 31.8804C49.288 30.765 49.0674 29.2554 49.0674 27.3468V14.9331H55.3932V26.7395V28.5886C55.6014 29.4116 56.0451 30.0709 56.7268 30.5716C57.4084 31.0724 58.2215 31.3202 59.1708 31.3202C60.3259 31.3202 61.2009 31.0277 61.7934 30.4403C62.3858 29.8528 62.7403 29.3546 62.8592 28.9431C62.9782 28.5316 63.0377 27.7979 63.0377 26.7395V14.9331H69.3635V27.3468Z" fill="#5752DA"/>
<path d="M89.0025 14.9333H95.3283V36.5035H89.0025V33.7347C87.6541 35.9904 85.4876 37.1182 82.5007 37.1182C79.6005 37.1182 77.2209 36.0573 75.3619 33.933C73.5028 31.8087 72.5732 29.0944 72.5732 25.7828C72.5732 22.5604 73.5177 19.8586 75.4065 17.6772C77.2953 15.4959 79.6452 14.4053 82.4586 14.4053C84.7712 14.4053 86.6749 15.1514 88.1696 16.6461L89.005 17.8755V14.9333H89.0025ZM78.6784 25.7605C78.6784 27.5526 79.1767 29.0226 80.1731 30.1702C81.1696 31.3154 82.471 31.8905 84.0821 31.8905C85.6636 31.8905 86.9526 31.3179 87.949 30.1702C88.9455 29.025 89.4437 27.5551 89.4437 25.7605C89.4437 24.0254 88.9157 22.5703 87.8623 21.3954C86.8088 20.2205 85.505 19.633 83.9533 19.633C82.4586 19.633 81.2068 20.213 80.1979 21.3756C79.1841 22.5356 78.6784 23.9981 78.6784 25.7605Z" fill="#5752DA"/>
<path d="M99.3271 14.9334H105.653V18.0963C106.268 16.8966 107.16 15.972 108.333 15.3276C109.502 14.6831 110.851 14.3608 112.375 14.3608C114.718 14.3608 116.381 14.926 117.363 16.0514C118.344 17.1792 118.944 18.198 119.165 19.1052C119.385 20.0124 119.494 21.2568 119.494 22.8382V36.5012H113.169V24.3899V22.4069C113.02 21.584 112.628 20.9097 111.991 20.3818C111.354 19.8538 110.591 19.5886 109.701 19.5886C108.427 19.5886 107.433 20.0595 106.721 20.999C106.01 21.9384 105.655 23.2596 105.655 24.9625V36.5037H99.3296V14.9334H99.3271Z" fill="#5752DA"/>
<path d="M121.029 14.9334H124.236V8.92236H130.518V14.9334H135.835V20.1611H130.518V28.1576V29.8704C130.723 31.3056 131.64 32.022 133.267 32.022C133.886 32.022 134.625 31.8906 135.483 31.6279L136.36 36.2855C134.486 36.8134 132.801 37.0762 131.308 37.0762C128.82 37.0762 127.104 36.4986 126.167 35.3411C125.23 34.1835 124.673 33.2614 124.497 32.5723C124.321 31.8832 124.234 30.7653 124.234 29.2111V20.1611H121.026V14.9334H121.029Z" fill="#5752DA"/>
<path d="M137.505 14.9334H143.831V18.5797C144.21 17.2337 144.914 16.1926 145.94 15.4614C146.964 14.7301 148.268 14.3633 149.849 14.3633C150.228 14.3633 150.558 14.3782 150.838 14.4079C151.116 14.4376 151.49 14.512 151.959 14.6285L150.816 20.7362C150.025 20.5305 149.279 20.4288 148.575 20.4288C147.051 20.4288 145.96 20.8254 145.303 21.6162C144.644 22.4069 144.235 23.0885 144.074 23.6587C143.912 24.2288 143.833 25.0145 143.833 26.0085V36.5086H137.507V14.9334H137.505Z" fill="#5752DA"/>
<path d="M158.109 27.7161C158.342 29.2232 158.936 30.413 159.888 31.2855C160.84 32.1581 162.005 32.5943 163.381 32.5943C164.405 32.5943 165.453 32.287 166.521 31.6722C167.59 31.0575 168.462 30.2519 169.137 29.2554L173.618 32.3316C172.213 34.0593 170.718 35.3036 169.137 36.0646C167.555 36.8256 165.651 37.2073 163.425 37.2073C160 37.2073 157.224 36.1737 155.099 34.1039C152.975 32.0341 151.914 29.3422 151.914 26.0256C151.914 22.6793 152.982 19.8931 155.122 17.6623C157.258 15.4314 159.968 14.3159 163.249 14.3159C166.529 14.3159 169.196 15.3991 171.246 17.5681C173.296 19.737 174.322 22.5752 174.322 26.0901L174.278 27.7161H158.109ZM158.109 23.6311H168.081C167.905 22.1662 167.384 21.0111 166.521 20.1608C165.656 19.3106 164.551 18.8868 163.205 18.8868C160.421 18.8868 158.723 20.4682 158.109 23.6311Z" fill="#5752DA"/>
<path d="M182.841 27.7161C183.074 29.2232 183.669 30.413 184.621 31.2855C185.573 32.1581 186.738 32.5943 188.113 32.5943C189.137 32.5943 190.186 32.287 191.254 31.6722C192.322 31.0575 193.195 30.2519 193.869 29.2554L198.351 32.3316C196.945 34.0593 195.45 35.3036 193.869 36.0646C192.287 36.8256 190.384 37.2073 188.158 37.2073C184.732 37.2073 181.956 36.1737 179.832 34.1039C177.707 32.0341 176.646 29.3422 176.646 26.0256C176.646 22.6793 177.715 19.8931 179.854 17.6623C181.991 15.4314 184.7 14.3159 187.982 14.3159C191.261 14.3159 193.928 15.3991 195.978 17.5681C198.028 19.737 199.055 22.5752 199.055 26.0901L199.01 27.7161H182.841ZM182.841 23.6311H192.813C192.637 22.1662 192.116 21.0111 191.254 20.1608C190.389 19.3106 189.283 18.8868 187.937 18.8868C185.154 18.8868 183.456 20.4682 182.841 23.6311Z" fill="#5752DA"/>
<path d="M38.3267 19.9205C38.3069 20.327 38.2647 20.741 38.2052 21.1475C38.2052 21.1475 38.1978 21.1475 38.1978 21.1549C38.0962 22.2059 37.9326 23.2519 37.6698 24.2831C37.2435 25.9588 36.599 27.5402 35.776 28.9928C34.5416 31.184 32.8982 33.0976 30.9524 34.6245C30.464 35.0187 29.9559 35.3855 29.4329 35.7226C26.788 37.4181 23.7144 38.4765 20.4226 38.6872C19.6219 38.7418 18.8287 38.7492 18.0355 38.7145C16.7267 38.6525 15.4229 38.4567 14.1339 38.0774C8.02129 36.2853 3.69336 32.5002 1.30383 26.5636C0.711406 25.1036 0.297452 23.5891 0.12146 22.0225C0.074363 21.6284 0.0396603 21.2367 0 20.85V18.6985C0.0272664 18.3737 0.0619692 18.0465 0.0817993 17.7218C0.257792 15.2852 0.941931 12.9998 2.06977 10.8432C4.40973 6.38642 7.94445 3.26565 12.6814 1.54291C15.1304 0.648077 17.6686 0.293613 20.2738 0.449776C23.0352 0.618332 25.628 1.36692 28.077 2.64844C27.3309 4.21502 26.3666 5.96007 25.1198 7.93317C23.811 7.29613 22.4527 6.80781 21.0075 6.62438C16.8259 6.10632 13.1622 7.21185 10.096 10.1294C8.07334 12.0504 6.72489 14.3755 6.2688 17.117C5.52269 21.6358 6.62822 25.6192 9.94481 28.8887C11.9328 30.8494 14.2802 32.1111 17.0415 32.5126C21.2405 33.1298 24.9463 32.0094 28.0671 29.1068C29.9187 27.3841 31.1754 25.2796 31.7778 22.8256C31.9141 22.2753 31.9959 21.7126 32.0752 21.15C32.0752 21.15 32.1496 20.4931 32.1917 19.6106C32.2463 18.748 32.2735 17.6772 32.1793 16.8146C31.9835 15.072 36.4403 15.072 36.4403 15.072L37.9945 15.6545C37.9921 15.6521 38.4283 17.6871 38.3267 19.9205Z" fill="#5752DA"/>
<path d="M44.14 17.8856C43.9764 17.6823 43.793 17.489 43.6046 17.3006C41.6018 15.2829 35.0925 8.72656 35.0925 8.72656C35.0925 8.72656 27.9909 15.8852 26.1021 17.7988C25.3535 18.5598 25.2097 19.4795 25.5096 20.4759C25.7922 21.4178 26.5433 22.1342 27.505 22.3375C28.4817 22.5457 29.3939 22.3424 30.14 21.6038C30.6308 21.1179 33.3748 18.4632 34.5497 17.3304C34.8471 17.0403 35.3181 17.0403 35.6205 17.3254C36.8302 18.478 39.6931 21.2121 40.112 21.631C40.9176 22.4366 41.8992 22.5878 42.923 22.2606C43.9715 21.9285 44.5639 21.1254 44.7622 20.0421C44.7647 20.0347 44.7672 20 44.7696 19.9504C44.8217 19.2068 44.6085 18.4632 44.14 17.8856Z" fill="#57E190"/>
<path d="M33.3738 25.7778C32.7689 27.9815 31.1776 30.7131 29.1475 31.6773L35.1188 38.9153H43.5466L33.3738 25.7778Z" fill="#5752DA"/>
</g>
<defs>
<clipPath id="clip0_214_969">
<rect width="200" height="38.5027" fill="white" transform="translate(0 0.414062)"/>
</clipPath>
</defs>
</svg>
