<svg width="88" height="88" viewBox="0 0 88 88" fill="none" xmlns="http://www.w3.org/2000/svg">
<circle cx="44.5" cy="43.5" r="35.5" fill="#37C8DC"/>
<path d="M41.583 62C41.7099 58.6356 42.1153 55.3194 43.368 52.1606C45.1049 47.7827 48.1893 44.586 52.1705 42.1856C52.3761 42.0617 52.5847 41.9392 52.8705 41.7685C52.3965 40.5494 51.9255 39.3419 51.4093 38.0163C51.6995 38.0848 51.8949 38.1169 52.083 38.1767C55.2024 39.1727 58.3203 40.1731 61.4397 41.1677C61.6205 41.226 61.813 41.2523 61.9997 41.2931C61.9997 41.3413 61.9997 41.3908 61.9997 41.439C60.2759 44.659 58.5536 47.8775 56.7701 51.2083C56.2218 49.9031 55.7143 48.6942 55.1893 47.4444C53.0251 48.6519 51.3203 50.1963 50.0574 52.2117C48.182 55.2027 47.6249 58.5554 47.4163 62C45.4724 62 43.527 62 41.583 62Z" fill="white"/>
<path d="M27 41.2917C29.1029 40.6383 31.2087 39.9879 33.3102 39.3287C34.6927 38.8942 36.0694 38.445 37.6123 37.9506C37.1923 39.0269 36.8904 39.9937 36.4442 40.8877C36.084 41.6081 36.2925 41.9042 36.9342 42.2775C38.9598 43.4573 40.7725 44.92 42.2921 46.7167C42.4408 46.8931 42.5648 47.2592 42.4831 47.4371C41.5483 49.4525 40.5712 51.4475 39.6306 53.3973C38.4071 50.9604 36.4792 48.9202 33.8046 47.4415C33.2854 48.6854 32.7794 49.8958 32.231 51.2098C30.446 47.876 28.7237 44.6575 27 41.4375C27 41.3894 27 41.3398 27 41.2917Z" fill="white"/>
<path d="M44.6457 27C44.8018 27.2042 44.9359 27.4288 45.1153 27.6081C47.2897 29.7913 49.4714 31.9685 51.7711 34.2669C50.2486 34.2669 47.4166 34.2669 47.4166 34.2669L47.3611 41.366C47.3611 41.366 44.9534 44.1485 44.4343 44.6035C43.603 43.8306 41.5905 41.4054 41.5905 41.4054L41.5832 34.3019C41.5832 34.3019 38.7686 34.3019 37.2578 34.3019C37.5028 34.0306 37.6486 33.8527 37.8105 33.6908C39.8347 31.6638 41.8632 29.6396 43.8845 27.6081C44.0639 27.4288 44.198 27.2042 44.3541 27C44.4518 27 44.548 27 44.6457 27Z" fill="white"/>
</svg>
