<svg width="88" height="88" viewBox="0 0 88 88" fill="none" xmlns="http://www.w3.org/2000/svg">
<circle cx="44.5" cy="43.5" r="35.5" fill="#57E190"/>
<rect x="29.5283" y="34.8952" width="22.412" height="24.4494" rx="3.56554" fill="white" fill-opacity="0.7"/>
<rect x="37.9326" y="27" width="17.8277" height="20.1199" rx="1.27341" fill="#E6FAEE"/>
<rect x="33.3486" y="30.3108" width="19.6105" height="20.1199" rx="1.27341" fill="white"/>
<rect x="35.5586" y="34.3857" width="15.1912" height="1.78277" rx="0.891386" fill="#57E190"/>
<rect x="35.5586" y="38.206" width="15.1912" height="1.78277" rx="0.891386" fill="#57E190"/>
<rect x="35.5586" y="42.0263" width="15.1912" height="1.78277" rx="0.891386" fill="#E5E5E5"/>
<path d="M60.3811 46.2388L56.7136 56.9354C56.2195 58.3766 54.8643 59.3446 53.3408 59.3446H33.0936C30.6184 59.3446 28.8962 56.8843 29.7435 54.5586L33.6401 43.862C34.153 42.4539 35.4917 41.5169 36.9903 41.5169H57.0082C59.4548 41.5169 61.1745 43.9245 60.3811 46.2388Z" fill="#9FEBBE"/>
<rect x="29.5283" y="34.8951" width="22.412" height="24.4494" rx="3.56554" fill="white" fill-opacity="0.7"/>
<rect x="37.9326" y="27" width="17.8277" height="20.1199" rx="1.27341" fill="#E6FAEE"/>
<rect x="33.3486" y="30.3108" width="19.6105" height="20.1199" rx="1.27341" fill="white"/>
<rect x="35.5586" y="34.3857" width="15.1912" height="1.78277" rx="0.891386" fill="#57E190"/>
<rect x="35.5586" y="38.206" width="15.1912" height="1.78277" rx="0.891386" fill="#57E190"/>
<rect x="35.5586" y="42.0263" width="15.1912" height="1.78277" rx="0.891386" fill="#E5E5E5"/>
<path d="M60.3811 46.2388L56.7136 56.9354C56.2195 58.3766 54.8643 59.3446 53.3408 59.3446H33.0936C30.6184 59.3446 28.8962 56.8843 29.7435 54.5586L33.6401 43.862C34.153 42.4539 35.4917 41.5169 36.9903 41.5169H57.0082C59.4548 41.5169 61.1745 43.9245 60.3811 46.2388Z" fill="#9FEBBE"/>
</svg>
