<svg width="925" height="795" viewBox="0 0 925 795" fill="none" xmlns="http://www.w3.org/2000/svg">
<path opacity="0.05" d="M777.732 492.884C769.031 526.919 755.98 559.111 739.398 588.693L897.866 793.366L777.732 492.884ZM777.732 492.884C783.208 471.594 786.535 449.996 788.633 428.295L777.732 492.884ZM910.09 361.813L910.094 361.818C919.485 373.395 923.78 388.331 922.682 403.354L922.681 403.373L922.68 403.391C922.654 403.898 922.63 404.315 922.606 404.618C922.594 404.769 922.583 404.878 922.575 404.949C922.575 404.95 922.575 404.951 922.575 404.952L922.571 404.959L922.551 405.072C918.544 426.957 906.659 442.923 885.685 449.616L885.685 449.617C865.042 456.214 845.439 453.158 829.299 437.018C825.189 432.908 809.969 418.303 792.425 401.475L789.661 398.824V402.654V402.655V402.655V402.656V402.656V402.657V402.658V402.658V402.659V402.659V402.66V402.661V402.661V402.662V402.662V402.663V402.664V402.664V402.665V402.665V402.666V402.667V402.667V402.668V402.668V402.669V402.67V402.67V402.671V402.671V402.672V402.673V402.673V402.674V402.674V402.675V402.676V402.676V402.677V402.677V402.678V402.679V402.679V402.68V402.68V402.681V402.682V402.682V402.683V402.683V402.684V402.685V402.685V402.686V402.686V402.687V402.688V402.688V402.689V402.689V402.69V402.691V402.691V402.692V402.692V402.693V402.694V402.694V402.695V402.695V402.696V402.697V402.697V402.698V402.698V402.699V402.7V402.7V402.701V402.701V402.702V402.703V402.703V402.704V402.704V402.705V402.706V402.706V402.707V402.707V402.708V402.709V402.709V402.71V402.71V402.711V402.712V402.712V402.713V402.713V402.714V402.715V402.715V402.716V402.716V402.717V402.718V402.718V402.719V402.719V402.72V402.721V402.721V402.722V402.722V402.723V402.724V402.724V402.725V402.725V402.726V402.727V402.727V402.728V402.728V402.729V402.73V402.73V402.731V402.731V402.732V402.733V402.733V402.734V402.734V402.735V402.736V402.736V402.737V402.737V402.738V402.739V402.739V402.74V402.74V402.741V402.742V402.742V402.743V402.743V402.744V402.745V402.745V402.746V402.746V402.747V402.748V402.748V402.749V402.749V402.75V402.751V402.751V402.752V402.752V402.753V402.754V402.754V402.755V402.755V402.756V402.757V402.757V402.758V402.758V402.759V402.76V402.76V402.761V402.761V402.762V402.763V402.763V402.764V402.764V402.765V402.766V402.766V402.767V402.767V402.768C789.262 410.924 788.474 419.222 787.25 427.376C787.095 427.635 787.02 427.912 787.003 428.177C784.91 449.804 781.596 471.302 776.15 492.477L776.149 492.48C767.484 526.374 754.487 558.434 737.973 587.895L737.444 588.838L738.106 589.693L895.8 793.366H725.889L648.022 698.97L646.996 697.726L645.738 698.737C644.523 699.714 643.387 700.664 642.267 701.6C640.869 702.769 639.496 703.917 638.026 705.071L638.019 705.076L638.012 705.082C627.973 713.133 617.526 720.676 606.773 727.657C552.339 762.518 489.143 784.278 421.517 788.61L421.51 788.61C405.043 789.732 388.728 789.885 372.409 789.171C345.502 787.948 318.712 783.872 292.238 776.083L292.237 776.082C166.487 739.214 77.477 661.402 28.3851 539.309L28.3837 539.306C16.2508 509.33 7.74616 478.204 4.13122 446.026L4.1297 446.013C3.46125 440.454 2.91528 434.883 2.37145 429.334C2.12863 426.856 1.88624 424.383 1.63356 421.917V377.644C1.81558 375.481 2.01471 373.299 2.21461 371.109C2.62718 366.589 3.04308 362.033 3.31891 357.52C6.93648 307.452 20.9936 260.484 44.1818 216.145C92.3094 124.428 164.978 60.272 262.395 24.843L262.398 24.8421C312.746 6.44566 364.878 -0.843212 418.451 2.36794C474.702 5.85235 527.552 20.9415 577.511 46.8539C562.391 78.4394 543.016 113.553 518.006 153.144C491.239 140.253 463.491 130.362 433.905 126.606L433.899 126.606C347.155 115.904 271.016 138.867 207.331 199.411C165.344 239.238 137.254 287.607 127.823 344.605C112.287 438.382 135.297 521.177 204.187 589.089C245.454 629.789 294.232 656.072 351.627 664.367C438.858 677.181 515.82 653.9 580.624 593.626L579.511 592.43L580.624 593.625C619.083 557.844 645.148 514.165 657.714 463.13L657.715 463.125C660.497 451.688 662.196 440.005 663.881 428.412L663.886 428.377L663.889 428.354L663.892 428.332L662.269 428.142C663.892 428.332 663.892 428.331 663.892 428.331L663.892 428.331L663.892 428.328L663.893 428.32L663.897 428.29L663.911 428.17L663.926 428.035C663.936 427.944 663.948 427.833 663.963 427.703C664.008 427.293 664.074 426.688 664.155 425.906C664.317 424.343 664.542 422.069 664.792 419.226C665.293 413.54 665.896 405.57 666.307 396.432L666.491 392.327L663.539 395.185C644.247 413.863 626.428 431.17 621.149 436.398C606.181 451.216 587.927 455.309 568.234 451.11L568.231 451.11C548.982 447.042 533.928 432.703 528.258 413.803L528.258 413.801C522.207 393.697 525.122 375.36 540.089 360.144C559.587 340.39 605.993 293.562 647.525 251.672C668.292 230.726 687.839 211.016 702.195 196.541C709.373 189.304 715.253 183.376 719.339 179.257L724.059 174.499L724.556 173.998L724.916 174.36L729.252 178.728L745.042 194.632C758.288 207.974 776.38 226.198 795.765 245.723C834.534 284.773 878.472 329.031 899.148 349.861L899.153 349.865C903.026 353.738 906.766 357.683 910.09 361.813ZM664.562 398.742C664.978 398.339 665.394 397.936 665.811 397.533L664.675 396.359L663.043 396.286C663.017 396.868 662.99 397.445 662.962 398.017C644.335 416.055 627.413 432.493 622.298 437.559C606.893 452.81 588.058 457.007 567.893 452.708C548.036 448.511 532.528 433.72 526.694 414.272C520.501 393.698 523.469 374.71 538.926 358.997L664.562 398.742Z" stroke="#2F76FC" stroke-width="3.26712"/>
</svg>
