<svg width="759" height="653" viewBox="0 0 759 653" fill="none" xmlns="http://www.w3.org/2000/svg">
<path opacity="0.1" d="M747.433 297.268L747.436 297.272C755.128 306.755 758.647 318.989 757.747 331.299L757.746 331.316L757.745 331.333C757.724 331.749 757.704 332.09 757.685 332.337C757.681 332.391 757.677 332.438 757.673 332.478C757.669 332.524 757.665 332.561 757.661 332.591L757.66 332.595L757.641 332.697C754.358 350.634 744.622 363.704 727.448 369.185L727.448 369.185C710.531 374.592 694.482 372.086 681.264 358.868C677.887 355.491 665.384 343.493 650.974 329.672L648.485 327.285V330.733V330.734V330.734V330.735V330.735V330.736V330.736V330.737V330.737V330.738V330.738V330.739V330.739V330.74V330.74V330.741V330.741V330.742V330.742V330.743V330.743V330.744V330.744V330.745V330.745V330.746V330.746V330.747V330.747V330.748V330.748V330.749V330.749V330.75V330.75V330.751V330.751V330.752V330.752V330.753V330.753V330.754V330.754V330.755V330.755V330.756V330.756V330.757V330.757V330.758V330.758V330.759V330.759V330.76V330.76V330.761V330.761V330.762V330.762V330.762V330.763V330.763V330.764V330.764V330.765V330.765V330.766V330.766V330.767V330.767V330.768V330.768V330.769V330.769V330.77V330.77V330.771V330.771V330.772V330.772V330.773V330.773V330.774V330.774V330.775V330.775V330.776V330.776V330.777V330.777V330.778V330.778V330.779V330.779V330.78V330.78V330.781V330.781V330.782V330.782V330.783V330.783V330.784V330.784V330.785V330.785V330.786V330.786V330.787V330.787V330.788V330.788V330.789V330.789V330.79V330.79V330.791V330.791V330.792V330.792V330.793V330.793V330.794V330.794V330.794V330.795V330.796V330.796V330.796V330.797V330.797V330.798V330.798V330.799V330.799V330.8V330.8V330.801V330.801V330.802V330.802V330.803V330.803V330.804V330.804V330.805V330.805V330.806V330.806V330.807V330.807V330.808V330.808V330.809V330.809V330.81V330.81V330.811V330.811V330.812V330.812V330.813V330.813V330.814V330.814V330.815V330.815V330.816V330.816V330.817V330.817V330.818V330.818V330.819V330.819V330.82V330.82V330.821V330.821V330.822V330.822V330.823C648.158 337.509 647.513 344.312 646.511 350.996C646.381 351.221 646.318 351.46 646.303 351.688C644.584 369.446 641.863 387.096 637.392 404.481L637.391 404.483C630.277 432.312 619.605 458.635 606.046 482.824L605.57 483.673L606.166 484.443L735.532 651.529H596.294L532.374 574.041L531.45 572.921L530.318 573.83C529.315 574.637 528.381 575.418 527.461 576.187C526.316 577.145 525.193 578.084 523.984 579.032L523.978 579.037L523.972 579.042C515.729 585.653 507.151 591.846 498.321 597.579C453.628 626.201 401.742 644.066 346.219 647.623L346.213 647.623C332.691 648.544 319.294 648.67 305.894 648.084C283.803 647.079 261.81 643.733 240.076 637.338L240.075 637.338C136.822 607.065 63.7426 543.178 23.4347 442.932L23.4335 442.929C13.4715 418.317 6.48922 392.762 3.52145 366.344L3.52008 366.333C2.97119 361.768 2.52297 357.194 2.07634 352.637C1.87708 350.603 1.67814 348.573 1.47072 346.549V310.196C1.61994 308.423 1.78324 306.634 1.94722 304.837C2.28617 301.124 2.62808 297.378 2.85475 293.669C5.8249 252.563 17.3659 214.002 36.4047 177.598C75.9212 102.291 135.585 49.6164 215.571 20.5268L215.573 20.526C256.911 5.4217 299.714 -0.562898 343.701 2.07371C389.845 4.93207 433.201 17.3012 474.188 38.542C461.791 64.4257 445.915 93.195 425.434 125.624C403.472 115.056 380.7 106.946 356.419 103.864L356.414 103.864C285.128 95.0692 222.55 113.941 170.21 163.699C135.705 196.428 112.616 236.183 104.864 283.032C92.0977 360.096 111.008 428.146 167.625 483.96C201.539 517.408 241.629 539.01 288.804 545.828C360.491 556.359 423.745 537.224 477.003 487.689L476.001 486.612L477.003 487.689C508.61 458.281 530.033 422.383 540.361 380.438L540.362 380.434C542.648 371.034 544.044 361.433 545.428 351.913L545.433 351.88L545.436 351.86L545.438 351.839L543.977 351.669C545.438 351.839 545.438 351.839 545.438 351.839L545.438 351.839L545.438 351.837L545.439 351.83L545.442 351.805L545.453 351.706C545.463 351.619 545.478 351.491 545.496 351.322C545.534 350.985 545.588 350.488 545.654 349.846C545.788 348.561 545.972 346.693 546.178 344.357C546.589 339.685 547.085 333.137 547.422 325.629L547.588 321.932L544.93 324.506C529.085 339.847 514.448 354.063 510.111 358.358C497.851 370.496 482.904 373.849 466.765 370.409L466.763 370.408C451 367.077 438.671 355.335 434.026 339.854L434.026 339.852C429.067 323.377 431.457 308.367 443.711 295.908C459.727 279.682 497.844 241.219 531.958 206.81C549.015 189.606 565.071 173.416 576.863 161.527C582.759 155.582 587.589 150.713 590.945 147.33L594.822 143.421L595.139 143.102L595.342 143.307L598.904 146.895L611.874 159.959L653.537 201.923C685.381 233.999 721.471 270.351 738.454 287.461L738.458 287.465C741.638 290.645 744.706 293.881 747.433 297.268Z" stroke="white" stroke-width="2.94144"/>
</svg>
