<svg width="121" height="120" viewBox="0 0 121 120" fill="none" xmlns="http://www.w3.org/2000/svg">
<g clip-path="url(#clip0_290_504)">
<path d="M45.7399 66.6991C57.5761 66.6991 67.2051 57.0702 67.2051 45.234C67.2051 33.3977 57.5761 23.7688 45.7399 23.7688C33.9037 23.7688 24.2748 33.3977 24.2748 45.234C24.2748 57.0702 33.9037 66.6991 45.7399 66.6991ZM45.7399 31.8622C53.0976 31.8622 59.0797 37.8443 59.0797 45.202C59.0797 52.5596 53.0976 58.5417 45.7399 58.5417C38.3823 58.5417 32.4002 52.5596 32.4002 45.202C32.4002 37.8443 38.3823 31.8622 45.7399 31.8622Z" fill="#F4BA2B"/>
<path d="M33.9997 16.0367C33.9997 16.0687 33.9997 16.1327 33.9997 16.1647C33.9997 22.2108 39.1501 27.0732 45.1961 27.0732C51.2422 27.0732 56.3926 22.2108 56.3926 16.1647C56.3926 16.1327 56.3926 16.1007 56.3926 16.0367C56.3926 9.95867 51.2742 5.00024 45.1961 5.00024C39.1181 5.00024 33.9997 9.92668 33.9997 16.0367Z" fill="#F4BA2B"/>
<path d="M33.9997 16.0367C33.9997 16.0687 33.9997 16.9964 33.9997 16.9964H56.3926C56.3926 16.9964 56.3926 16.0687 56.3926 16.0367C56.3926 9.95866 51.2742 5.00024 45.1961 5.00024C39.1181 5.00024 33.9997 9.95866 33.9997 16.0367Z" fill="white"/>
<path d="M36.5 4.50024L31.5 10.5002L34 17.0002H56.3656L58 10.5002L53 4.50024H36.5Z" fill="white"/>
<path d="M9.56374 87.1723C9.56374 102.527 25.8785 114.971 46.0001 114.971C66.1217 114.971 82.4365 102.527 82.4365 87.1723C82.4365 71.8492 66.1217 59.4052 46.0001 59.4052C25.8785 59.4052 9.56374 71.8492 9.56374 87.1723Z" fill="#A7D7F9"/>
<path d="M90.1465 86.5009V98.7849C90.1465 110.109 80.9654 119.29 69.641 119.29H20.4727C9.14828 119.29 -0.0327911 110.109 -0.0327911 98.7849V86.5009H90.1465Z" fill="#121B74"/>
<path d="M89.4732 0.000244141L101.693 1.15188C112.986 2.20754 121.239 12.2204 120.183 23.4808L115.545 72.4572C114.489 83.7176 104.476 92.0029 93.216 90.9473L80.9639 89.7956L89.4732 0.000244141Z" fill="#0085F0"/>
</g>
<defs>
<clipPath id="clip0_290_504">
<rect width="120.282" height="119.29" fill="white" transform="matrix(-1 0 0 1 120.281 0.000244141)"/>
</clipPath>
</defs>
</svg>
