<svg width="149" height="161" viewBox="0 0 149 161" fill="none" xmlns="http://www.w3.org/2000/svg">
<path d="M130.761 140.464V44.9877C130.761 38.3292 125.355 32.9355 118.682 32.9355H65.8641C59.1907 32.9355 53.7852 38.3292 53.7852 44.9877V140.464C53.7852 147.123 59.1907 152.516 65.8641 152.516H118.682C125.355 152.516 130.761 147.118 130.761 140.464Z" fill="#121B74"/>
<path d="M130.762 160.535C134.225 160.535 137.031 157.734 137.031 154.279C137.031 150.825 134.225 148.024 130.762 148.024C127.3 148.024 124.493 150.825 124.493 154.279C124.493 157.734 127.3 160.535 130.762 160.535Z" fill="#121B74"/>
<path d="M86.0064 160.535C89.4687 160.535 92.2755 157.734 92.2755 154.279C92.2755 150.825 89.4687 148.024 86.0064 148.024C82.5441 148.024 79.7373 150.825 79.7373 154.279C79.7373 157.734 82.5441 160.535 86.0064 160.535Z" fill="#3B3B3B"/>
<path d="M122.426 0.000732422H118.992V34.0158H122.426V0.000732422Z" fill="#D8E3F3"/>
<path d="M101.841 0.000732422H98.4072V34.0158H101.841V0.000732422Z" fill="#D8E3F3"/>
<path d="M123.084 0.000976562H97.748V5.76312H123.084V0.000976562Z" fill="#121B74"/>
<path d="M127.757 33.5979C134.051 33.5979 139.177 38.7076 139.177 44.9927V140.469C139.177 146.749 134.056 151.864 127.757 151.864H74.9393C68.6453 151.864 63.5192 146.754 63.5192 140.469V44.9877C63.5192 38.7077 68.6403 33.5929 74.9393 33.5929H127.757V33.5979ZM127.757 32.9355H74.9393C68.2659 32.9355 62.8604 38.3292 62.8604 44.9877V140.464C62.8604 147.123 68.2659 152.516 74.9393 152.516H127.757C134.431 152.516 139.836 147.123 139.836 140.464V44.9877C139.836 38.3341 134.431 32.9355 127.757 32.9355Z" fill="white"/>
<path d="M148.909 140.464V44.9877C148.909 38.3292 143.503 32.9355 136.83 32.9355H84.0067C77.3333 32.9355 71.9277 38.3292 71.9277 44.9877V140.464C71.9277 147.123 77.3333 152.516 84.0067 152.516H136.83C143.498 152.516 148.909 147.118 148.909 140.464Z" fill="#0085F0"/>
<path d="M137.085 137.117V87.6136C137.085 82.8027 133.176 78.8982 128.35 78.8982H89.183C84.3614 78.8982 80.4482 82.7977 80.4482 87.6136V137.117C80.4482 141.928 84.3564 145.833 89.183 145.833H128.35C133.176 145.833 137.085 141.928 137.085 137.117Z" fill="#121B74"/>
<path d="M137.085 46.4515V65.2569C137.085 69.1515 133.92 72.3139 130.012 72.3139H87.5209C83.6177 72.3139 80.4482 69.1565 80.4482 65.2569V46.4515C80.4482 42.557 83.6127 39.3945 87.5209 39.3945H130.012C133.92 39.3995 137.085 42.557 137.085 46.4515Z" fill="#121B74"/>
<path d="M142.861 137.117V87.6136C142.861 82.8027 138.953 78.8982 134.126 78.8982H94.9594C90.1378 78.8982 86.2246 82.7977 86.2246 87.6136V137.117C86.2246 141.928 90.1328 145.833 94.9594 145.833H134.126C138.948 145.833 142.861 141.928 142.861 137.117Z" fill="#B8DDFF"/>
<path d="M142.861 46.4515V65.2569C142.861 69.1515 139.696 72.3139 135.788 72.3139H93.2973C89.3941 72.3139 86.2246 69.1565 86.2246 65.2569V46.4515C86.2246 42.557 89.3891 39.3945 93.2973 39.3945H135.788C139.696 39.3995 142.861 42.557 142.861 46.4515Z" fill="#B8DDFF"/>
<path d="M140.778 48.3743H89.2529" stroke="white" stroke-width="0.659801" stroke-miterlimit="10"/>
<path d="M140.304 88.9683H88.7783" stroke="white" stroke-width="0.659801" stroke-miterlimit="10"/>
<path d="M89.8607 48.2195C90.0753 50.0572 90.2949 51.8999 90.5095 53.7376C89.4064 54.4149 87.934 53.1798 87.8791 51.8849C87.8292 50.5951 88.6528 49.4546 89.8607 48.2195Z" fill="white"/>
<path d="M95.3577 88.9683C95.5723 90.806 95.792 92.6487 96.0066 94.4864C94.9035 95.1637 93.4311 93.9286 93.3762 92.6337C93.3262 91.3488 94.1548 90.2034 95.3577 88.9683Z" fill="white"/>
<path d="M63.3934 82.3796C62.7844 84.1277 62.1755 85.8808 61.5616 87.6288C60.2738 87.7583 59.4902 86.0053 60.0043 84.82C60.5234 83.6297 61.7662 82.9623 63.3934 82.3796Z" fill="white"/>
<path d="M63.4772 86.1296C63.9314 87.9275 64.3806 89.7204 64.8348 91.5183C63.8266 92.33 62.2094 91.2941 61.9898 90.0192C61.7702 88.7443 62.444 87.5092 63.4772 86.1296Z" fill="white"/>
<path d="M113.622 104.975L11.1359 104.248C5.15134 104.203 0.269842 109.009 0.22492 114.981L0.000311681 146.759C-0.0446101 152.731 4.772 157.601 10.7566 157.646L113.243 158.373C119.228 158.418 124.109 153.612 124.154 147.641L124.379 115.862C124.424 109.891 119.607 105.015 113.622 104.975Z" fill="#F4BA2B"/>
<path d="M49.9922 131.36C50.0571 129.856 50.3116 127.605 52.7524 126.33C53.9852 125.688 55.4527 125.807 56.8303 125.832C60.7285 125.902 63.8231 125.693 67.7213 125.762C69.2037 125.787 70.756 125.832 72.0538 126.629C73.3515 127.426 74.6892 129.687 74.4496 131.535" stroke="#3B3B3B" stroke-width="2.19932" stroke-miterlimit="10"/>
<path d="M0.144531 130.867C41.5075 131.644 82.8754 130.967 124.238 131.749" stroke="#FFFFFD" stroke-width="1.09968" stroke-miterlimit="10"/>
<path d="M42.0953 128.347L42.0498 134.757L46.3324 134.787L46.3779 128.378L42.0953 128.347Z" fill="white"/>
<path d="M78.0563 128.602L78.0107 135.012L82.2933 135.042L82.3388 128.632L78.0563 128.602Z" fill="white"/>
</svg>
