<svg width="233" height="120" viewBox="0 0 233 120" fill="none" xmlns="http://www.w3.org/2000/svg">
<g clip-path="url(#clip0_214_1121)">
<path d="M232.307 67.1141H130.302V119.34H232.307V67.1141Z" fill="white"/>
<path d="M132.377 67.1141H18.2998V119.34H132.377V67.1141Z" fill="#A7D7F9"/>
<path d="M232.307 67.1141L182.514 16.9244L132.377 67.1141H232.307Z" fill="white"/>
<path d="M132.377 67.1141L182.514 16.9244H50.1245L0.000976562 67.1141H132.377Z" fill="#002247"/>
<path d="M152.91 79.4369H211.918C215.224 79.4369 217.895 82.1077 217.895 85.4131V119.353H146.934V85.4131C146.934 82.1077 149.618 79.4369 152.91 79.4369Z" fill="#A7D7F9"/>
<path d="M185.701 67.1142H179.302C177.239 67.1142 175.573 65.4482 175.573 63.3857V50.4284C175.573 48.3658 177.239 46.6998 179.302 46.6998H185.701C187.764 46.6998 189.43 48.3658 189.43 50.4284V63.3857C189.43 65.4482 187.764 67.1142 185.701 67.1142Z" fill="#A8D6F9"/>
<path d="M119.061 0.000610352H104.689V50.8249H119.061V0.000610352Z" fill="white"/>
<path d="M135.59 0.000610352H119.062V50.8249L135.59 34.1788V0.000610352Z" fill="#A8D6F9"/>
<path d="M52.2268 67.1143H0.000976562V119.34H52.2268V67.1143Z" fill="#A7D7F9"/>
<path d="M104.452 67.1143H52.2266V119.34H104.452V67.1143Z" fill="#FBFFFF"/>
<path d="M0.000976562 67.1143L26.1139 40.8956L52.2268 67.1143H0.000976562Z" fill="#A7D7F9"/>
<path d="M52.2272 67.1143L26.1143 40.8956H78.3401L104.466 67.1143H52.2272Z" fill="#0085F0"/>
<path d="M73.1845 99.8514H66.7852C64.7226 99.8514 63.0566 98.1854 63.0566 96.1228V83.1655C63.0566 81.1029 64.7226 79.437 66.7852 79.437H73.1845C75.2471 79.437 76.913 81.1029 76.913 83.1655V96.1228C76.913 98.1722 75.2471 99.8514 73.1845 99.8514Z" fill="#A8D6F9"/>
<path d="M93.2001 99.8514H86.8008C84.7382 99.8514 83.0723 98.1854 83.0723 96.1228V83.1655C83.0723 81.1029 84.7382 79.437 86.8008 79.437H93.2001C95.2627 79.437 96.9286 81.1029 96.9286 83.1655V96.1228C96.9286 98.1722 95.2495 99.8514 93.2001 99.8514Z" fill="#A8D6F9"/>
<path d="M26.1131 80.6533C33.557 80.6533 39.5993 86.6956 39.5993 94.1395V119.34H12.627V94.1395C12.627 86.6824 18.6693 80.6533 26.1131 80.6533Z" fill="#0083E8"/>
</g>
<defs>
<clipPath id="clip0_214_1121">
<rect width="232.306" height="119.339" fill="white" transform="translate(0 0.000732422)"/>
</clipPath>
</defs>
</svg>
