<svg width="242" height="96" viewBox="0 0 242 96" fill="none" xmlns="http://www.w3.org/2000/svg">
<g clip-path="url(#clip0_458_802)">
<path d="M97.6605 36.8502C55.3542 35.2193 38.6315 35.7214 25.7973 46.5074C12.9631 57.2934 17.3008 76.715 22.6571 77.7895C47.8298 79.366 56.8283 77.3674 69.1333 77.4425C133.613 71.84 177.155 77.1643 181.971 77.2618C195.568 78.6129 221.051 74.7596 226.557 71.9839C229.933 62.6273 222.781 49.5165 217.161 45.5033C211.541 41.4901 160.576 33.2143 140.322 36.8518C120.069 40.4876 97.6605 36.8502 97.6605 36.8502Z" fill="#595959"/>
<path d="M233.778 57.8787C232.105 52.1931 232.439 50.8548 228.928 48.8482C227.924 47.0095 229.765 45.3371 228.928 41.6581C228.092 37.979 225.918 26.4415 220.568 25.1033C218.561 23.4308 202.675 3.86696 200 2.5287C198.662 2.5287 184.156 0.731561 147.409 0.1048C110.662 -0.52196 102.009 1.77723 97.6603 3.78382C93.313 5.79041 68.0219 26.3168 68.0219 26.3168C68.0219 26.3168 53.8494 27.4456 39.6785 29.2012C25.5061 30.9568 11.7109 36.7255 8.19981 41.4918C4.68867 46.258 3.68457 51.0227 3.68457 72.0927C3.68457 72.0927 5.18912 74.6014 10.6237 75.2697C16.0583 75.938 17.3118 77.5273 20.9908 77.7416C21.3042 77.7592 21.8782 77.7768 22.6585 77.7911C21.7423 75.2553 21.2419 72.5196 21.2419 69.6688C21.2419 56.4621 31.948 45.756 45.1547 45.756C58.3614 45.756 69.0675 56.4621 69.0675 69.6688C69.0675 71.9952 69.1971 74.7309 69.1347 77.4458C72.0127 77.465 168.382 78.1045 178.429 77.4458C179.587 77.3706 180.764 77.3131 181.972 77.2651C181.141 74.8876 180.687 72.3326 180.687 69.6704C180.687 56.9721 190.98 46.677 203.68 46.677C216.379 46.677 226.674 56.9705 226.674 69.6704C226.674 70.4651 226.634 71.2373 226.56 71.9872C228.444 71.6099 231.581 70.8888 232.609 70.0877C234.112 68.9158 235.45 63.5643 233.778 57.8787Z" fill="#2F76FC"/>
<path d="M152.927 26.7613L154.683 5.20361H109.533C109.533 5.20361 107.193 7.54437 89.6338 27.9461C89.6338 27.9461 87.1251 27.9461 85.1185 27.9461C85.1185 27.9461 82.2757 29.9527 79.2666 37.477C76.3487 44.7711 79.0875 60.552 79.2586 77.5049C95.8182 77.6009 129.091 77.7719 152.708 77.7336C153.666 68.1499 155.06 63.2717 158.195 51.7742C161.957 37.979 158.696 31.7082 152.927 26.7613Z" fill="#2F76FC"/>
<path d="M199.999 2.5287C198.661 2.5287 184.156 0.731561 147.409 0.1048C110.662 -0.521961 102.009 1.77723 97.6599 3.78382C93.3126 5.79042 68.0215 26.3168 68.0215 26.3168C70.9059 28.7839 85.9561 28.4497 108.697 27.6135C128.098 26.9004 199.836 25.4566 220.502 25.0489C218.249 23.0487 202.649 3.85417 199.999 2.5287Z" fill="white"/>
<path d="M228.626 40.291C228.64 40.5676 228.696 40.8378 228.807 41.108C228.751 40.8586 228.69 40.5852 228.626 40.291Z" fill="#DBC8B1"/>
<path d="M29.1117 32.5236C30.2789 33.9562 27.951 36.8758 23.0648 40.4701C18.1786 44.0643 14.2709 44.5632 13.027 44.5632C8.76281 44.5632 7.28864 41.4901 17.9803 35.9724C23.3702 33.192 28.421 31.6778 29.1117 32.5236Z" fill="#F0F2F7"/>
<path d="M60.1687 84.6839C68.4619 76.3907 68.4619 62.9447 60.1687 54.6515C51.8755 46.3583 38.4295 46.3583 30.1363 54.6515C21.8431 62.9447 21.8431 76.3907 30.1363 84.6839C38.4295 92.9771 51.8755 92.9771 60.1687 84.6839Z" fill="#1A202B"/>
<path d="M60.5703 73.3147C62.5813 64.7983 57.3083 56.2644 48.7928 54.2537C40.2773 52.2429 31.7439 57.5167 29.733 66.0331C27.722 74.5495 32.995 83.0834 41.5105 85.0942C50.026 87.1049 58.5594 81.8311 60.5703 73.3147Z" fill="#6F7375"/>
<path d="M50.3378 69.6672C50.3378 72.5308 48.0163 74.8508 45.1543 74.8508C42.2907 74.8508 39.9707 72.5292 39.9707 69.6672C39.9707 66.8036 42.2923 64.4836 45.1543 64.4836C48.0163 64.4836 50.3378 66.8052 50.3378 69.6672Z" fill="#1A202B"/>
<path d="M218.693 84.6845C226.986 76.3913 226.986 62.9454 218.693 54.6521C210.4 46.3589 196.954 46.3589 188.661 54.6521C180.368 62.9454 180.368 76.3913 188.661 84.6845C196.954 92.9778 210.4 92.9778 218.693 84.6845Z" fill="#1A202B"/>
<path d="M21.2253 77.7529C21.2732 77.7545 21.3244 77.7577 21.3787 77.7593C21.4283 77.7609 21.4811 77.7625 21.537 77.7641C21.577 77.7657 21.6186 77.7673 21.6617 77.7673C21.7209 77.7689 21.7849 77.7705 21.8488 77.7721C21.8664 77.7721 21.8824 77.7737 21.9 77.7737C22.1238 77.7801 22.3764 77.7849 22.6562 77.7897C21.8056 75.4345 21.3196 72.9067 21.254 70.2749C21.1549 70.2701 21.0622 70.2669 20.9902 70.2621C17.3112 70.0479 16.0577 68.4602 10.6231 67.7903C5.75929 67.1923 4.04529 65.1217 3.73671 64.6932C3.73671 64.6932 3.73671 64.6948 3.73671 64.6964C3.73191 64.9714 3.72712 65.2496 3.72392 65.531C3.72392 65.5342 3.72392 65.5358 3.72392 65.539C3.71912 65.822 3.71593 66.1082 3.71273 66.3976C3.71273 66.3992 3.71273 66.4008 3.71273 66.4024C3.70953 66.6918 3.70633 66.9844 3.70313 67.2802C3.70313 67.2834 3.70313 67.2866 3.70313 67.2914C3.69994 67.5808 3.69834 67.875 3.69514 68.1724C3.69514 68.1836 3.69514 68.1948 3.69514 68.206C3.69354 68.4778 3.69194 68.7544 3.69034 69.0326C3.69034 69.0742 3.69034 69.1125 3.69034 69.1541C3.68874 69.4131 3.68715 69.6769 3.68715 69.9408C3.68715 69.9983 3.68715 70.0559 3.68715 70.1134C3.68555 70.3693 3.68555 70.6299 3.68555 70.8905C3.68555 70.9592 3.68555 71.0248 3.68555 71.0936C3.68555 71.4213 3.68555 71.7539 3.68555 72.0913C3.68555 72.0913 5.19009 74.5999 10.6247 75.2682C16.0593 75.9366 17.3128 77.5258 20.9918 77.7401C21.0414 77.7433 21.1005 77.7465 21.1645 77.7481C21.1821 77.7513 21.2045 77.7513 21.2253 77.7529Z" fill="#A7D7F9"/>
<path d="M232.786 69.9248C232.816 69.8944 232.845 69.864 232.875 69.832C232.893 69.8129 232.91 69.7905 232.928 69.7697C232.955 69.7377 232.981 69.7057 233.006 69.6722C233.026 69.6482 233.043 69.6226 233.061 69.597C233.086 69.5634 233.11 69.5283 233.134 69.4915C233.153 69.4643 233.171 69.4355 233.19 69.4051C233.214 69.3684 233.237 69.33 233.261 69.2916C233.28 69.2596 233.297 69.2277 233.316 69.1957C233.339 69.1557 233.361 69.1141 233.384 69.0726C233.403 69.0374 233.42 69.0022 233.438 68.967C233.46 68.9239 233.481 68.8791 233.502 68.8343C233.52 68.796 233.537 68.7592 233.556 68.7208C233.577 68.6745 233.598 68.6265 233.617 68.5801C233.635 68.5385 233.652 68.4986 233.67 68.4554C233.689 68.4074 233.708 68.3563 233.729 68.3051C233.747 68.2619 233.763 68.2188 233.78 68.174C233.799 68.1196 233.819 68.0637 233.838 68.0077C233.87 67.9166 233.9 67.8223 233.93 67.7263C233.946 67.6768 233.962 67.6288 233.977 67.5776C233.994 67.5185 234.012 67.4561 234.028 67.3938C234.041 67.3458 234.055 67.2994 234.068 67.2515C234.084 67.1875 234.1 67.1219 234.116 67.058C234.129 67.01 234.14 66.9605 234.151 66.9109C234.167 66.8437 234.181 66.775 234.197 66.7062C234.209 66.6567 234.218 66.6071 234.229 66.5575C234.244 66.4856 234.258 66.4136 234.273 66.3401C234.282 66.2905 234.292 66.241 234.3 66.1914C234.313 66.1162 234.327 66.0395 234.338 65.9628C234.346 65.9132 234.354 65.8652 234.361 65.8157C234.373 65.7357 234.385 65.6558 234.396 65.5742C234.402 65.5263 234.409 65.4767 234.415 65.4287C234.426 65.344 234.436 65.2592 234.445 65.1729C234.45 65.1297 234.455 65.085 234.458 65.0402C234.468 64.9475 234.477 64.8531 234.485 64.7588C234.488 64.7268 234.49 64.6932 234.493 64.6613C234.533 64.1704 234.552 63.6572 234.549 63.1279C234.549 63.1072 234.549 63.088 234.549 63.0672C234.548 62.9553 234.546 62.8417 234.543 62.7282C234.541 62.6898 234.541 62.6499 234.54 62.6115C234.536 62.5044 234.53 62.3957 234.525 62.2869C234.524 62.2406 234.52 62.1958 234.519 62.1494C234.512 62.0423 234.504 61.9352 234.496 61.8281C234.493 61.7785 234.488 61.7289 234.485 61.6794C234.476 61.5722 234.466 61.4651 234.456 61.358C234.452 61.3068 234.445 61.2557 234.441 61.2045C234.429 61.0974 234.417 60.9886 234.402 60.8799C234.396 60.8288 234.389 60.7776 234.381 60.7264C234.367 60.6161 234.351 60.5058 234.335 60.3939C234.327 60.3459 234.319 60.2979 234.313 60.25C234.295 60.1348 234.276 60.0197 234.255 59.903C234.249 59.8646 234.241 59.8247 234.233 59.7863C234.209 59.66 234.186 59.5337 234.159 59.4073C233.793 60.9838 233.214 62.135 232.608 62.6067C231.492 63.4749 227.895 64.2504 226.11 64.5941C226.478 66.2266 226.673 67.9246 226.673 69.6674C226.673 70.462 226.633 71.2343 226.56 71.9841C226.667 71.9633 226.779 71.9394 226.892 71.917C226.915 71.9122 226.937 71.9074 226.959 71.9026C227.068 71.8802 227.18 71.8562 227.294 71.8322C227.305 71.8306 227.314 71.8274 227.325 71.8258C227.45 71.7987 227.578 71.7715 227.708 71.7427C227.73 71.7379 227.754 71.7315 227.776 71.7267C227.882 71.7027 227.989 71.6787 228.098 71.6532C228.13 71.6452 228.162 71.6388 228.195 71.6308C228.322 71.602 228.45 71.5716 228.579 71.5396C228.584 71.538 228.589 71.538 228.593 71.5364C228.725 71.5045 228.857 71.4725 228.988 71.4389C229.024 71.4293 229.06 71.4213 229.095 71.4117C229.198 71.3862 229.299 71.359 229.399 71.3318C229.434 71.3222 229.471 71.3126 229.506 71.303C229.637 71.2678 229.767 71.2327 229.896 71.1959C229.912 71.1911 229.927 71.1863 229.943 71.1831C230.056 71.1511 230.167 71.1175 230.279 71.084C230.315 71.0728 230.352 71.0616 230.389 71.0504C230.486 71.02 230.581 70.9896 230.675 70.9593C230.704 70.9497 230.734 70.9401 230.763 70.9305C230.881 70.8905 230.997 70.8521 231.11 70.8122C231.136 70.8026 231.16 70.7946 231.184 70.785C231.272 70.753 231.358 70.7194 231.443 70.6874C231.475 70.6746 231.507 70.6619 231.539 70.6491C231.625 70.6139 231.71 70.5787 231.79 70.5435C231.806 70.5355 231.825 70.5292 231.841 70.5212C231.935 70.478 232.025 70.4364 232.108 70.3932C232.13 70.3821 232.151 70.3709 232.172 70.3597C232.236 70.3261 232.295 70.2925 232.351 70.2589C232.372 70.2462 232.394 70.2334 232.415 70.2206C232.485 70.1758 232.552 70.131 232.61 70.0863C232.655 70.0511 232.699 70.0127 232.744 69.9695C232.755 69.9552 232.771 69.9392 232.786 69.9248Z" fill="#E0E0E0"/>
<path d="M180.202 77.342C180.792 77.3116 181.382 77.2861 181.972 77.2637C181.139 74.8813 180.709 72.3647 180.689 69.8417C179.02 69.92 177.357 70.0303 175.688 70.0735C173.993 70.1167 172.298 70.1423 170.602 70.1615C168.314 70.1886 166.028 70.2062 163.74 70.2206C160.975 70.2366 158.211 70.2478 155.446 70.2542C152.32 70.2622 149.196 70.2654 146.07 70.2654C142.7 70.2654 139.33 70.2622 135.957 70.2574C132.458 70.2526 128.956 70.2446 125.456 70.235C121.942 70.2254 118.427 70.2142 114.913 70.2014C111.499 70.1886 108.087 70.1758 104.674 70.1599C101.478 70.1455 98.2831 70.1311 95.0869 70.1151C92.2249 70.1007 89.3613 70.0863 86.4993 70.0703C84.085 70.0575 81.6707 70.0431 79.2564 70.0287C77.4065 70.0175 75.5566 70.0064 73.7067 69.9952C72.5363 69.9872 71.3675 69.9808 70.1972 69.9728C69.8214 69.9696 69.4441 69.968 69.0684 69.9648C69.0796 72.4574 69.1915 74.9501 69.1339 77.4427C70.7648 77.4539 72.3972 77.4635 74.0281 77.4747C77.787 77.4987 81.5444 77.5195 85.3034 77.5403C90.5365 77.5691 95.7712 77.5962 101.004 77.6202C107.063 77.6474 113.121 77.673 119.179 77.6922C125.469 77.713 131.757 77.7289 138.047 77.7369C144.173 77.7433 150.298 77.7449 156.423 77.7289C162.329 77.713 168.239 77.7018 174.145 77.585C176.166 77.5451 178.181 77.4411 180.202 77.342C180.784 77.3132 180.187 77.3436 180.202 77.342Z" fill="#A7D7F9"/>
<path d="M45.1534 39.9023C28.7153 39.9023 15.3887 53.229 15.3887 69.6671C15.3887 72.0478 15.6701 74.363 16.1977 76.5822C17.7694 77.1275 19.0389 77.6263 20.9895 77.7398C21.3029 77.7574 21.8769 77.775 22.6572 77.7894C21.741 75.2536 21.2406 72.5179 21.2406 69.6671C21.2406 56.4603 31.9467 45.7542 45.1534 45.7542C58.3602 45.7542 69.0662 56.4603 69.0662 69.6671C69.0662 71.9935 69.1958 74.7291 69.1334 77.444C69.4788 77.4456 71.1656 77.4568 73.8821 77.4744C74.5568 74.9865 74.9182 72.3692 74.9182 69.6671C74.9198 53.229 61.5931 39.9023 45.1534 39.9023Z" fill="#A7D7F9"/>
<path d="M203.679 40.4875C187.563 40.4875 174.499 53.552 174.499 69.6671C174.499 72.3996 174.876 75.0441 175.578 77.5512C176.837 77.5192 177.801 77.484 178.429 77.4424C179.587 77.3673 180.763 77.3097 181.972 77.2618C181.141 74.8842 180.687 72.3292 180.687 69.6671C180.687 56.9688 190.98 46.6736 203.68 46.6736C216.378 46.6736 226.674 56.9672 226.674 69.6671C226.674 70.4617 226.634 71.234 226.56 71.9839C227.93 71.7105 229.963 71.2532 231.365 70.716C229.304 51.5246 219.794 40.4875 203.679 40.4875Z" fill="#A7D7F9"/>
<path d="M229.087 44.6752C229.189 43.831 229.2 42.8509 228.93 41.6597C228.326 38.9992 227.021 32.2295 224.32 28.1779C221.294 25.3559 219.316 27.4457 219.524 28.5329C220.736 31.6267 224.795 43.5831 226.11 44.8367C227.146 45.8248 228.276 46.0838 229.087 44.6752Z" fill="#AB1A1A"/>
<path d="M109.533 5.2052C109.533 5.2052 106.967 7.78419 89.4081 28.1859C89.4081 28.1859 85.953 28.2307 84.7842 28.2307C91.2357 28.2179 99.31 27.9589 108.697 27.6135C116.813 27.3145 134.087 26.8892 152.951 26.4639L154.682 5.2052H109.533Z" fill="#002247"/>
<path d="M209.617 25.2647C209.617 25.2647 202.465 14.1381 195.192 6.18043C190.175 3.11378 164.089 4.35611 164.089 6.18043V26.216C180.861 25.8498 197.72 25.5029 209.617 25.2647Z" fill="#002247"/>
<path d="M203.869 6.18054C201.965 4.2427 200.734 2.73496 200 2.5287C198.661 2.5287 184.156 0.731561 147.409 0.1048C110.662 -0.521961 102.009 1.77723 97.6602 3.78382C102.175 5.20523 109.533 5.20523 109.533 5.20523C123.907 5.76323 184.284 6.08781 203.869 6.18054Z" fill="white"/>
<path d="M68.0215 26.3167C69.2158 27.3384 72.4983 27.8788 77.5476 28.1027C82.381 23.8513 99.796 8.5372 103.886 4.90615L101.444 2.44067C99.7992 2.87877 98.624 3.33765 97.6615 3.78213C93.3126 5.79033 68.0215 26.3167 68.0215 26.3167Z" fill="#002247"/>
<path d="M154.621 36.8503H140.324C139.804 36.8503 139.384 36.4297 139.384 35.9101C139.384 35.3905 139.804 34.97 140.324 34.97H154.621C155.141 34.97 155.561 35.3905 155.561 35.9101C155.561 36.4297 155.141 36.8503 154.621 36.8503Z" fill="#DBC8B1"/>
<path d="M92.8699 26.4271C90.7802 28.6016 89.4004 29.4378 89.6098 30.6082C89.8193 31.7786 92.8284 32.5732 96.2564 32.1127C99.6844 31.6523 99.5916 30.4275 99.5533 29.8695C99.5165 29.3115 98.1367 28.4337 97.593 27.5144C97.051 26.595 92.8699 26.4271 92.8699 26.4271Z" fill="#1867FB"/>
<path d="M217.963 83.9553C225.854 76.0648 225.854 63.2718 217.963 55.3814C210.073 47.4909 197.28 47.4909 189.39 55.3814C181.499 63.2718 181.499 76.0648 189.39 83.9553C197.28 91.8458 210.073 91.8458 217.963 83.9553Z" fill="#16162A"/>
<path d="M206.296 84.7895C214.652 83.3418 220.253 75.3944 218.805 67.0384C217.357 58.6824 209.41 53.082 201.054 54.5297C192.698 55.9773 187.097 63.9248 188.545 72.2808C189.993 80.6368 197.94 86.2371 206.296 84.7895Z" fill="#6F7375"/>
<path d="M206.296 84.7895C214.652 83.3418 220.253 75.3944 218.805 67.0384C217.357 58.6824 209.41 53.082 201.054 54.5297C192.698 55.9773 187.097 63.9248 188.545 72.2808C189.993 80.6368 197.94 86.2371 206.296 84.7895Z" fill="#414445"/>
<path d="M209.379 71.7251C210.52 68.5749 208.89 65.0967 205.74 63.9562C202.59 62.8158 199.112 64.4451 197.971 67.5953C196.831 70.7455 198.46 74.2238 201.61 75.3642C204.76 76.5047 208.239 74.8754 209.379 71.7251Z" fill="#16162A"/>
<path d="M217.903 63.8746C217.835 63.7083 217.766 63.542 217.691 63.3773L204.858 68.8679L214.725 59.0012C214.6 58.8717 214.472 58.7438 214.343 58.619L204.418 68.5433L209.64 55.5108C209.474 55.4405 209.308 55.3749 209.138 55.311L203.947 68.2667V54.3133C203.857 54.3117 203.768 54.3101 203.677 54.3101C203.585 54.3101 203.496 54.3117 203.406 54.3133V68.3482L197.884 55.4405C197.718 55.5092 197.551 55.578 197.387 55.6531L202.877 68.4857L193.01 58.619C192.881 58.7438 192.755 58.8717 192.628 59.0012L202.553 68.9254L189.52 63.7035C189.45 63.8698 189.384 64.036 189.32 64.2055L202.276 69.3971H188.323C188.321 69.4866 188.319 69.5762 188.319 69.6673C188.319 69.7568 188.321 69.848 188.323 69.9375H202.358L189.45 75.46C189.519 75.6263 189.587 75.7926 189.662 75.9573L202.495 70.4667L192.628 80.3334C192.753 80.4629 192.881 80.5908 193.01 80.7155L202.935 70.7913L197.713 83.8238C197.879 83.8941 198.045 83.9597 198.215 84.0236L203.406 71.0679V85.0213C203.496 85.0229 203.585 85.0245 203.677 85.0245C203.768 85.0245 203.857 85.0229 203.947 85.0213V70.9864L209.469 83.8941C209.636 83.8254 209.802 83.7566 209.965 83.6815L204.474 70.8489L214.341 80.7155C214.471 80.5908 214.597 80.4629 214.723 80.3334L204.799 70.4092L217.831 75.6311C217.902 75.4648 217.967 75.2985 218.031 75.1291L205.076 69.9375H219.029C219.031 69.848 219.032 69.7584 219.032 69.6673C219.032 69.5778 219.031 69.4866 219.029 69.3971H204.994L217.903 63.8746Z" fill="#A1A1A1"/>
<path d="M199.639 69.6672C199.639 71.8992 201.449 73.7076 203.679 73.7076C205.911 73.7076 207.719 71.8976 207.719 69.6672C207.719 67.4352 205.909 65.6268 203.679 65.6268C201.447 65.6268 199.639 67.4368 199.639 69.6672Z" fill="#A1A1A1"/>
<path d="M59.4391 83.9547C67.3295 76.0642 67.3296 63.2712 59.4391 55.3807C51.5486 47.4903 38.7556 47.4903 30.8651 55.3807C22.9746 63.2712 22.9746 76.0642 30.8651 83.9547C38.7556 91.8452 51.5486 91.8452 59.4391 83.9547Z" fill="#16162A"/>
<path d="M56.0104 80.5257C62.0071 74.529 62.0071 64.8064 56.0104 58.8098C50.0137 52.8131 40.2912 52.8131 34.2945 58.8098C28.2978 64.8064 28.2978 74.529 34.2945 80.5257C40.2912 86.5224 50.0137 86.5224 56.0104 80.5257Z" fill="#6F7375"/>
<path d="M56.0104 80.5257C62.0071 74.529 62.0071 64.8064 56.0104 58.8098C50.0137 52.8131 40.2912 52.8131 34.2945 58.8098C28.2978 64.8064 28.2978 74.529 34.2945 80.5257C40.2912 86.5224 50.0137 86.5224 56.0104 80.5257Z" fill="#414445"/>
<path d="M50.7591 71.9901C52.0412 68.8948 50.5713 65.3462 47.4761 64.064C44.3808 62.7819 40.8322 64.2517 39.55 67.347C38.2679 70.4423 39.7377 73.9909 42.833 75.2731C45.9283 76.5552 49.4769 75.0853 50.7591 71.9901Z" fill="#16162A"/>
<path d="M59.379 63.8746C59.3102 63.7083 59.2415 63.542 59.1663 63.3773L46.3337 68.8679L56.2004 59.0012C56.0757 58.8717 55.9478 58.7438 55.8183 58.619L45.894 68.5433L51.116 55.5108C50.9497 55.4405 50.7834 55.3749 50.6139 55.311L45.4224 68.2667V54.3133C45.3328 54.3117 45.2433 54.3101 45.1522 54.3101C45.0626 54.3101 44.9715 54.3117 44.8819 54.3133V68.3482L39.3594 55.4405C39.1931 55.5092 39.0269 55.578 38.8622 55.6531L44.3527 68.4857L34.486 58.619C34.3565 58.7438 34.2286 58.8717 34.1039 59.0012L44.0281 68.9254L30.9957 63.7035C30.9253 63.8698 30.8598 64.036 30.7958 64.2055L43.7515 69.3971H29.7981C29.7965 69.4866 29.7949 69.5762 29.7949 69.6673C29.7949 69.7568 29.7965 69.848 29.7981 69.9375H43.8331L30.9253 75.46C30.9941 75.6263 31.0628 75.7926 31.138 75.9573L43.9706 70.4667L34.1039 80.3334C34.2286 80.4629 34.3565 80.5908 34.486 80.7155L44.4103 70.7913L39.1883 83.8238C39.3546 83.8941 39.5209 83.9597 39.6904 84.0236L44.8819 71.0679V85.0213C44.9715 85.0229 45.061 85.0245 45.1522 85.0245C45.2417 85.0245 45.3328 85.0229 45.4224 85.0213V70.9864L50.9449 83.8941C51.1112 83.8254 51.2775 83.7566 51.4422 83.6815L45.9516 70.8489L55.8183 80.7155C55.9478 80.5908 56.0757 80.4629 56.2004 80.3334L46.2762 70.4092L59.3086 75.6311C59.379 75.4648 59.4445 75.2985 59.5085 75.1291L46.5528 69.9375H60.5062C60.5078 69.848 60.5094 69.7584 60.5094 69.6673C60.5094 69.5778 60.5078 69.4866 60.5062 69.3971H46.4712L59.379 63.8746Z" fill="#A1A1A1"/>
<path d="M41.1133 69.6672C41.1133 71.8992 42.9232 73.7076 45.1536 73.7076C47.3841 73.7076 49.194 71.8976 49.194 69.6672C49.194 67.4352 47.3841 65.6268 45.1536 65.6268C42.9232 65.6268 41.1133 67.4368 41.1133 69.6672Z" fill="#A1A1A1"/>
<path d="M96.9917 20.233C102.453 19.8013 104.265 20.1083 104.893 21.7375C105.52 23.3684 106.147 27.3192 104.705 29.1372C103.263 30.9551 96.8894 30.2564 93.8803 28.0691C91.3796 26.2512 91.5507 23.2677 92.0688 22.489C92.6955 21.5505 95.2905 20.3673 96.9917 20.233Z" fill="#2F76FC"/>
</g>
<defs>
<clipPath id="clip0_458_802">
<rect width="242" height="95.047" fill="white" transform="translate(0 -0.000732422)"/>
</clipPath>
</defs>
</svg>
