<svg width="139" height="83" viewBox="0 0 139 83" fill="none" xmlns="http://www.w3.org/2000/svg">
<path d="M19.3525 66.0712V72.2963C19.3525 73.8065 20.2695 75.2318 21.9056 76.4986C22.1468 76.6941 22.4119 76.8788 22.6835 77.0592C23.3918 77.535 24.1936 77.9783 25.0888 78.3976C25.3452 78.515 25.6016 78.6236 25.8645 78.7388C26.6837 79.0886 27.568 79.4167 28.5219 79.7122C28.7696 79.7991 29.0347 79.8752 29.2998 79.9556C30.1385 80.2141 31.0359 80.4445 31.9615 80.6552C32.2179 80.7117 32.4721 80.7726 32.7394 80.8269C33.5976 81.0051 34.482 81.168 35.4011 81.3158C35.6575 81.3549 35.9139 81.394 36.179 81.4353C37.0438 81.5591 37.9303 81.6678 38.8342 81.7547C39.0906 81.7851 39.347 81.8068 39.612 81.8242C40.4833 81.9111 41.372 81.9698 42.2738 82.0111C42.5323 82.0263 42.7952 82.0415 43.0538 82.0502C43.9316 82.0915 44.8182 82.1045 45.7134 82.1045H45.8155C46.0393 82.1045 46.2674 82.1045 46.4912 82.098C47.3886 82.098 48.2751 82.0676 49.1464 82.0176C49.4115 82.0176 49.6679 82.0046 49.9243 81.9807C50.8282 81.9329 51.7147 81.8633 52.5882 81.7764C52.8511 81.7547 53.1097 81.7308 53.3661 81.6917C54.2765 81.5982 55.163 81.4809 56.0278 81.3484C56.2929 81.3093 56.5493 81.2615 56.8078 81.2158C57.7183 81.0681 58.6048 80.8877 59.4609 80.703C59.726 80.64 59.9824 80.5857 60.2388 80.5162C61.1644 80.2989 62.0596 80.049 62.9005 79.7861C63.1656 79.7079 63.422 79.621 63.6805 79.5362C64.6366 79.2081 65.5231 78.8583 66.3401 78.4933C66.6138 78.3672 66.8702 78.2434 67.1201 78.113C68.1479 77.598 69.0344 77.0548 69.7732 76.4703C70.0534 76.2444 70.3185 76.0184 70.5554 75.7859C71.6679 74.7038 72.2828 73.5283 72.2828 72.2985C72.2828 70.5798 72.2828 66.0733 72.2828 66.0733H19.3525V66.0712Z" fill="#DE7A00"/>
<path d="M45.8106 57.1191C31.1961 57.1191 19.3477 61.128 19.3477 66.069C19.3477 71.0122 31.1961 75.0211 45.8106 75.0211C60.4251 75.0211 72.2757 71.0122 72.2757 66.069C72.2757 61.1258 60.4273 57.1191 45.8106 57.1191Z" fill="#FEC833"/>
<path d="M72.2695 66.0886C72.2695 67.5031 71.3004 68.8437 69.5687 70.0322C67.6261 71.3664 70.6507 68.7785 70.6507 66.321C70.6507 61.3779 57.7658 57.7644 43.1513 57.7644C37.4172 57.7644 33.0889 58.1229 36.8284 57.6666C39.6313 57.3255 42.6538 57.1365 45.8065 57.1365C60.4232 57.1365 72.2695 61.1454 72.2695 66.0886Z" fill="#FFFBDC"/>
<path d="M45.8096 58.827C33.9894 58.827 24.4072 62.0689 24.4072 66.0669C24.4072 70.0649 33.9894 73.3068 45.8096 73.3068C57.632 73.3068 67.2142 70.0649 67.2142 66.0669C67.2164 62.0711 57.632 58.827 45.8096 58.827Z" stroke="#E38F2F" stroke-width="0.452666" stroke-miterlimit="10"/>
<path d="M39.718 62.7426C37.8668 62.7491 36.3958 63.3053 35.1486 63.7312C33.9774 64.131 32.4629 64.2027 32.4629 64.2027L27.8848 64.3635C27.8848 64.3635 27.8848 65.5542 27.8848 65.8106C27.8848 66.0453 28.3737 66.2886 29.1885 66.2886C30.0511 66.2886 31.2135 66.2843 32.0088 66.28C32.1174 67.1447 33.6732 68.1312 34.4619 68.518C35.066 68.8135 35.896 68.8678 36.7434 68.7787C37.6234 68.6875 38.4795 68.5071 38.6881 68.0921C38.8815 67.7032 38.2405 66.7688 38.2405 66.7688C38.2405 66.7688 36.1003 66.5755 36.0459 66.2647L44.8785 66.2321C46.2104 67.1339 47.4142 67.7053 48.5593 67.9791C49.7348 68.2616 51.1341 68.4028 52.7159 68.3963C54.5976 68.3898 56.2402 68.166 57.5961 67.7271C58.8694 67.3142 59.6625 66.7949 59.9601 66.1822C60.5229 66.1778 62.2981 66.2082 63.5301 66.2082C64.6339 66.2082 64.5622 64.2831 64.5622 64.2831C64.5622 64.2831 63.8734 64.294 62.8196 64.294C62.1004 64.294 60.7815 64.2918 60.0883 64.294C59.971 63.5118 59.6234 64.0376 58.9324 63.6421C58.3566 63.314 54.9474 62.1581 54.9474 62.1581C54.9474 62.1581 54.9496 63.5378 54.9496 63.6052C54.9496 63.6639 55.0061 63.7269 55.1234 63.7877C56.0186 64.2701 55.8079 64.4787 55.8079 64.4787H48.1942C48.1942 64.4787 45.1436 63.892 43.9746 63.5704C42.7556 63.2445 41.2586 62.7382 39.718 62.7426Z" fill="#E38F2F"/>
<path d="M39.815 61.6343C37.966 61.6409 36.395 61.8581 35.1456 62.2862C33.9745 62.686 33.2053 63.2335 32.8511 63.9158C32.0906 63.9202 30.1872 63.9267 29.166 63.9267C28.4098 63.9267 27.8818 64.107 27.8818 64.3634C27.8818 64.5981 28.3707 64.8414 29.1855 64.8414C30.0482 64.8414 31.8755 64.8327 32.6729 64.8306C32.7816 65.6954 33.6703 66.6862 34.4612 67.0708C35.0652 67.3663 36.5992 67.3728 37.4445 67.2837C38.331 67.1881 38.6613 66.9621 38.2397 66.7709C37.4966 66.4233 37.099 66.2168 36.6818 65.817C36.3124 65.4629 36.0995 65.1282 36.043 64.8197L44.8756 64.7893C46.2075 65.691 47.4113 66.2603 48.5564 66.5341C49.7319 66.8187 51.1312 66.9578 52.713 66.9534C54.5947 66.9469 56.2373 66.7209 57.5932 66.282C58.8664 65.8714 59.6595 65.3499 59.9572 64.7393C60.5156 64.735 61.715 64.7306 62.9492 64.7306C64.053 64.7306 64.5571 64.5003 64.5571 64.2852C64.5571 64.0549 63.9856 63.8159 62.9296 63.8159C62.2104 63.8159 60.7394 63.8202 60.0463 63.8246C59.9268 63.0423 59.6161 62.5947 58.9273 62.1993C58.3515 61.869 56.6741 61.7821 55.768 61.8647C55.0205 61.9342 54.9401 62.095 54.9401 62.1623C54.9401 62.221 54.9988 62.284 55.114 62.347C56.0092 62.8272 56.5307 63.3292 56.6654 63.8376L47.5547 63.868C46.3118 63.0206 45.1363 62.4513 43.9652 62.1297C42.7549 61.7951 41.3578 61.6278 39.815 61.6343ZM43.4589 63.881L36.269 63.905C36.7839 63.2661 37.8747 62.9532 39.5934 62.9489C40.9971 62.9446 42.2921 63.2574 43.4589 63.881ZM55.3877 65.3564C54.7489 65.5454 53.9928 65.6367 53.0672 65.6389C52.0959 65.6432 51.2919 65.5672 50.6814 65.4216C50.1556 65.2956 49.608 65.0783 49.0518 64.7762L56.5024 64.7523C56.2873 64.9979 55.9136 65.2021 55.3877 65.3564Z" fill="#FFDB31"/>
<path d="M23.0723 56.2977V62.5251C23.0723 64.0352 23.9935 65.4606 25.6275 66.7295C25.8687 66.9251 26.1338 67.1097 26.4054 67.2901C27.1116 67.7638 27.9155 68.2092 28.8085 68.6286C29.0649 68.7459 29.3235 68.8524 29.5886 68.9697C30.4056 69.3217 31.2921 69.6498 32.2416 69.9431C32.4915 70.03 32.7544 70.1061 33.0217 70.1843C33.8604 70.4407 34.7556 70.6754 35.6834 70.884C35.9398 70.9383 36.194 71.0013 36.4613 71.0534C37.3174 71.2338 38.2039 71.3968 39.123 71.5467C39.3794 71.5858 39.6358 71.6271 39.9009 71.664C40.7678 71.7879 41.6522 71.8965 42.5561 71.9834C42.8125 72.0138 43.0689 72.0377 43.3339 72.053C44.2052 72.1377 45.0918 72.2029 45.9957 72.2398C46.2521 72.2528 46.5171 72.2702 46.7757 72.2789C47.6535 72.3159 48.5401 72.3311 49.4353 72.3311H49.5374C49.7634 72.3311 49.9872 72.3311 50.2131 72.3246C51.1083 72.3246 51.9949 72.2941 52.8662 72.2463C53.1312 72.2463 53.3876 72.2311 53.6462 72.2072C54.5479 72.1594 55.4344 72.0899 56.3058 72.003C56.5708 71.9812 56.8294 71.9573 57.0858 71.9182C57.9962 71.827 58.8827 71.7075 59.7454 71.5771C60.0104 71.5358 60.269 71.4923 60.5254 71.4445C61.4336 71.2968 62.3223 71.1165 63.1784 70.9318C63.4435 70.8687 63.6999 70.8123 63.9563 70.7449C64.8841 70.5276 65.7793 70.2777 66.6202 70.0127C66.8853 69.9344 67.1395 69.8497 67.3981 69.7628C68.3541 69.4369 69.2428 69.087 70.0598 68.722C70.3336 68.5981 70.59 68.4721 70.8377 68.3417C71.8676 67.8268 72.7519 67.2814 73.4929 66.6991C73.7753 66.4731 74.0361 66.2471 74.2729 66.0146C75.3876 64.9326 76.0003 63.7571 76.0003 62.5272C76.0003 60.8064 76.0003 56.2999 76.0003 56.2999H23.0723V56.2977Z" fill="#DE7A00"/>
<path d="M49.5352 47.3457C34.9207 47.3457 23.0723 51.3546 23.0723 56.2956C23.0723 61.2388 34.9207 65.2477 49.5352 65.2477C64.1497 65.2477 75.9982 61.2388 75.9982 56.2956C75.996 51.3524 64.1497 47.3457 49.5352 47.3457Z" fill="#FEC833"/>
<path d="M75.9932 56.3174C75.9932 57.7319 75.0219 59.0682 73.2923 60.2568C71.352 61.5931 74.3766 59.0009 74.3766 56.5477C74.3766 51.6045 61.4917 47.9911 46.8772 47.9911C41.1409 47.9911 36.8126 48.3496 40.5543 47.8934C43.355 47.5522 46.3774 47.3654 49.5324 47.3654C64.1447 47.3654 75.9932 51.3721 75.9932 56.3174Z" fill="#FFFBDC"/>
<path d="M49.5345 49.0579C37.7099 49.0579 28.1299 52.2976 28.1299 56.2956C28.1299 60.2958 37.7099 63.5355 49.5345 63.5355C61.3547 63.5355 70.9391 60.2979 70.9391 56.2956C70.9391 52.2976 61.3547 49.0579 49.5345 49.0579Z" stroke="#E38F2F" stroke-width="0.452666" stroke-miterlimit="10"/>
<path d="M43.4397 52.9713C41.5906 52.9756 40.1153 53.5319 38.8702 53.9599C37.7012 54.3575 36.1868 54.4314 36.1868 54.4314L31.6064 54.5944C31.6064 54.5944 31.6064 55.7829 31.6064 56.0393C31.6064 56.2761 32.0975 56.5173 32.9123 56.5173C33.7749 56.5173 34.9352 56.513 35.7305 56.5108C35.8391 57.3756 37.397 58.3642 38.188 58.7467C38.7898 59.0422 39.6199 59.0965 40.4651 59.0096C41.3494 58.9161 42.2034 58.7358 42.4119 58.323C42.6075 57.9319 41.9643 56.9975 41.9643 56.9975C41.9643 56.9975 39.8241 56.8041 39.772 56.4934L48.6023 56.4652C49.9343 57.3626 51.138 57.9362 52.2853 58.21C53.4586 58.4946 54.8558 58.6337 56.4398 58.6272C58.3214 58.6228 59.9641 58.3968 61.32 57.9579C62.5932 57.5451 63.3863 57.0236 63.684 56.413C64.2446 56.4109 66.0176 56.4413 67.254 56.4413C68.3578 56.4413 68.2839 54.5118 68.2839 54.5118C68.2839 54.5118 67.5973 54.5292 66.5413 54.5292C65.8242 54.5292 64.5031 54.5248 63.8122 54.5292C63.6927 53.7448 63.3472 54.2706 62.6541 53.8752C62.0804 53.5449 58.6691 52.3911 58.6691 52.3911C58.6691 52.3911 58.6691 53.7709 58.6691 53.8361C58.6691 53.8947 58.7278 53.9599 58.8429 54.0229C59.7381 54.5009 59.5274 54.7117 59.5274 54.7117H51.9138C51.9138 54.7117 48.8653 54.1272 47.6919 53.8035C46.4773 53.471 44.9802 52.9648 43.4397 52.9713Z" fill="#E38F2F"/>
<path d="M43.5377 51.8608C41.6886 51.8673 40.1155 52.0846 38.8683 52.5127C37.6993 52.9103 36.9258 53.4622 36.5738 54.1445C35.8133 54.1488 33.9099 54.1553 32.8908 54.1553C32.1325 54.1553 31.6045 54.3335 31.6045 54.5921C31.6045 54.8267 32.0934 55.0701 32.9104 55.0701C33.773 55.0701 35.6003 55.0636 36.3978 55.0592C36.5042 55.924 37.3951 56.9148 38.186 57.2994C38.7879 57.5971 40.3219 57.6014 41.1693 57.5102C42.0536 57.4189 42.3817 57.1929 41.9624 56.9974C41.2193 56.6497 40.8217 56.4433 40.4045 56.0457C40.0351 55.6937 39.8243 55.3591 39.77 55.0484L48.6004 55.0179C49.9323 55.9175 51.1361 56.4889 52.2833 56.7649C53.4567 57.0474 54.8538 57.1886 56.4356 57.1821C58.3195 57.1777 59.9621 56.9518 61.3202 56.5107C62.5913 56.1 63.3865 55.5807 63.6842 54.968C64.2448 54.9636 65.442 54.9571 66.6762 54.9571C67.7822 54.9571 68.2841 54.7268 68.2841 54.5117C68.2841 54.2879 67.7148 54.0445 66.6588 54.0445C65.9396 54.0445 64.4664 54.0489 63.7733 54.0532C63.6538 53.271 63.3431 52.8212 62.6521 52.4279C62.0785 52.0976 60.4011 52.0107 59.4972 52.0933C58.7519 52.1628 58.6693 52.3236 58.6693 52.391C58.6693 52.4496 58.728 52.5127 58.8431 52.5757C59.7383 53.058 60.2577 53.5556 60.3967 54.0641L51.2838 54.0967C50.041 53.2471 48.8655 52.6821 47.6922 52.3584C46.4775 52.0238 45.0804 51.8565 43.5377 51.8608ZM47.1794 54.1075L39.9916 54.1314C40.5066 53.4948 41.5974 53.1819 43.3161 53.1776C44.7175 53.1689 46.0147 53.4839 47.1794 54.1075ZM59.1104 55.585C58.4759 55.7719 57.7154 55.8632 56.7898 55.8675C55.8164 55.8719 55.0146 55.798 54.404 55.6502C53.876 55.522 53.3307 55.3069 52.7766 55.0049L60.2251 54.9788C60.0078 55.2265 59.6362 55.4329 59.1104 55.585Z" fill="#FFDB31"/>
<path d="M16.2012 47.4043V53.6295C16.2012 55.1418 17.1203 56.5671 18.7543 57.8339C18.9976 58.0295 19.2605 58.2163 19.5343 58.3967C20.2426 58.8703 21.0444 59.3136 21.9375 59.7351C22.1938 59.8525 22.4524 59.9589 22.7175 60.0763C23.5345 60.4283 24.421 60.7542 25.3705 61.0497C25.6204 61.1366 25.8833 61.2148 26.1484 61.293C26.9893 61.5494 27.8845 61.7841 28.8101 61.9949C29.0665 62.0492 29.3251 62.1122 29.5902 62.1665C30.4463 62.3469 31.3328 62.5077 32.2497 62.6576C32.5083 62.6967 32.7647 62.7358 33.0298 62.7749C33.8946 62.8988 34.7811 63.0074 35.685 63.0921C35.9414 63.1247 36.1956 63.1486 36.4628 63.1617C37.3342 63.2486 38.225 63.3116 39.1246 63.3507C39.381 63.3659 39.6461 63.3811 39.9024 63.3898C40.7824 63.4289 41.669 63.4442 42.5642 63.4442H42.6641C42.8944 63.4442 43.1182 63.4442 43.342 63.4355C44.2394 63.4355 45.1238 63.405 45.9972 63.3551C46.2623 63.3551 46.5187 63.342 46.7773 63.3181C47.679 63.2725 48.5655 63.2008 49.4368 63.1182C49.7019 63.0922 49.9583 63.0726 50.2169 63.0313C51.1273 62.9379 52.016 62.8205 52.8786 62.688C53.1437 62.6489 53.4001 62.6033 53.6565 62.5555C54.5669 62.4077 55.4556 62.2274 56.3117 62.0427C56.5768 61.9797 56.8353 61.9232 57.0917 61.8558C58.0174 61.6385 58.9126 61.3908 59.7513 61.1236C60.0164 61.0453 60.2728 60.9606 60.5313 60.8759C61.4874 60.5478 62.3739 60.2001 63.1931 59.8307C63.4647 59.7069 63.7232 59.583 63.9709 59.4505C64.9987 58.9355 65.8852 58.3901 66.6261 57.8057C66.9064 57.5797 67.1715 57.3559 67.404 57.1234C68.5165 56.0391 69.1336 54.8636 69.1336 53.6338C69.1336 51.9151 69.1336 47.4086 69.1336 47.4086H16.2012V47.4043Z" fill="#DE7A00"/>
<path d="M42.6612 38.4546C28.0445 38.4546 16.1982 42.4613 16.1982 47.4023C16.1982 52.3477 28.0445 56.3544 42.6612 56.3544C57.2757 56.3544 69.1241 52.3477 69.1241 47.4023C69.1241 42.4613 57.2757 38.4546 42.6612 38.4546Z" fill="#FEC833"/>
<path d="M69.1201 47.424C69.1201 48.8385 68.1488 50.177 66.4192 51.3655C64.4767 52.6996 67.5013 50.1118 67.5013 47.6543C67.5013 42.7111 54.6186 39.0998 40.0019 39.0998C34.2678 39.0998 29.9395 39.4562 33.679 38.9999C36.4819 38.6588 39.5043 38.4697 42.655 38.4697C57.2716 38.4719 69.1201 42.4808 69.1201 47.424Z" fill="#FFFBDC"/>
<path d="M42.6604 40.1647C30.8381 40.1647 21.2559 43.4065 21.2559 47.4046C21.2559 51.4047 30.8381 54.6444 42.6604 54.6444C54.4807 54.6444 64.0629 51.4047 64.0629 47.4046C64.0629 43.4065 54.4807 40.1647 42.6604 40.1647Z" stroke="#E38F2F" stroke-width="0.452666" stroke-miterlimit="10"/>
<path d="M36.5647 44.0799C34.72 44.0843 33.2446 44.6405 31.9952 45.0686C30.8241 45.4662 29.3118 45.5401 29.3118 45.5401L24.7314 45.7009C24.7314 45.7009 24.7314 46.8916 24.7314 47.148C24.7314 47.3827 25.2225 47.626 26.0373 47.626C26.9021 47.626 28.0602 47.6217 28.8577 47.6195C28.9641 48.4843 30.5242 49.4729 31.313 49.8575C31.917 50.153 32.7449 50.2073 33.5901 50.1204C34.4766 50.027 35.3305 49.8467 35.5369 49.436C35.7303 49.0449 35.0915 48.1106 35.0915 48.1106C35.0915 48.1106 32.9491 47.9172 32.897 47.6065L41.7274 47.576C43.0593 48.4756 44.2631 49.0471 45.4081 49.3208C46.5836 49.6076 47.9808 49.7467 49.5626 49.7423C51.4464 49.7358 53.0891 49.5099 54.445 49.071C55.7204 48.6581 56.5113 48.141 56.8112 47.5261C57.3696 47.5239 59.1448 47.5543 60.379 47.5543C61.4849 47.5543 61.4111 45.627 61.4111 45.627C61.4111 45.627 60.7223 45.6422 59.6684 45.6422C58.9492 45.6422 57.6303 45.6379 56.9372 45.6422C56.8177 44.8578 56.4722 45.3837 55.7812 44.9882C55.2076 44.6601 51.7941 43.5042 51.7941 43.5042C51.7941 43.5042 51.7963 44.8861 51.7963 44.9513C51.7963 45.0099 51.8549 45.0729 51.9701 45.136C52.8653 45.6161 52.6545 45.8269 52.6545 45.8269H45.0409C45.0409 45.8269 41.9924 45.2424 40.8213 44.9187C39.6045 44.5775 38.1096 44.0734 36.5647 44.0799Z" fill="#E38F2F"/>
<path d="M36.6635 42.9697C34.8165 42.9762 33.2434 43.1956 31.994 43.6215C30.8229 44.0213 30.0537 44.571 29.7017 45.2533C28.9412 45.2555 27.0378 45.2642 26.0187 45.2642C25.2604 45.2642 24.7324 45.4445 24.7324 45.6987C24.7324 45.9334 25.2213 46.1768 26.0383 46.1768C26.9031 46.1768 28.7304 46.1681 29.5279 46.1659C29.6322 47.0307 30.523 48.0215 31.3139 48.4061C31.918 48.7016 33.4498 48.7081 34.2972 48.619C35.1794 48.5278 35.5119 48.2996 35.0903 48.1041C34.3472 47.7564 33.9496 47.55 33.5302 47.1502C33.1608 46.8004 32.9479 46.4636 32.8958 46.155L41.7262 46.1224C43.0581 47.0242 44.2619 47.5935 45.4069 47.8694C46.5824 48.154 47.9796 48.2931 49.5614 48.2888C51.4452 48.2823 53.0857 48.0563 54.4438 47.6174C55.717 47.2067 56.5101 46.6874 56.81 46.0747C57.3684 46.0703 58.5678 46.066 59.7998 46.066C60.9058 46.066 61.4099 45.8356 61.4099 45.6205C61.4099 45.3946 60.8384 45.1512 59.7846 45.1512C59.0654 45.1512 57.5922 45.1577 56.8991 45.1621C56.7796 44.3798 56.4688 43.9301 55.7779 43.5368C55.2043 43.2065 53.5246 43.1196 52.6207 43.2043C51.8755 43.2717 51.7907 43.4347 51.7907 43.4998C51.7907 43.5607 51.8516 43.6215 51.9667 43.6845C52.8619 44.1691 53.3812 44.6667 53.5181 45.1751L44.4074 45.2033C43.1646 44.3559 41.9891 43.7888 40.8157 43.4673C39.6033 43.1305 38.204 42.9631 36.6635 42.9697ZM40.3051 45.2164L33.1196 45.2403C33.6345 44.6036 34.7253 44.2886 36.444 44.2842C37.8433 44.2799 39.1427 44.5928 40.3051 45.2164ZM52.2362 46.6917C51.5973 46.8808 50.839 46.9742 49.9156 46.9764C48.9421 46.9785 48.1382 46.9047 47.5298 46.7569C47.0018 46.6309 46.4564 46.4158 45.9023 46.1138L53.3508 46.0877C53.1335 46.3332 52.7598 46.5396 52.2362 46.6917Z" fill="#FFDB31"/>
<path d="M22.6846 39.4277V45.655C22.6846 47.1652 23.6015 48.5906 25.2377 49.8595C25.481 50.0529 25.7439 50.2397 26.0155 50.4179C26.7217 50.8938 27.5256 51.3348 28.4187 51.7564C28.6751 51.8737 28.9315 51.9823 29.1987 52.0997C30.0179 52.4495 30.9022 52.7776 31.8518 53.0731C32.0995 53.1578 32.3645 53.2361 32.6318 53.3143C33.4727 53.5707 34.3679 53.8032 35.2914 54.0139C35.5477 54.0683 35.8041 54.1291 36.0714 54.1834C36.9275 54.3638 37.814 54.5267 38.7309 54.6745C38.9895 54.7136 39.2459 54.7527 39.511 54.7918C40.3758 54.9157 41.2623 55.0243 42.164 55.1112C42.4204 55.1416 42.679 55.1655 42.9441 55.1808C43.8154 55.2655 44.7019 55.3285 45.6058 55.3676C45.8622 55.3828 46.1273 55.398 46.3837 55.4067C47.2637 55.4458 48.1524 55.4611 49.0454 55.4611H49.1475C49.3735 55.4611 49.5973 55.4611 49.8233 55.4545C50.7185 55.4545 51.6072 55.4219 52.4785 55.3763C52.7436 55.3763 53 55.3611 53.2585 55.3372C54.1602 55.2916 55.0489 55.2199 55.9181 55.1351C56.1853 55.1112 56.4395 55.0873 56.6981 55.0482C57.6085 54.9548 58.4972 54.8375 59.3598 54.7049C59.6227 54.668 59.8813 54.6223 60.1399 54.5745C61.0481 54.4246 61.9368 54.2464 62.7929 54.0596C63.058 53.9966 63.3144 53.9422 63.573 53.8727C64.4986 53.6533 65.3938 53.4056 66.2347 53.1405C66.4976 53.0622 66.754 52.9753 67.0104 52.8906C67.9686 52.5625 68.8573 52.2127 69.6743 51.8476C69.9459 51.7238 70.2045 51.5999 70.4522 51.4674C71.4821 50.9524 72.3664 50.407 73.1074 49.8226C73.3877 49.6009 73.6506 49.3706 73.8852 49.1403C74.9999 48.0582 75.6148 46.8827 75.6148 45.6529C75.6148 43.932 75.6148 39.4255 75.6148 39.4255H22.6846V39.4277Z" fill="#DE7A00"/>
<path d="M49.1426 30.4758C34.5282 30.4758 22.6797 34.4847 22.6797 39.4279C22.6797 44.3711 34.5282 48.3778 49.1426 48.3778C63.7593 48.3778 75.6077 44.3711 75.6077 39.4279C75.6077 34.4825 63.7593 30.4758 49.1426 30.4758Z" fill="#FEC833"/>
<path d="M75.6025 39.4476C75.6025 40.8621 74.6312 42.2005 72.9017 43.3891C70.9592 44.7232 73.9837 42.1332 73.9837 39.68C73.9837 34.7368 61.101 31.1234 46.4865 31.1234C40.7502 31.1234 36.4241 31.482 40.1614 31.0257C42.9665 30.6845 45.9889 30.4955 49.1396 30.4955C63.754 30.4955 75.6025 34.5044 75.6025 39.4476Z" fill="#FFFBDC"/>
<path d="M49.1419 32.1859C37.3217 32.1859 27.7373 35.4278 27.7373 39.4258C27.7373 43.4238 37.3217 46.6657 49.1419 46.6657C60.9643 46.6657 70.5465 43.4238 70.5465 39.4258C70.5465 35.4278 60.9643 32.1859 49.1419 32.1859Z" stroke="#E38F2F" stroke-width="0.452666" stroke-miterlimit="10"/>
<path d="M43.0518 36.1012C41.2027 36.1077 39.7295 36.6639 38.4823 37.0898C37.3133 37.4896 35.7967 37.5591 35.7967 37.5591L31.2207 37.7199C31.2207 37.7199 31.2207 38.9106 31.2207 39.1692C31.2207 39.4017 31.7096 39.6451 32.5244 39.6451C33.3892 39.6451 34.5473 39.6407 35.3447 39.6385C35.4512 40.5033 37.0113 41.4898 37.8 41.8766C38.4041 42.1699 39.2341 42.2285 40.0793 42.1373C40.9615 42.046 41.8176 41.8657 42.0262 41.4507C42.2196 41.0617 41.5808 40.1274 41.5808 40.1274C41.5808 40.1274 39.4405 39.9319 39.3884 39.6233L48.2166 39.5929C49.5486 40.4925 50.7545 41.0639 51.9017 41.3399C53.0772 41.6245 54.4744 41.7614 56.054 41.7592C57.9379 41.7527 59.5784 41.5267 60.9364 41.0856C62.2097 40.675 63.0027 40.1557 63.3004 39.5451C63.861 39.5386 65.6362 39.5712 66.8704 39.5712C67.9742 39.5712 67.9003 37.646 67.9003 37.646C67.9003 37.646 67.2137 37.6591 66.1577 37.6591C65.4385 37.6591 64.1196 37.6569 63.4264 37.6591C63.3069 36.8769 62.9615 37.4005 62.2705 37.0072C61.6947 36.677 58.2855 35.5232 58.2855 35.5232C58.2855 35.5232 58.2855 36.9029 58.2855 36.9703C58.2855 37.029 58.3442 37.092 58.4615 37.155C59.3546 37.6352 59.1438 37.8438 59.1438 37.8438H51.5324C51.5324 37.8438 48.4817 37.2571 47.3105 36.9355C46.0894 36.5987 44.5923 36.0968 43.0518 36.1012Z" fill="#E38F2F"/>
<path d="M43.1462 34.9909C41.2993 34.9974 39.7283 35.2169 38.4811 35.6428C37.3121 36.0426 36.5386 36.5901 36.1888 37.2746C35.4261 37.2746 33.5227 37.2833 32.5058 37.2833C31.7497 37.2833 31.2217 37.4636 31.2217 37.72C31.2217 37.9568 31.7106 38.198 32.5254 38.198C33.3902 38.198 35.2175 38.1915 36.015 38.1893C36.1214 39.0519 37.0101 40.0428 37.801 40.4295C38.4051 40.7229 39.9391 40.7294 40.7843 40.6403C41.6687 40.5469 41.9989 40.3209 41.5796 40.1275C40.8343 39.7798 40.4388 39.5713 40.0217 39.1736C39.6544 38.8216 39.4415 38.487 39.3872 38.1785L48.2154 38.1502C49.5474 39.0476 50.7533 39.6212 51.9005 39.895C53.076 40.1775 54.4732 40.3165 56.0528 40.3122C57.9367 40.3057 59.5772 40.0797 60.9352 39.6408C62.2085 39.2301 63.0016 38.7108 63.2992 38.0981C63.8598 38.0959 65.0571 38.0916 66.2912 38.0916C67.395 38.0916 67.8991 37.8591 67.8991 37.6461C67.8991 37.418 67.3298 37.1746 66.2738 37.1746C65.5568 37.1746 64.0815 37.1833 63.3905 37.1833C63.271 36.4011 62.9581 35.9535 62.2693 35.558C61.6957 35.2299 60.0161 35.143 59.1122 35.2256C58.3669 35.2951 58.2843 35.4559 58.2843 35.5233C58.2843 35.5819 58.343 35.6471 58.4582 35.708C59.3534 36.1882 59.8748 36.6901 60.0117 37.1963L50.8989 37.2268C49.6582 36.3794 48.4805 35.8101 47.3093 35.4885C46.0882 35.1539 44.6911 34.9866 43.1462 34.9909ZM46.79 37.2398L39.6023 37.2637C40.1151 36.6249 41.2102 36.3142 42.9246 36.3077C44.3282 36.3011 45.6254 36.614 46.79 37.2398ZM58.7232 38.713C58.0844 38.902 57.3261 38.9933 56.4005 38.9976C55.4292 38.9998 54.6253 38.9259 54.0125 38.7803C53.4867 38.6565 52.9413 38.437 52.3873 38.135L59.8357 38.1111C59.6185 38.3566 59.2469 38.5587 58.7232 38.713Z" fill="#FFDB31"/>
<path d="M1.52051 69.8062L6.47674 73.5761C7.67615 74.4908 9.36878 74.6212 11.3678 74.091C11.6676 74.015 11.9762 73.9194 12.2847 73.8107C13.0908 73.5348 13.9317 73.1654 14.8074 72.7069C15.0551 72.5744 15.2984 72.4353 15.5505 72.2963C16.3262 71.8574 17.1236 71.3511 17.9341 70.7731C18.1514 70.6275 18.3752 70.4624 18.5968 70.2994C19.3095 69.7867 20.0396 69.2174 20.7653 68.6046C20.963 68.4352 21.1694 68.2678 21.3737 68.0897C22.0342 67.516 22.6991 66.9098 23.377 66.2688C23.5617 66.0863 23.7486 65.906 23.942 65.7213C24.5612 65.1085 25.1848 64.4697 25.8019 63.8027C25.9823 63.6158 26.1561 63.4268 26.3299 63.2247C26.9253 62.5815 27.5119 61.9123 28.0921 61.2192C28.2572 61.0258 28.4311 60.8237 28.5918 60.6238C29.1568 59.9481 29.7065 59.2506 30.2475 58.5379L30.3106 58.4597C30.4474 58.2793 30.5822 58.099 30.7147 57.9143C31.2536 57.2038 31.7685 56.478 32.2596 55.7567C32.4204 55.5481 32.5616 55.3308 32.7007 55.1135C33.2091 54.3682 33.6915 53.6164 34.15 52.8733C34.2934 52.6473 34.4324 52.43 34.5519 52.2019C35.03 51.4197 35.4732 50.644 35.8926 49.8748C36.0208 49.6401 36.1403 49.4076 36.2598 49.1773C36.6922 48.3603 37.0898 47.5477 37.457 46.7524C37.5678 46.5047 37.6808 46.2679 37.7808 46.0202C38.1675 45.1511 38.513 44.2884 38.8107 43.4584C38.9106 43.202 38.9976 42.9456 39.0845 42.6892C39.406 41.731 39.6624 40.8097 39.8689 39.9406C39.934 39.6473 39.9905 39.367 40.0362 39.0889C40.2491 37.959 40.3534 36.9247 40.336 35.9817C40.3273 35.6232 40.3078 35.2755 40.2621 34.9474C40.0774 33.4069 39.5125 32.2053 38.5326 31.46C37.1658 30.4193 33.5807 27.688 33.5807 27.688L1.52051 69.8062Z" fill="#DE7A00"/>
<path d="M10.4216 43.3304C1.5695 54.9572 -2.41765 66.8122 1.51518 69.8064C5.44801 72.8005 15.8124 65.7975 24.6667 54.1685C33.5167 42.5395 37.5038 30.6823 33.571 27.6903C29.636 24.6983 19.2737 31.6992 10.4216 43.3304Z" fill="#FEC833"/>
<path d="M33.5838 27.7075C34.7093 28.5636 35.1852 30.1476 35.0852 32.2444C34.9701 34.5976 34.7419 30.6235 32.7886 29.1351C28.8557 26.1409 18.1762 34.2065 9.32629 45.8355C5.85193 50.3984 3.51614 54.0618 5.41954 50.8091C6.84275 48.3712 8.52452 45.8529 10.4344 43.3454C19.2866 31.7143 29.6532 24.7134 33.5838 27.7075Z" fill="#FFFBDC"/>
<path d="M11.785 44.3647C4.62548 53.7731 1.39882 63.3596 4.58202 65.7823C7.76305 68.2029 16.148 62.5405 23.3053 53.1343C30.4626 43.7281 33.6915 34.1393 30.5083 31.7166C27.3272 29.2961 18.9423 34.9585 11.785 44.3647Z" stroke="#E38F2F" stroke-width="0.452666" stroke-miterlimit="10"/>
<path d="M11.2056 51.5851C10.0888 53.0604 9.63903 54.5684 9.22184 55.8199C8.83073 56.9911 7.97247 58.2404 7.97247 58.2404L5.32812 61.9821C5.32812 61.9821 6.27331 62.7013 6.47973 62.8577C6.66659 62.999 7.15331 62.7578 7.65088 62.1081C8.17236 61.4215 8.87202 60.4959 9.35221 59.8592C10.104 60.2981 11.8358 59.655 12.6202 59.2595C13.222 58.9597 13.7674 58.3317 14.2063 57.6038C14.6691 56.8455 15.045 56.0546 14.8408 55.6396C14.6474 55.2506 13.5175 55.192 13.5175 55.192C13.5175 55.192 12.0661 56.7803 11.7858 56.6369L17.1114 49.5904C18.6346 49.0754 19.8188 48.4627 20.7313 47.7174C21.6678 46.9547 22.6261 45.9292 23.5821 44.6667C24.7142 43.1653 25.5333 41.7226 26.0048 40.3754C26.4481 39.113 26.5154 38.1656 26.2091 37.5594C26.5458 37.1118 27.6453 35.7147 28.3906 34.7347C29.0598 33.8547 27.4823 32.7466 27.4823 32.7466C27.4823 32.7466 27.076 33.3028 26.4394 34.1415C26.0026 34.713 25.2009 35.7646 24.7815 36.3165C24.0905 35.9341 24.297 36.5295 23.5625 36.8402C22.9542 37.0966 19.9687 39.113 19.9687 39.113C19.9687 39.113 21.0681 39.9474 21.1203 39.9865C21.1681 40.0256 21.2528 40.0147 21.3723 39.9604C22.298 39.541 22.3371 39.8344 22.3371 39.8344L17.7263 45.8922C17.7263 45.8922 15.4122 47.9629 14.4475 48.6995C13.4437 49.4687 12.1334 50.3531 11.2056 51.5851Z" fill="#E38F2F"/>
<path d="M10.3802 50.8377C9.26555 52.3108 8.48768 53.6928 8.07267 54.9443C7.68156 56.1176 7.64896 57.0628 7.97923 57.756C7.52077 58.3643 6.37568 59.8853 5.76077 60.6958C5.30013 61.2977 5.12413 61.8278 5.32838 61.9843C5.51307 62.1234 6.00195 61.8843 6.49953 61.2325C7.02101 60.548 8.12264 59.0879 8.60501 58.4534C9.35464 58.8923 10.6844 58.7815 11.4688 58.3904C12.0707 58.0862 13.005 56.8694 13.4461 56.1437C13.9067 55.3832 13.9285 54.9834 13.5178 55.1964C12.7899 55.5809 12.3836 55.77 11.8165 55.8591C11.3124 55.9395 10.9169 55.9069 10.6366 55.7635L15.9622 48.7213C17.4854 48.2064 18.6696 47.5936 19.58 46.8483C20.5165 46.0857 21.4769 45.0579 22.4308 43.7955C23.565 42.2941 24.3798 40.8491 24.8535 39.5041C25.2967 38.2417 25.3663 37.2966 25.0577 36.6882C25.3945 36.2406 26.1159 35.2823 26.8655 34.3024C27.5326 33.4224 27.6521 32.8835 27.4848 32.7532C27.3022 32.6141 26.7677 32.9226 26.1267 33.7635C25.6922 34.3371 24.8035 35.5127 24.3863 36.0646C23.6932 35.6843 23.1478 35.6626 22.4134 35.9711C21.805 36.2275 20.7164 37.5117 20.2362 38.283C19.8386 38.9197 19.919 39.0783 19.9711 39.1196C20.0189 39.1565 20.1036 39.1456 20.2232 39.0935C21.1488 38.6698 21.8615 38.559 22.3504 38.7589L16.8553 46.027C15.4277 46.5028 14.2609 47.0939 13.2962 47.8304C12.2923 48.5931 11.3124 49.6057 10.3802 50.8377ZM14.3761 49.2971L10.0434 55.029C9.84787 54.2338 10.2585 53.1756 11.2928 51.8067C12.1402 50.6899 13.1767 49.8447 14.3761 49.2971ZM22.7784 40.6992C22.5394 41.3206 22.1526 41.9812 21.5964 42.7199C21.0119 43.4935 20.4665 44.0888 19.9798 44.4865C19.5604 44.8298 19.0585 45.1318 18.4827 45.3904L22.9718 39.4477C23.0348 39.7649 22.9696 40.1864 22.7784 40.6992Z" fill="#FFDB31"/>
<path d="M82.1543 65.5946V71.8198C82.1543 73.3299 83.0712 74.7553 84.7074 76.022C84.9486 76.2176 85.2136 76.4023 85.4853 76.5826C86.1936 77.0585 86.9954 77.5017 87.8906 77.9211C88.147 78.0384 88.4034 78.1471 88.6663 78.2622C89.4854 78.6121 90.3698 78.9402 91.3237 79.2357C91.5714 79.3226 91.8364 79.3986 92.1015 79.479C92.9402 79.7376 93.8376 79.9679 94.7633 80.1787C95.0196 80.2352 95.2739 80.296 95.5411 80.3503C96.3994 80.5285 97.2837 80.6915 98.2028 80.8392C98.4592 80.8783 98.7156 80.9174 98.9807 80.9587C99.8455 81.0826 100.732 81.1912 101.636 81.2781C101.892 81.3085 102.149 81.3303 102.414 81.3477C103.285 81.4346 104.174 81.4932 105.076 81.5345C105.334 81.5497 105.597 81.5649 105.856 81.5736C106.733 81.6149 107.62 81.6279 108.515 81.6279H108.617C108.841 81.6279 109.069 81.6279 109.293 81.6214C110.19 81.6214 111.077 81.591 111.948 81.541C112.213 81.541 112.47 81.528 112.726 81.5041C113.63 81.4563 114.516 81.3868 115.39 81.2999C115.653 81.2781 115.911 81.2542 116.168 81.2151C117.078 81.1217 117.965 81.0043 118.83 80.8718C119.095 80.8327 119.351 80.7849 119.61 80.7393C120.52 80.5915 121.407 80.4112 122.263 80.2265C122.528 80.1635 122.784 80.1091 123.041 80.0396C123.966 79.8223 124.861 79.5724 125.702 79.3095C125.967 79.2313 126.224 79.1444 126.482 79.0597C127.438 78.7316 128.325 78.3817 129.142 78.0167C129.416 77.8907 129.672 77.7668 129.922 77.6364C130.95 77.1215 131.836 76.5783 132.575 75.9938C132.855 75.7678 133.12 75.5418 133.357 75.3094C134.47 74.2273 135.085 73.0518 135.085 71.822C135.085 70.1032 135.085 65.5968 135.085 65.5968H82.1543V65.5946Z" fill="#DE7A00"/>
<path d="M108.612 56.6426C93.9979 56.6426 82.1494 60.6515 82.1494 65.5925C82.1494 70.5357 93.9979 74.5446 108.612 74.5446C123.227 74.5446 135.077 70.5357 135.077 65.5925C135.077 60.6493 123.229 56.6426 108.612 56.6426Z" fill="#FEC833"/>
<path d="M135.071 65.612C135.071 67.0265 134.102 68.3671 132.37 69.5557C130.428 70.8898 133.452 68.302 133.452 65.8445C133.452 60.9013 120.568 57.2879 105.953 57.2879C100.219 57.2879 95.8907 57.6464 99.6301 57.1901C102.433 56.8489 105.456 56.6599 108.608 56.6599C123.225 56.6599 135.071 60.6688 135.071 65.612Z" fill="#FFFBDC"/>
<path d="M108.611 58.3505C96.7912 58.3505 87.209 61.5923 87.209 65.5903C87.209 69.5883 96.7912 72.8302 108.611 72.8302C120.434 72.8302 130.016 69.5883 130.016 65.5903C130.018 61.5945 120.434 58.3505 108.611 58.3505Z" stroke="#E38F2F" stroke-width="0.452666" stroke-miterlimit="10"/>
<path d="M102.52 62.266C100.669 62.2725 99.1975 62.8288 97.9503 63.2546C96.7792 63.6544 95.2647 63.7262 95.2647 63.7262L90.6865 63.887C90.6865 63.887 90.6865 65.0777 90.6865 65.3341C90.6865 65.5687 91.1754 65.8121 91.9902 65.8121C92.8528 65.8121 94.0153 65.8077 94.8106 65.8034C94.9192 66.6682 96.475 67.6546 97.2637 68.0414C97.8677 68.3369 98.6978 68.3912 99.5452 68.3022C100.425 68.2109 101.281 68.0305 101.49 67.6155C101.683 67.2266 101.042 66.2923 101.042 66.2923C101.042 66.2923 98.902 66.0989 98.8477 65.7882L107.68 65.7556C109.012 66.6573 110.216 67.2288 111.361 67.5025C112.537 67.785 113.936 67.9262 115.518 67.9197C117.399 67.9132 119.042 67.6894 120.398 67.2505C121.671 66.8377 122.464 66.3184 122.762 65.7056C123.325 65.7013 125.1 65.7317 126.332 65.7317C127.436 65.7317 127.364 63.8066 127.364 63.8066C127.364 63.8066 126.675 63.8174 125.621 63.8174C124.902 63.8174 123.583 63.8152 122.89 63.8174C122.773 63.0352 122.425 63.561 121.734 63.1656C121.158 62.8375 117.749 61.6815 117.749 61.6815C117.749 61.6815 117.751 63.0613 117.751 63.1286C117.751 63.1873 117.808 63.2503 117.925 63.3111C118.82 63.7935 118.61 64.0021 118.61 64.0021H110.996C110.996 64.0021 107.945 63.4154 106.776 63.0939C105.557 62.7679 104.06 62.2617 102.52 62.266Z" fill="#E38F2F"/>
<path d="M102.617 61.1578C100.768 61.1643 99.1968 61.3816 97.9474 61.8096C96.7762 62.2094 96.007 62.757 95.6529 63.4393C94.8924 63.4436 92.989 63.4501 91.9677 63.4501C91.2116 63.4501 90.6836 63.6305 90.6836 63.8869C90.6836 64.1215 91.1725 64.3649 91.9873 64.3649C92.8499 64.3649 94.6773 64.3562 95.4747 64.354C95.5833 65.2188 96.472 66.2096 97.2629 66.5942C97.867 66.8897 99.401 66.8962 100.246 66.8071C101.133 66.7115 101.463 66.4856 101.041 66.2944C100.298 65.9467 99.9008 65.7403 99.4836 65.3405C99.1142 64.9863 98.9013 64.6517 98.8448 64.3431L107.677 64.3127C109.009 65.2144 110.213 65.7837 111.358 66.0575C112.534 66.3422 113.933 66.4812 115.515 66.4769C117.396 66.4704 119.039 66.2444 120.395 65.8055C121.668 65.3948 122.461 64.8733 122.759 64.2628C123.317 64.2584 124.517 64.2541 125.751 64.2541C126.855 64.2541 127.359 64.0237 127.359 63.8086C127.359 63.5783 126.787 63.3393 125.731 63.3393C125.012 63.3393 123.541 63.3437 122.848 63.348C122.729 62.5658 122.418 62.1182 121.729 61.7227C121.153 61.3924 119.476 61.3055 118.57 61.3881C117.822 61.4576 117.742 61.6184 117.742 61.6858C117.742 61.7444 117.801 61.8074 117.916 61.8705C118.811 62.3507 119.332 62.8526 119.467 63.361L110.356 63.3914C109.114 62.544 107.938 61.9748 106.767 61.6532C105.557 61.3186 104.16 61.1513 102.617 61.1578ZM106.261 63.4045L99.0707 63.4284C99.5857 62.7896 100.676 62.4767 102.395 62.4723C103.799 62.468 105.094 62.7809 106.261 63.4045ZM118.19 64.8798C117.551 65.0689 116.795 65.1601 115.869 65.1623C114.898 65.1667 114.094 65.0906 113.483 64.945C112.957 64.819 112.41 64.6017 111.854 64.2997L119.304 64.2758C119.089 64.5213 118.715 64.7256 118.19 64.8798Z" fill="#FFDB31"/>
<path d="M85.874 55.8212V62.0485C85.874 63.5586 86.7953 64.984 88.4293 66.2529C88.6705 66.4485 88.9355 66.6332 89.2071 66.8135C89.9133 67.2872 90.7173 67.7326 91.6103 68.152C91.8667 68.2693 92.1253 68.3758 92.3904 68.4931C93.2073 68.8451 94.0939 69.1732 95.0434 69.4666C95.2933 69.5535 95.5562 69.6295 95.8234 69.7077C96.6621 69.9641 97.5573 70.1988 98.4851 70.4074C98.7415 70.4617 98.9958 70.5247 99.263 70.5769C100.119 70.7572 101.006 70.9202 101.925 71.0701C102.181 71.1092 102.438 71.1505 102.703 71.1874C103.57 71.3113 104.454 71.4199 105.358 71.5069C105.614 71.5373 105.871 71.5612 106.136 71.5764C107.007 71.6611 107.894 71.7263 108.797 71.7632C109.054 71.7763 109.319 71.7937 109.577 71.8024C110.455 71.8393 111.342 71.8545 112.237 71.8545H112.339C112.565 71.8545 112.789 71.8545 113.015 71.848C113.91 71.848 114.797 71.8176 115.668 71.7698C115.933 71.7698 116.189 71.7546 116.448 71.7307C117.35 71.6828 118.236 71.6133 119.108 71.5264C119.373 71.5047 119.631 71.4808 119.888 71.4417C120.798 71.3504 121.684 71.2309 122.547 71.1005C122.812 71.0593 123.071 71.0158 123.327 70.968C124.235 70.8202 125.124 70.6399 125.98 70.4552C126.245 70.3922 126.502 70.3357 126.758 70.2683C127.686 70.0511 128.581 69.8012 129.422 69.5361C129.687 69.4579 129.941 69.3731 130.2 69.2862C131.156 68.9603 132.045 68.6105 132.862 68.2454C133.135 68.1216 133.392 67.9956 133.639 67.8652C134.669 67.3502 135.554 66.8048 136.295 66.2225C136.577 65.9965 136.838 65.7706 137.075 65.5381C138.189 64.456 138.802 63.2805 138.802 62.0507C138.802 60.3298 138.802 55.8233 138.802 55.8233H85.874V55.8212Z" fill="#DE7A00"/>
<path d="M112.337 46.8691C97.7225 46.8691 85.874 50.878 85.874 55.819C85.874 60.7622 97.7225 64.7711 112.337 64.7711C126.951 64.7711 138.8 60.7622 138.8 55.819C138.798 50.8758 126.951 46.8691 112.337 46.8691Z" fill="#FEC833"/>
<path d="M138.795 55.8409C138.795 57.2554 137.824 58.5917 136.094 59.7802C134.154 61.1165 137.178 58.5243 137.178 56.0712C137.178 51.128 124.293 47.5146 109.679 47.5146C103.943 47.5146 99.6144 47.8731 103.356 47.4168C106.157 47.0757 109.179 46.8888 112.334 46.8888C126.946 46.8888 138.795 50.8955 138.795 55.8409Z" fill="#FFFBDC"/>
<path d="M112.336 48.5813C100.512 48.5813 90.9316 51.821 90.9316 55.819C90.9316 59.8192 100.512 63.0589 112.336 63.0589C124.156 63.0589 133.741 59.8214 133.741 55.819C133.741 51.821 124.156 48.5813 112.336 48.5813Z" stroke="#E38F2F" stroke-width="0.452666" stroke-miterlimit="10"/>
<path d="M106.241 52.4947C104.392 52.4991 102.917 53.0553 101.672 53.4833C100.503 53.881 98.9885 53.9548 98.9885 53.9548L94.4082 54.1178C94.4082 54.1178 94.4082 55.3064 94.4082 55.5627C94.4082 55.7996 94.8993 56.0408 95.7141 56.0408C96.5767 56.0408 97.737 56.0364 98.5322 56.0342C98.6409 56.899 100.199 57.8877 100.99 58.2701C101.592 58.5656 102.422 58.6199 103.267 58.533C104.151 58.4396 105.005 58.2592 105.214 57.8464C105.409 57.4553 104.766 56.521 104.766 56.521C104.766 56.521 102.626 56.3276 102.574 56.0169L111.404 55.9886C112.736 56.886 113.94 57.4596 115.087 57.7334C116.26 58.018 117.658 58.1571 119.242 58.1506C121.123 58.1462 122.766 57.9203 124.122 57.4814C125.395 57.0685 126.188 56.547 126.486 55.9365C127.046 55.9343 128.819 55.9647 130.056 55.9647C131.16 55.9647 131.086 54.0352 131.086 54.0352C131.086 54.0352 130.399 54.0526 129.343 54.0526C128.626 54.0526 127.305 54.0483 126.614 54.0526C126.494 53.2682 126.149 53.7941 125.456 53.3986C124.882 53.0683 121.471 51.9146 121.471 51.9146C121.471 51.9146 121.471 53.2943 121.471 53.3595C121.471 53.4182 121.53 53.4833 121.645 53.5464C122.54 54.0244 122.329 54.2351 122.329 54.2351H114.716C114.716 54.2351 111.667 53.6506 110.494 53.3269C109.279 52.9944 107.782 52.4882 106.241 52.4947Z" fill="#E38F2F"/>
<path d="M106.339 51.3842C104.49 51.3908 102.917 51.608 101.67 52.0361C100.501 52.4337 99.7275 52.9856 99.3755 53.6679C98.615 53.6722 96.7116 53.6788 95.6926 53.6788C94.9342 53.6788 94.4062 53.8569 94.4062 54.1155C94.4062 54.3502 94.8951 54.5935 95.7121 54.5935C96.5747 54.5935 98.4021 54.587 99.1995 54.5827C99.306 55.4474 100.197 56.4383 100.988 56.8228C101.59 57.1205 103.124 57.1249 103.971 57.0336C104.855 56.9423 105.184 56.7164 104.764 56.5208C104.021 56.1732 103.623 55.9667 103.206 55.5691C102.837 55.2171 102.626 54.8825 102.572 54.5718L111.402 54.5414C112.734 55.4409 113.938 56.0124 115.085 56.2883C116.258 56.5708 117.656 56.712 119.237 56.7055C121.121 56.7012 122.764 56.4752 124.122 56.0341C125.393 55.6234 126.188 55.1041 126.486 54.4914C127.047 54.4871 128.244 54.4805 129.478 54.4805C130.584 54.4805 131.086 54.2502 131.086 54.0351C131.086 53.8113 130.517 53.5679 129.461 53.5679C128.741 53.5679 127.268 53.5723 126.575 53.5766C126.456 52.7944 126.145 52.3446 125.454 51.9514C124.88 51.6211 123.203 51.5342 122.299 51.6167C121.554 51.6863 121.471 51.8471 121.471 51.9144C121.471 51.9731 121.53 52.0361 121.645 52.0991C122.54 52.5815 123.059 53.0791 123.198 53.5875L114.086 53.6201C112.843 52.7705 111.667 52.2056 110.494 51.8818C109.279 51.5472 107.882 51.3799 106.339 51.3842ZM109.981 53.631L102.793 53.6549C103.308 53.0182 104.399 52.7053 106.118 52.701C107.519 52.6923 108.816 53.0074 109.981 53.631ZM121.912 55.1085C121.278 55.2953 120.517 55.3866 119.592 55.3909C118.618 55.3953 117.816 55.3214 117.206 55.1737C116.678 55.0455 116.132 54.8304 115.578 54.5283L123.027 54.5023C122.81 54.75 122.438 54.9564 121.912 55.1085Z" fill="#FFDB31"/>
<path d="M79.0029 46.9277V53.1529C79.0029 54.6652 79.922 56.0906 81.556 57.3573C81.7994 57.5529 82.0623 57.7397 82.3361 57.9201C83.0444 58.3938 83.8462 58.837 84.7392 59.2586C84.9956 59.3759 85.2542 59.4824 85.5193 59.5997C86.3362 59.9517 87.2228 60.2776 88.1723 60.5731C88.4222 60.66 88.6851 60.7383 88.9502 60.8165C89.7911 61.0729 90.6863 61.3075 91.6119 61.5183C91.8683 61.5726 92.1268 61.6356 92.3919 61.69C93.248 61.8703 94.1345 62.0311 95.0515 62.181C95.31 62.2201 95.5664 62.2592 95.8315 62.2984C96.6963 62.4222 97.5828 62.5308 98.4867 62.6156C98.7431 62.6482 98.9973 62.6721 99.2646 62.6851C100.136 62.772 101.027 62.835 101.926 62.8742C102.183 62.8894 102.448 62.9046 102.704 62.9133C103.584 62.9524 104.471 62.9676 105.366 62.9676H105.466C105.696 62.9676 105.92 62.9676 106.144 62.9589C107.041 62.9589 107.926 62.9285 108.799 62.8785C109.064 62.8785 109.32 62.8655 109.579 62.8416C110.481 62.7959 111.367 62.7242 112.239 62.6417C112.504 62.6156 112.76 62.596 113.019 62.5548C113.929 62.4613 114.818 62.344 115.68 62.2114C115.945 62.1723 116.202 62.1267 116.458 62.0789C117.369 61.9311 118.257 61.7508 119.113 61.5661C119.379 61.5031 119.637 61.4466 119.893 61.3792C120.819 61.162 121.714 60.9143 122.553 60.647C122.818 60.5688 123.075 60.484 123.333 60.3993C124.289 60.0712 125.176 59.7236 125.995 59.3542C126.266 59.2303 126.525 59.1065 126.773 58.9739C127.8 58.459 128.687 57.9136 129.428 57.3291C129.708 57.1031 129.973 56.8793 130.206 56.6468C131.318 55.5626 131.935 54.3871 131.935 53.1572C131.935 51.4385 131.935 46.9321 131.935 46.9321H79.0029V46.9277Z" fill="#DE7A00"/>
<path d="M105.463 37.978C90.8463 37.978 79 41.9847 79 46.9258C79 51.8711 90.8463 55.8778 105.463 55.8778C120.077 55.8778 131.926 51.8711 131.926 46.9258C131.926 41.9847 120.077 37.978 105.463 37.978Z" fill="#FEC833"/>
<path d="M131.922 46.9474C131.922 48.3619 130.951 49.7004 129.221 50.8889C127.278 52.223 130.303 49.6352 130.303 47.1777C130.303 42.2345 117.42 38.6233 102.804 38.6233C97.0696 38.6233 92.7413 38.9796 96.4807 38.5233C99.2837 38.1822 102.306 37.9932 105.457 37.9932C120.073 37.9953 131.922 42.0042 131.922 46.9474Z" fill="#FFFBDC"/>
<path d="M105.462 39.6881C93.6398 39.6881 84.0576 42.93 84.0576 46.928C84.0576 50.9282 93.6398 54.1679 105.462 54.1679C117.282 54.1679 126.865 50.9282 126.865 46.928C126.865 42.93 117.282 39.6881 105.462 39.6881Z" stroke="#E38F2F" stroke-width="0.452666" stroke-miterlimit="10"/>
<path d="M99.3665 43.6034C97.5217 43.6077 96.0464 44.164 94.797 44.592C93.6258 44.9897 92.1135 45.0635 92.1135 45.0635L87.5332 45.2243C87.5332 45.2243 87.5332 46.415 87.5332 46.6714C87.5332 46.9061 88.0243 47.1494 88.8391 47.1494C89.7039 47.1494 90.862 47.1451 91.6594 47.1429C91.7659 48.0077 93.326 48.9964 94.1147 49.381C94.7188 49.6765 95.5466 49.7308 96.3918 49.6439C97.2784 49.5504 98.1323 49.3701 98.3387 48.9594C98.5321 48.5683 97.8933 47.634 97.8933 47.634C97.8933 47.634 95.7509 47.4406 95.6987 47.1299L104.529 47.0995C105.861 47.999 107.065 48.5705 108.21 48.8443C109.385 49.1311 110.783 49.2701 112.364 49.2658C114.248 49.2593 115.891 49.0333 117.247 48.5944C118.522 48.1815 119.313 47.6644 119.613 47.0495C120.171 47.0473 121.947 47.0778 123.181 47.0778C124.287 47.0778 124.213 45.1505 124.213 45.1505C124.213 45.1505 123.524 45.1656 122.47 45.1656C121.751 45.1656 120.432 45.1613 119.739 45.1656C119.619 44.3813 119.274 44.9071 118.583 44.5116C118.009 44.1835 114.596 43.0276 114.596 43.0276C114.596 43.0276 114.598 44.4095 114.598 44.4747C114.598 44.5334 114.657 44.5964 114.772 44.6594C115.667 45.1396 115.456 45.3503 115.456 45.3503H107.843C107.843 45.3503 104.794 44.7659 103.623 44.4421C102.406 44.101 100.911 43.5969 99.3665 43.6034Z" fill="#E38F2F"/>
<path d="M99.4652 42.4931C97.6183 42.4996 96.0452 42.7191 94.7958 43.145C93.6246 43.5448 92.8555 44.0945 92.5035 44.7768C91.743 44.7789 89.8396 44.7876 88.8205 44.7876C88.0622 44.7876 87.5342 44.968 87.5342 45.2222C87.5342 45.4568 88.0231 45.7002 88.8401 45.7002C89.7048 45.7002 91.5322 45.6915 92.3296 45.6893C92.4339 46.5541 93.3248 47.5449 94.1157 47.9295C94.7197 48.225 96.2516 48.2316 97.099 48.1425C97.9812 48.0512 98.3136 47.8231 97.8921 47.6275C97.149 47.2799 96.7513 47.0734 96.332 46.6736C95.9626 46.3238 95.7497 45.987 95.6975 45.6785L104.528 45.6459C105.86 46.5476 107.064 47.1169 108.209 47.3928C109.384 47.6775 110.781 47.8166 112.363 47.8122C114.247 47.8057 115.887 47.5797 117.246 47.1408C118.519 46.7301 119.312 46.2108 119.612 45.5981C120.17 45.5937 121.37 45.5894 122.602 45.5894C123.708 45.5894 124.212 45.3591 124.212 45.144C124.212 44.918 123.64 44.6746 122.586 44.6746C121.867 44.6746 120.394 44.6812 119.701 44.6855C119.581 43.9033 119.271 43.4535 118.58 43.0602C118.006 42.7299 116.326 42.643 115.423 42.7278C114.677 42.7951 114.592 42.9581 114.592 43.0233C114.592 43.0841 114.653 43.145 114.768 43.208C115.664 43.6925 116.183 44.1901 116.32 44.6985L107.209 44.7268C105.966 43.8794 104.791 43.3123 103.618 42.9907C102.405 42.6539 101.006 42.4866 99.4652 42.4931ZM103.107 44.7398L95.9213 44.7637C96.4363 44.1271 97.527 43.812 99.2458 43.8077C100.645 43.8033 101.944 44.1162 103.107 44.7398ZM115.038 46.2152C114.399 46.4042 113.641 46.4976 112.717 46.4998C111.744 46.502 110.94 46.4281 110.332 46.2804C109.804 46.1543 109.258 45.9392 108.704 45.6372L116.153 45.6111C115.935 45.8567 115.562 46.0631 115.038 46.2152Z" fill="#FFDB31"/>
<path d="M85.4873 38.9511V45.1785C85.4873 46.6886 86.4042 48.114 88.0404 49.3829C88.2837 49.5763 88.5467 49.7632 88.8183 49.9413C89.5244 50.4172 90.3284 50.8583 91.2214 51.2798C91.4778 51.3971 91.7342 51.5058 92.0015 51.6231C92.8206 51.9729 93.705 52.301 94.6545 52.5965C94.9022 52.6813 95.1673 52.7595 95.4345 52.8377C96.2754 53.0941 97.1706 53.3266 98.0941 53.5374C98.3505 53.5917 98.6069 53.6525 98.8741 53.7069C99.7302 53.8872 100.617 54.0502 101.534 54.1979C101.792 54.237 102.049 54.2762 102.314 54.3153C103.179 54.4391 104.065 54.5478 104.967 54.6347C105.223 54.6651 105.482 54.689 105.747 54.7042C106.618 54.7889 107.505 54.8519 108.409 54.8911C108.665 54.9063 108.93 54.9215 109.186 54.9302C110.066 54.9693 110.955 54.9845 111.848 54.9845H111.95C112.176 54.9845 112.4 54.9845 112.626 54.978C113.521 54.978 114.41 54.9454 115.281 54.8998C115.546 54.8998 115.803 54.8845 116.061 54.8606C116.963 54.815 117.852 54.7433 118.721 54.6586C118.988 54.6347 119.242 54.6108 119.501 54.5717C120.411 54.4782 121.3 54.3609 122.163 54.2283C122.425 54.1914 122.684 54.1458 122.943 54.098C123.851 53.9481 124.74 53.7699 125.596 53.583C125.861 53.52 126.117 53.4657 126.376 53.3961C127.301 53.1767 128.197 52.929 129.037 52.6639C129.3 52.5857 129.557 52.4988 129.813 52.414C130.771 52.0859 131.66 51.7361 132.477 51.3711C132.749 51.2472 133.007 51.1234 133.255 50.9908C134.285 50.4759 135.169 49.9305 135.91 49.346C136.19 49.1244 136.453 48.894 136.688 48.6637C137.803 47.5816 138.418 46.4061 138.418 45.1763C138.418 43.4554 138.418 38.949 138.418 38.949H85.4873V38.9511Z" fill="#DE7A00"/>
<path d="M111.945 29.9993C97.3309 29.9993 85.4824 34.0081 85.4824 38.9513C85.4824 43.8945 97.3309 47.9013 111.945 47.9013C126.562 47.9013 138.41 43.8945 138.41 38.9513C138.41 34.006 126.562 29.9993 111.945 29.9993Z" fill="#FEC833"/>
<path d="M138.405 38.971C138.405 40.3855 137.434 41.724 135.704 42.9125C133.762 44.2466 136.786 41.6566 136.786 39.2035C136.786 34.2603 123.904 30.6469 109.289 30.6469C103.553 30.6469 99.2269 31.0054 102.964 30.5491C105.769 30.208 108.792 30.0189 111.942 30.0189C126.557 30.0189 138.405 34.0278 138.405 38.971Z" fill="#FFFBDC"/>
<path d="M111.945 31.7094C100.124 31.7094 90.54 34.9512 90.54 38.9492C90.54 42.9472 100.124 46.1891 111.945 46.1891C123.767 46.1891 133.349 42.9472 133.349 38.9492C133.349 34.9512 123.767 31.7094 111.945 31.7094Z" stroke="#E38F2F" stroke-width="0.452666" stroke-miterlimit="10"/>
<path d="M105.855 35.6246C104.005 35.6311 102.532 36.1874 101.285 36.6132C100.116 37.013 98.5994 37.0826 98.5994 37.0826L94.0234 37.2434C94.0234 37.2434 94.0234 38.4341 94.0234 38.6926C94.0234 38.9251 94.5123 39.1685 95.3271 39.1685C96.1919 39.1685 97.35 39.1641 98.1475 39.162C98.2539 40.0268 99.814 41.0132 100.603 41.4C101.207 41.6933 102.037 41.752 102.882 41.6607C103.764 41.5695 104.62 41.3891 104.829 40.9741C105.022 40.5852 104.384 39.6509 104.384 39.6509C104.384 39.6509 102.243 39.4553 102.191 39.1468L111.019 39.1163C112.351 40.0159 113.557 40.5873 114.704 40.8633C115.88 41.1479 117.277 41.2848 118.857 41.2827C120.741 41.2761 122.381 41.0502 123.739 40.6091C125.012 40.1984 125.805 39.6791 126.103 39.0685C126.664 39.062 128.439 39.0946 129.673 39.0946C130.777 39.0946 130.703 37.1695 130.703 37.1695C130.703 37.1695 130.016 37.1825 128.96 37.1825C128.241 37.1825 126.922 37.1803 126.229 37.1825C126.11 36.4003 125.764 36.9239 125.073 36.5307C124.497 36.2004 121.088 35.0466 121.088 35.0466C121.088 35.0466 121.088 36.4264 121.088 36.4937C121.088 36.5524 121.147 36.6154 121.264 36.6784C122.157 37.1586 121.947 37.3672 121.947 37.3672H114.335C114.335 37.3672 111.284 36.7806 110.113 36.459C108.892 36.1222 107.395 35.6203 105.855 35.6246Z" fill="#E38F2F"/>
<path d="M105.949 34.5144C104.102 34.5209 102.531 34.7403 101.284 35.1662C100.115 35.566 99.3413 36.1136 98.9915 36.798C98.2288 36.798 96.3254 36.8067 95.3086 36.8067C94.5524 36.8067 94.0244 36.987 94.0244 37.2434C94.0244 37.4803 94.5133 37.7215 95.3281 37.7215C96.1929 37.7215 98.0203 37.7149 98.8177 37.7128C98.9242 38.5754 99.8128 39.5662 100.604 39.953C101.208 40.2463 102.742 40.2528 103.587 40.1637C104.471 40.0703 104.802 39.8443 104.382 39.6509C103.637 39.3033 103.242 39.0947 102.824 38.6971C102.457 38.3451 102.244 38.0105 102.19 37.7019L111.018 37.6737C112.35 38.571 113.556 39.1447 114.703 39.4185C115.879 39.7009 117.276 39.84 118.856 39.8356C120.739 39.8291 122.38 39.6031 123.738 39.1642C125.011 38.7536 125.804 38.2343 126.102 37.6215C126.663 37.6193 127.86 37.615 129.094 37.615C130.198 37.615 130.702 37.3825 130.702 37.1696C130.702 36.9414 130.133 36.6981 129.077 36.6981C128.36 36.6981 126.884 36.7067 126.193 36.7067C126.074 35.9245 125.761 35.4769 125.072 35.0815C124.498 34.7534 122.819 34.6665 121.915 34.749C121.17 34.8186 121.087 34.9794 121.087 35.0467C121.087 35.1054 121.146 35.1706 121.261 35.2314C122.156 35.7116 122.678 36.2135 122.814 36.7198L113.702 36.7502C112.461 35.9028 111.283 35.3335 110.112 35.0119C108.891 34.6773 107.494 34.51 105.949 34.5144ZM109.593 36.7632L102.405 36.7871C102.918 36.1483 104.013 35.8376 105.727 35.8311C107.131 35.8246 108.428 36.1375 109.593 36.7632ZM121.526 38.2364C120.887 38.4255 120.129 38.5167 119.203 38.5211C118.232 38.5232 117.428 38.4494 116.815 38.3038C116.289 38.1799 115.744 37.9605 115.19 37.6584L122.638 37.6346C122.421 37.8801 122.05 38.0822 121.526 38.2364Z" fill="#FFDB31"/>
<path d="M82.0049 28.9511V35.1785C82.0049 36.6886 82.9218 38.114 84.558 39.3829C84.8013 39.5763 85.0642 39.7632 85.3358 39.9413C86.042 40.4172 86.846 40.8583 87.739 41.2798C87.9954 41.3971 88.2518 41.5058 88.519 41.6231C89.3382 41.9729 90.2225 42.301 91.1721 42.5965C91.4198 42.6813 91.6849 42.7595 91.9521 42.8377C92.793 43.0941 93.6882 43.3266 94.6117 43.5374C94.8681 43.5917 95.1245 43.6525 95.3917 43.7069C96.2478 43.8872 97.1343 44.0502 98.0513 44.1979C98.3098 44.237 98.5662 44.2762 98.8313 44.3153C99.6961 44.4391 100.583 44.5478 101.484 44.6347C101.741 44.6651 101.999 44.689 102.264 44.7042C103.136 44.7889 104.022 44.8519 104.926 44.8911C105.183 44.9063 105.448 44.9215 105.704 44.9302C106.584 44.9693 107.473 44.9845 108.366 44.9845H108.468C108.694 44.9845 108.918 44.9845 109.144 44.978C110.039 44.978 110.927 44.9454 111.799 44.8998C112.064 44.8998 112.32 44.8845 112.579 44.8606C113.481 44.815 114.369 44.7433 115.238 44.6586C115.506 44.6347 115.76 44.6108 116.018 44.5717C116.929 44.4782 117.818 44.3609 118.68 44.2283C118.943 44.1914 119.202 44.1458 119.46 44.098C120.368 43.9481 121.257 43.7699 122.113 43.583C122.378 43.52 122.635 43.4657 122.893 43.3961C123.819 43.1767 124.714 42.929 125.555 42.6639C125.818 42.5857 126.074 42.4988 126.331 42.414C127.289 42.0859 128.178 41.7361 128.995 41.3711C129.266 41.2472 129.525 41.1234 129.772 40.9908C130.802 40.4759 131.687 39.9305 132.428 39.346C132.708 39.1244 132.971 38.894 133.206 38.6637C134.32 37.5816 134.935 36.4061 134.935 35.1763C134.935 33.4554 134.935 28.949 134.935 28.949H82.0049V28.9511Z" fill="#DE7A00"/>
<path d="M108.463 19.9993C93.8485 19.9993 82 24.0081 82 28.9513C82 33.8945 93.8485 37.9013 108.463 37.9013C123.08 37.9013 134.928 33.8945 134.928 28.9513C134.928 24.006 123.08 19.9993 108.463 19.9993Z" fill="#FEC833"/>
<path d="M134.923 28.971C134.923 30.3855 133.952 31.724 132.222 32.9125C130.279 34.2466 133.304 31.6566 133.304 29.2035C133.304 24.2603 120.421 20.6469 105.807 20.6469C100.071 20.6469 95.7444 21.0054 99.4817 20.5491C102.287 20.208 105.309 20.0189 108.46 20.0189C123.074 20.0189 134.923 24.0278 134.923 28.971Z" fill="#FFFBDC"/>
<path d="M108.462 21.7094C96.642 21.7094 87.0576 24.9512 87.0576 28.9492C87.0576 32.9472 96.642 36.1891 108.462 36.1891C120.285 36.1891 129.867 32.9472 129.867 28.9492C129.867 24.9512 120.285 21.7094 108.462 21.7094Z" stroke="#E38F2F" stroke-width="0.452666" stroke-miterlimit="10"/>
<path d="M102.372 25.6246C100.523 25.6311 99.0498 26.1874 97.8026 26.6132C96.6336 27.013 95.117 27.0826 95.117 27.0826L90.541 27.2434C90.541 27.2434 90.541 28.4341 90.541 28.6926C90.541 28.9251 91.0299 29.1685 91.8447 29.1685C92.7095 29.1685 93.8676 29.1641 94.6651 29.162C94.7715 30.0268 96.3316 31.0132 97.1204 31.4C97.7244 31.6933 98.5544 31.752 99.3997 31.6607C100.282 31.5695 101.138 31.3891 101.347 30.9741C101.54 30.5852 100.901 29.6509 100.901 29.6509C100.901 29.6509 98.7608 29.4553 98.7087 29.1468L107.537 29.1163C108.869 30.0159 110.075 30.5873 111.222 30.8633C112.398 31.1479 113.795 31.2848 115.374 31.2827C117.258 31.2761 118.899 31.0502 120.257 30.6091C121.53 30.1984 122.323 29.6791 122.621 29.0685C123.181 29.062 124.957 29.0946 126.191 29.0946C127.295 29.0946 127.221 27.1695 127.221 27.1695C127.221 27.1695 126.534 27.1825 125.478 27.1825C124.759 27.1825 123.44 27.1803 122.747 27.1825C122.627 26.4003 122.282 26.9239 121.591 26.5307C121.015 26.2004 117.606 25.0466 117.606 25.0466C117.606 25.0466 117.606 26.4264 117.606 26.4937C117.606 26.5524 117.665 26.6154 117.782 26.6784C118.675 27.1586 118.464 27.3672 118.464 27.3672H110.853C110.853 27.3672 107.802 26.7806 106.631 26.459C105.41 26.1222 103.913 25.6203 102.372 25.6246Z" fill="#E38F2F"/>
<path d="M102.467 24.5144C100.62 24.5209 99.0486 24.7403 97.8014 25.1662C96.6324 25.566 95.8589 26.1136 95.5091 26.798C94.7464 26.798 92.843 26.8067 91.8261 26.8067C91.07 26.8067 90.542 26.987 90.542 27.2434C90.542 27.4803 91.0309 27.7215 91.8457 27.7215C92.7105 27.7215 94.5378 27.7149 95.3353 27.7128C95.4417 28.5754 96.3304 29.5662 97.1213 29.953C97.7254 30.2463 99.2594 30.2528 100.105 30.1637C100.989 30.0703 101.319 29.8443 100.9 29.6509C100.155 29.3033 99.7592 29.0947 99.342 28.6971C98.9748 28.3451 98.7618 28.0105 98.7075 27.7019L107.536 27.6737C108.868 28.571 110.074 29.1447 111.221 29.4185C112.396 29.7009 113.793 29.84 115.373 29.8356C117.257 29.8291 118.897 29.6031 120.255 29.1642C121.529 28.7536 122.322 28.2343 122.62 27.6215C123.18 27.6193 124.377 27.615 125.612 27.615C126.715 27.615 127.219 27.3825 127.219 27.1696C127.219 26.9414 126.65 26.6981 125.594 26.6981C124.877 26.6981 123.402 26.7067 122.711 26.7067C122.591 25.9245 122.278 25.4769 121.59 25.0815C121.016 24.7534 119.336 24.6665 118.432 24.749C117.687 24.8186 117.605 24.9794 117.605 25.0467C117.605 25.1054 117.663 25.1706 117.778 25.2314C118.674 25.7116 119.195 26.2135 119.332 26.7198L110.219 26.7502C108.978 25.9028 107.801 25.3335 106.63 25.0119C105.409 24.6773 104.011 24.51 102.467 24.5144ZM106.11 26.7632L98.9226 26.7871C99.4354 26.1483 100.531 25.8376 102.245 25.8311C103.649 25.8246 104.946 26.1375 106.11 26.7632ZM118.044 28.2364C117.405 28.4255 116.646 28.5167 115.721 28.5211C114.75 28.5232 113.946 28.4494 113.333 28.3038C112.807 28.1799 112.262 27.9605 111.708 27.6584L119.156 27.6346C118.939 27.8801 118.567 28.0822 118.044 28.2364Z" fill="#FFDB31"/>
<path d="M78.5225 18.9511V25.1785C78.5225 26.6886 79.4394 28.114 81.0755 29.3829C81.3189 29.5763 81.5818 29.7632 81.8534 29.9413C82.5596 30.4172 83.3635 30.8583 84.2566 31.2798C84.513 31.3971 84.7694 31.5058 85.0366 31.6231C85.8558 31.9729 86.7401 32.301 87.6896 32.5965C87.9374 32.6813 88.2024 32.7595 88.4697 32.8377C89.3106 33.0941 90.2058 33.3266 91.1292 33.5374C91.3856 33.5917 91.642 33.6525 91.9093 33.7069C92.7654 33.8872 93.6519 34.0502 94.5688 34.1979C94.8274 34.237 95.0838 34.2762 95.3489 34.3153C96.2137 34.4391 97.1002 34.5478 98.0019 34.6347C98.2583 34.6651 98.5169 34.689 98.782 34.7042C99.6533 34.7889 100.54 34.8519 101.444 34.8911C101.7 34.9063 101.965 34.9215 102.222 34.9302C103.102 34.9693 103.99 34.9845 104.883 34.9845H104.985C105.211 34.9845 105.435 34.9845 105.661 34.978C106.556 34.978 107.445 34.9454 108.316 34.8998C108.581 34.8998 108.838 34.8845 109.096 34.8606C109.998 34.815 110.887 34.7433 111.756 34.6586C112.023 34.6347 112.277 34.6108 112.536 34.5717C113.446 34.4782 114.335 34.3609 115.198 34.2283C115.461 34.1914 115.719 34.1458 115.978 34.098C116.886 33.9481 117.775 33.7699 118.631 33.583C118.896 33.52 119.152 33.4657 119.411 33.3961C120.336 33.1767 121.232 32.929 122.073 32.6639C122.335 32.5857 122.592 32.4988 122.848 32.414C123.806 32.0859 124.695 31.7361 125.512 31.3711C125.784 31.2472 126.042 31.1234 126.29 30.9908C127.32 30.4759 128.204 29.9305 128.945 29.346C129.226 29.1244 129.488 28.894 129.723 28.6637C130.838 27.5816 131.453 26.4061 131.453 25.1763C131.453 23.4554 131.453 18.949 131.453 18.949H78.5225V18.9511Z" fill="#DE7A00"/>
<path d="M104.981 9.99927C90.366 9.99927 78.5176 14.0081 78.5176 18.9513C78.5176 23.8945 90.366 27.9013 104.981 27.9013C119.597 27.9013 131.446 23.8945 131.446 18.9513C131.446 14.006 119.597 9.99927 104.981 9.99927Z" fill="#FEC833"/>
<path d="M131.44 18.971C131.44 20.3855 130.469 21.724 128.74 22.9125C126.797 24.2466 129.822 21.6566 129.822 19.2035C129.822 14.2603 116.939 10.6469 102.324 10.6469C96.5881 10.6469 92.262 11.0054 95.9993 10.5491C98.8044 10.208 101.827 10.0189 104.977 10.0189C119.592 10.0189 131.44 14.0278 131.44 18.971Z" fill="#FFFBDC"/>
<path d="M104.98 11.7094C93.1596 11.7094 83.5752 14.9512 83.5752 18.9492C83.5752 22.9472 93.1596 26.1891 104.98 26.1891C116.802 26.1891 126.384 22.9472 126.384 18.9492C126.384 14.9512 116.802 11.7094 104.98 11.7094Z" stroke="#E38F2F" stroke-width="0.452666" stroke-miterlimit="10"/>
<path d="M98.8897 15.6246C97.0406 15.6311 95.5674 16.1874 94.3202 16.6132C93.1512 17.013 91.6346 17.0826 91.6346 17.0826L87.0586 17.2434C87.0586 17.2434 87.0586 18.4341 87.0586 18.6926C87.0586 18.9251 87.5475 19.1685 88.3623 19.1685C89.2271 19.1685 90.3852 19.1641 91.1826 19.162C91.2891 20.0268 92.8492 21.0132 93.6379 21.4C94.242 21.6933 95.072 21.752 95.9172 21.6607C96.7994 21.5695 97.6555 21.3891 97.8641 20.9741C98.0575 20.5852 97.4187 19.6509 97.4187 19.6509C97.4187 19.6509 95.2784 19.4553 95.2263 19.1468L104.054 19.1163C105.386 20.0159 106.592 20.5873 107.74 20.8633C108.915 21.1479 110.312 21.2848 111.892 21.2827C113.776 21.2761 115.416 21.0502 116.774 20.6091C118.048 20.1984 118.841 19.6791 119.138 19.0685C119.699 19.062 121.474 19.0946 122.708 19.0946C123.812 19.0946 123.738 17.1695 123.738 17.1695C123.738 17.1695 123.052 17.1825 121.996 17.1825C121.276 17.1825 119.957 17.1803 119.264 17.1825C119.145 16.4003 118.799 16.9239 118.108 16.5307C117.533 16.2004 114.123 15.0466 114.123 15.0466C114.123 15.0466 114.123 16.4264 114.123 16.4937C114.123 16.5524 114.182 16.6154 114.299 16.6784C115.192 17.1586 114.982 17.3672 114.982 17.3672H107.37C107.37 17.3672 104.32 16.7806 103.148 16.459C101.927 16.1222 100.43 15.6203 98.8897 15.6246Z" fill="#E38F2F"/>
<path d="M98.9841 14.5144C97.1372 14.5209 95.5662 14.7403 94.319 15.1662C93.15 15.566 92.3765 16.1136 92.0267 16.798C91.264 16.798 89.3606 16.8067 88.3437 16.8067C87.5876 16.8067 87.0596 16.987 87.0596 17.2434C87.0596 17.4803 87.5485 17.7215 88.3633 17.7215C89.2281 17.7215 91.0554 17.7149 91.8528 17.7128C91.9593 18.5754 92.848 19.5662 93.6389 19.953C94.243 20.2463 95.777 20.2528 96.6222 20.1637C97.5066 20.0703 97.8368 19.8443 97.4175 19.6509C96.6722 19.3033 96.2767 19.0947 95.8595 18.6971C95.4923 18.3451 95.2794 18.0105 95.2251 17.7019L104.053 17.6737C105.385 18.571 106.591 19.1447 107.738 19.4185C108.914 19.7009 110.311 19.84 111.891 19.8356C113.775 19.8291 115.415 19.6031 116.773 19.1642C118.046 18.7536 118.839 18.2343 119.137 17.6215C119.698 17.6193 120.895 17.615 122.129 17.615C123.233 17.615 123.737 17.3825 123.737 17.1696C123.737 16.9414 123.168 16.6981 122.112 16.6981C121.395 16.6981 119.919 16.7067 119.228 16.7067C119.109 15.9245 118.796 15.4769 118.107 15.0815C117.534 14.7534 115.854 14.6665 114.95 14.749C114.205 14.8186 114.122 14.9794 114.122 15.0467C114.122 15.1054 114.181 15.1706 114.296 15.2314C115.191 15.7116 115.713 16.2135 115.85 16.7198L106.737 16.7502C105.496 15.9028 104.318 15.3335 103.147 15.0119C101.926 14.6773 100.529 14.51 98.9841 14.5144ZM102.628 16.7632L95.4402 16.7871C95.953 16.1483 97.0481 15.8376 98.7625 15.8311C100.166 15.8246 101.463 16.1375 102.628 16.7632ZM114.561 18.2364C113.922 18.4255 113.164 18.5167 112.238 18.5211C111.267 18.5232 110.463 18.4494 109.85 18.3038C109.325 18.1799 108.779 17.9605 108.225 17.6584L115.674 17.6346C115.456 17.8801 115.085 18.0822 114.561 18.2364Z" fill="#FFDB31"/>
<path d="M81.0049 8.95115V15.1785C81.0049 16.6886 81.9218 18.114 83.558 19.3829C83.8013 19.5763 84.0642 19.7632 84.3358 19.9413C85.042 20.4172 85.846 20.8583 86.739 21.2798C86.9954 21.3971 87.2518 21.5058 87.519 21.6231C88.3382 21.9729 89.2225 22.301 90.1721 22.5965C90.4198 22.6813 90.6849 22.7595 90.9521 22.8377C91.793 23.0941 92.6882 23.3266 93.6117 23.5374C93.8681 23.5917 94.1245 23.6525 94.3917 23.7069C95.2478 23.8872 96.1343 24.0502 97.0513 24.1979C97.3098 24.237 97.5662 24.2762 97.8313 24.3153C98.6961 24.4391 99.5826 24.5478 100.484 24.6347C100.741 24.6651 100.999 24.689 101.264 24.7042C102.136 24.7889 103.022 24.8519 103.926 24.8911C104.183 24.9063 104.448 24.9215 104.704 24.9302C105.584 24.9693 106.473 24.9845 107.366 24.9845H107.468C107.694 24.9845 107.918 24.9845 108.144 24.978C109.039 24.978 109.927 24.9454 110.799 24.8998C111.064 24.8998 111.32 24.8845 111.579 24.8606C112.481 24.815 113.369 24.7433 114.238 24.6586C114.506 24.6347 114.76 24.6108 115.018 24.5717C115.929 24.4782 116.818 24.3609 117.68 24.2283C117.943 24.1914 118.202 24.1458 118.46 24.098C119.368 23.9481 120.257 23.7699 121.113 23.583C121.378 23.52 121.635 23.4657 121.893 23.3961C122.819 23.1767 123.714 22.929 124.555 22.6639C124.818 22.5857 125.074 22.4988 125.331 22.414C126.289 22.0859 127.178 21.7361 127.995 21.3711C128.266 21.2472 128.525 21.1234 128.772 20.9908C129.802 20.4759 130.687 19.9305 131.428 19.346C131.708 19.1244 131.971 18.894 132.206 18.6637C133.32 17.5816 133.935 16.4061 133.935 15.1763C133.935 13.4554 133.935 8.94897 133.935 8.94897H81.0049V8.95115Z" fill="#DE7A00"/>
<path d="M107.463 -0.000732422C92.8485 -0.000732422 81 4.00815 81 8.95135C81 13.8945 92.8485 17.9013 107.463 17.9013C122.08 17.9013 133.928 13.8945 133.928 8.95135C133.928 4.00598 122.08 -0.000732422 107.463 -0.000732422Z" fill="#FEC833"/>
<path d="M133.923 8.971C133.923 10.3855 132.952 11.724 131.222 12.9125C129.279 14.2466 132.304 11.6566 132.304 9.20348C132.304 4.26028 119.421 0.646873 104.807 0.646873C99.0706 0.646873 94.7444 1.00539 98.4817 0.549093C101.287 0.207958 104.309 0.0189209 107.46 0.0189209C122.074 0.0189209 133.923 4.0278 133.923 8.971Z" fill="#FFFBDC"/>
<path d="M107.462 1.70935C95.642 1.70935 86.0576 4.95122 86.0576 8.94923C86.0576 12.9472 95.642 16.1891 107.462 16.1891C119.285 16.1891 128.867 12.9472 128.867 8.94923C128.867 4.95122 119.285 1.70935 107.462 1.70935Z" stroke="#E38F2F" stroke-width="0.452666" stroke-miterlimit="10"/>
<path d="M101.372 5.6246C99.523 5.63112 98.0498 6.18736 96.8026 6.61324C95.6336 7.01304 94.117 7.08257 94.117 7.08257L89.541 7.24336C89.541 7.24336 89.541 8.43407 89.541 8.69264C89.541 8.92513 90.0299 9.16849 90.8447 9.16849C91.7095 9.16849 92.8676 9.16414 93.6651 9.16196C93.7715 10.0268 95.3316 11.0132 96.1204 11.4C96.7244 11.6933 97.5544 11.752 98.3997 11.6607C99.2818 11.5695 100.138 11.3891 100.347 10.9741C100.54 10.5852 99.9011 9.65085 99.9011 9.65085C99.9011 9.65085 97.7608 9.45531 97.7087 9.14677L106.537 9.11634C107.869 10.0159 109.075 10.5873 110.222 10.8633C111.398 11.1479 112.795 11.2848 114.374 11.2827C116.258 11.2761 117.899 11.0502 119.257 10.6091C120.53 10.1984 121.323 9.6791 121.621 9.06853C122.181 9.06202 123.957 9.09461 125.191 9.09461C126.295 9.09461 126.221 7.16948 126.221 7.16948C126.221 7.16948 125.534 7.18252 124.478 7.18252C123.759 7.18252 122.44 7.18034 121.747 7.18252C121.627 6.4003 121.282 6.92395 120.591 6.53067C120.015 6.2004 116.606 5.04663 116.606 5.04663C116.606 5.04663 116.606 6.42637 116.606 6.49373C116.606 6.5524 116.665 6.61541 116.782 6.67842C117.675 7.15861 117.464 7.36722 117.464 7.36722H109.853C109.853 7.36722 106.802 6.78055 105.631 6.45897C104.41 6.12218 102.913 5.62025 101.372 5.6246Z" fill="#E38F2F"/>
<path d="M101.467 4.51436C99.6196 4.52088 98.0486 4.74034 96.8014 5.16621C95.6324 5.56602 94.8589 6.11357 94.5091 6.79802C93.7464 6.79802 91.843 6.8067 90.8261 6.8067C90.07 6.8067 89.542 6.98705 89.542 7.24344C89.542 7.48028 90.0309 7.72147 90.8457 7.72147C91.7105 7.72147 93.5378 7.71494 94.3353 7.71277C94.4417 8.57538 95.3304 9.5662 96.1213 9.95296C96.7254 10.2463 98.2594 10.2528 99.1046 10.1637C99.989 10.0703 100.319 9.84432 99.8999 9.65093C99.1546 9.30328 98.7592 9.0947 98.342 8.69707C97.9748 8.34507 97.7618 8.01045 97.7075 7.70191L106.536 7.67366C107.868 8.57104 109.074 9.14467 110.221 9.41845C111.396 9.70092 112.793 9.83998 114.373 9.83563C116.257 9.82911 117.897 9.60313 119.255 9.16422C120.529 8.75356 121.322 8.23425 121.62 7.62151C122.18 7.61934 123.377 7.61499 124.612 7.61499C125.715 7.61499 126.219 7.3825 126.219 7.16956C126.219 6.94141 125.65 6.69806 124.594 6.69806C123.877 6.69806 122.402 6.70675 121.711 6.70675C121.591 5.92453 121.278 5.47693 120.59 5.08147C120.016 4.75337 118.336 4.66645 117.432 4.74902C116.687 4.81855 116.605 4.97935 116.605 5.04671C116.605 5.10538 116.663 5.17056 116.778 5.2314C117.674 5.71159 118.195 6.21351 118.332 6.71978L109.219 6.75021C107.978 5.9028 106.801 5.33352 105.63 5.01194C104.409 4.67732 103.011 4.51002 101.467 4.51436ZM105.11 6.76324L97.9226 6.78714C98.4354 6.14833 99.5305 5.83762 101.245 5.8311C102.649 5.82458 103.946 6.13747 105.11 6.76324ZM117.044 8.23643C116.405 8.42547 115.646 8.51673 114.721 8.52107C113.75 8.52324 112.946 8.44937 112.333 8.30379C111.807 8.17994 111.262 7.96047 110.708 7.65845L118.156 7.63455C117.939 7.88008 117.567 8.08216 117.044 8.23643Z" fill="#FFDB31"/>
</svg>
