<svg width="140" height="93" viewBox="0 0 140 93" fill="none" xmlns="http://www.w3.org/2000/svg">
<path d="M65.0586 63.6724V71.4272C65.0586 73.3083 66.2008 75.0839 68.239 76.662C68.5394 76.9056 68.8697 77.1356 69.208 77.3603C70.0904 77.9531 71.0892 78.5052 72.2044 79.0276C72.5238 79.1738 72.8432 79.3091 73.1707 79.4526C74.1911 79.8884 75.2927 80.2971 76.481 80.6652C76.7896 80.7735 77.1198 80.8682 77.45 80.9684C78.4948 81.2905 79.6127 81.5774 80.7658 81.8399C81.0851 81.9103 81.4018 81.9861 81.7348 82.0538C82.8039 82.2757 83.9056 82.4787 85.0505 82.6628C85.3699 82.7115 85.6893 82.7602 86.0195 82.8117C87.0968 82.9659 88.2011 83.1013 89.3271 83.2095C89.6465 83.2474 89.9659 83.2745 90.2961 83.2962C91.3815 83.4044 92.4886 83.4775 93.6119 83.5289C93.934 83.5479 94.2615 83.5668 94.5836 83.5777C95.6771 83.6291 96.7815 83.6453 97.8966 83.6453H98.0239C98.3027 83.6453 98.5869 83.6453 98.8657 83.6372C99.9835 83.6372 101.088 83.5993 102.173 83.5371C102.504 83.5371 102.823 83.5208 103.142 83.4911C104.268 83.4315 105.373 83.3449 106.461 83.2366C106.788 83.2096 107.11 83.1798 107.43 83.1311C108.564 83.0147 109.668 82.8685 110.745 82.7034C111.076 82.6547 111.395 82.5951 111.717 82.5383C112.851 82.3542 113.956 82.1296 115.022 81.8995C115.352 81.821 115.672 81.7533 115.991 81.6667C117.144 81.396 118.259 81.0848 119.307 80.7572C119.637 80.6598 119.957 80.5515 120.279 80.446C121.47 80.0373 122.574 79.6015 123.592 79.1467C123.933 78.9897 124.252 78.8355 124.563 78.6731C125.844 78.0316 126.948 77.3549 127.868 76.6268C128.217 76.3453 128.548 76.0638 128.843 75.7742C130.229 74.4262 130.995 72.9619 130.995 71.4299C130.995 69.2888 130.995 63.6751 130.995 63.6751H65.0586V63.6724Z" fill="#DE7A00"/>
<path d="M98.018 52.5208C79.8125 52.5208 65.0527 57.5147 65.0527 63.6698C65.0527 69.8276 79.8125 74.8215 98.018 74.8215C116.223 74.8215 130.986 69.8276 130.986 63.6698C130.986 57.512 116.226 52.5208 98.018 52.5208Z" fill="#FEC833"/>
<path d="M130.978 63.6941C130.978 65.4562 129.77 67.1262 127.613 68.6068C125.193 70.2687 128.961 67.045 128.961 63.9837C128.961 57.8259 112.91 53.3246 94.7047 53.3246C87.5616 53.3246 82.1698 53.7712 86.8281 53.2028C90.3198 52.7778 94.0848 52.5424 98.0123 52.5424C116.22 52.5424 130.978 57.5363 130.978 63.6941Z" fill="#FFFBDC"/>
<path d="M98.0168 54.6482C83.2922 54.6482 71.3555 58.6866 71.3555 63.667C71.3555 68.6474 83.2922 72.6858 98.0168 72.6858C112.744 72.6858 124.681 68.6474 124.681 63.667C124.683 58.6893 112.744 54.6482 98.0168 54.6482Z" stroke="#E38F2F" stroke-width="0.563893" stroke-miterlimit="10"/>
<path d="M90.4284 59.526C88.1222 59.5341 86.2898 60.227 84.7361 60.7575C83.2772 61.2556 81.3906 61.3449 81.3906 61.3449L75.6875 61.5452C75.6875 61.5452 75.6875 63.0285 75.6875 63.3479C75.6875 63.6402 76.2965 63.9433 77.3115 63.9433C78.3861 63.9433 79.8342 63.9379 80.8249 63.9325C80.9602 65.0098 82.8982 66.2387 83.8808 66.7205C84.6332 67.0886 85.6672 67.1562 86.7228 67.0453C87.8191 66.9316 88.8855 66.7069 89.1454 66.1899C89.3863 65.7054 88.5878 64.5415 88.5878 64.5415C88.5878 64.5415 85.9217 64.3006 85.854 63.9136L96.8568 63.873C98.5161 64.9963 100.016 65.7081 101.442 66.0492C102.906 66.4011 104.65 66.577 106.62 66.5689C108.964 66.5608 111.01 66.282 112.699 65.7352C114.285 65.2209 115.273 64.574 115.644 63.8107C116.345 63.8053 118.557 63.8432 120.091 63.8432C121.466 63.8432 121.377 61.445 121.377 61.445C121.377 61.445 120.519 61.4586 119.206 61.4586C118.31 61.4586 116.667 61.4559 115.804 61.4586C115.658 60.4841 115.225 61.1392 114.364 60.6466C113.647 60.2378 109.4 58.7979 109.4 58.7979C109.4 58.7979 109.403 60.5166 109.403 60.6005C109.403 60.6736 109.473 60.7521 109.619 60.8279C110.734 61.4288 110.472 61.6886 110.472 61.6886H100.987C100.987 61.6886 97.1871 60.9578 95.7308 60.5572C94.2124 60.1512 92.3474 59.5205 90.4284 59.526Z" fill="#E38F2F"/>
<path d="M90.5499 58.1454C88.2465 58.1535 86.2895 58.4242 84.7332 58.9574C83.2742 59.4554 82.3161 60.1375 81.8749 60.9874C80.9275 60.9929 78.5564 61.001 77.2842 61.001C76.3423 61.001 75.6846 61.2256 75.6846 61.545C75.6846 61.8374 76.2936 62.1405 77.3086 62.1405C78.3832 62.1405 80.6595 62.1297 81.6529 62.127C81.7882 63.2042 82.8953 64.4385 83.8806 64.9176C84.633 65.2857 86.544 65.2938 87.5969 65.1829C88.7012 65.0638 89.1127 64.7823 88.5876 64.5441C87.6619 64.111 87.1665 63.8539 86.6468 63.3558C86.1867 62.9146 85.9214 62.4978 85.8511 62.1134L96.8539 62.0755C98.5131 63.1988 100.013 63.908 101.439 64.249C102.903 64.6036 104.647 64.7769 106.617 64.7714C108.961 64.7633 111.007 64.4818 112.696 63.9351C114.283 63.4235 115.271 62.7739 115.641 62.0133C116.337 62.0079 117.831 62.0025 119.369 62.0025C120.744 62.0025 121.371 61.7156 121.371 61.4476C121.371 61.1607 120.66 60.8629 119.344 60.8629C118.448 60.8629 116.616 60.8683 115.752 60.8738C115.603 59.8993 115.216 59.3417 114.358 58.8491C113.641 58.4377 111.551 58.3294 110.423 58.4323C109.492 58.5189 109.391 58.7192 109.391 58.8031C109.391 58.8762 109.465 58.9547 109.608 59.0332C110.723 59.6314 111.373 60.2566 111.541 60.89L100.191 60.9279C98.6431 59.8723 97.1787 59.1631 95.7198 58.7625C94.2121 58.3457 92.4717 58.1372 90.5499 58.1454ZM95.0891 60.9441L86.1326 60.9739C86.774 60.1781 88.1328 59.7884 90.2738 59.7829C92.0224 59.7775 93.6356 60.1673 95.0891 60.9441ZM109.949 62.782C109.153 63.0175 108.211 63.1312 107.058 63.1339C105.848 63.1393 104.847 63.0446 104.086 62.8632C103.431 62.7062 102.749 62.4355 102.056 62.0593L111.338 62.0295C111.07 62.3354 110.604 62.5898 109.949 62.782Z" fill="#FFDB31"/>
<path d="M69.6914 51.4974V59.2549C69.6914 61.1361 70.8391 62.9117 72.8745 64.4925C73.175 64.7361 73.5052 64.9661 73.8435 65.1908C74.7232 65.7808 75.7247 66.3357 76.8372 66.8581C77.1566 67.0043 77.4787 67.1369 77.8089 67.2831C78.8266 67.7216 79.931 68.1303 81.1138 68.4957C81.4251 68.604 81.7526 68.6987 82.0855 68.7961C83.1303 69.1155 84.2455 69.4079 85.4013 69.6677C85.7207 69.7354 86.0373 69.8139 86.3703 69.8788C87.4367 70.1035 88.5411 70.3065 89.686 70.4933C90.0054 70.542 90.3248 70.5934 90.655 70.6394C91.735 70.7937 92.8367 70.9291 93.9627 71.0373C94.2821 71.0752 94.6014 71.105 94.9317 71.1239C96.0171 71.2295 97.1214 71.3107 98.2474 71.3567C98.5668 71.373 98.897 71.3946 99.2191 71.4054C100.313 71.4515 101.417 71.4704 102.532 71.4704H102.659C102.941 71.4704 103.22 71.4704 103.501 71.4623C104.616 71.4623 105.721 71.4244 106.806 71.3648C107.136 71.3648 107.456 71.3459 107.778 71.3161C108.901 71.2566 110.005 71.1699 111.091 71.0617C111.421 71.0346 111.743 71.0049 112.063 70.9561C113.197 70.8424 114.301 70.6936 115.376 70.5312C115.706 70.4797 116.028 70.4256 116.347 70.366C117.479 70.182 118.586 69.9573 119.652 69.7273C119.982 69.6488 120.302 69.5784 120.621 69.4945C121.777 69.2238 122.892 68.9125 123.94 68.5823C124.27 68.4849 124.587 68.3793 124.909 68.271C126.1 67.865 127.207 67.4293 128.224 66.9745C128.565 66.8202 128.885 66.6632 129.193 66.5008C130.476 65.8593 131.578 65.18 132.501 64.4546C132.853 64.1731 133.178 63.8916 133.473 63.6019C134.861 62.254 135.625 60.7896 135.625 59.2576C135.625 57.1139 135.625 51.5001 135.625 51.5001H69.6914V51.4974Z" fill="#DE7A00"/>
<path d="M102.657 40.3458C84.4512 40.3458 69.6914 45.3397 69.6914 51.4949C69.6914 57.6527 84.4512 62.6466 102.657 62.6466C120.862 62.6466 135.622 57.6527 135.622 51.4949C135.619 45.337 120.862 40.3458 102.657 40.3458Z" fill="#FEC833"/>
<path d="M135.615 51.522C135.615 53.284 134.405 54.9487 132.251 56.4293C129.834 58.0939 133.601 54.8648 133.601 51.8089C133.601 45.6511 117.55 41.1498 99.3449 41.1498C92.1991 41.1498 86.8073 41.5964 91.4683 41.028C94.9573 40.603 98.7224 40.3702 102.653 40.3702C120.855 40.3702 135.615 45.3614 135.615 51.522Z" fill="#FFFBDC"/>
<path d="M102.655 42.4786C87.9252 42.4786 75.9912 46.5144 75.9912 51.4948C75.9912 56.4778 87.9252 60.5136 102.655 60.5136C117.38 60.5136 129.319 56.4806 129.319 51.4948C129.319 46.5144 117.38 42.4786 102.655 42.4786Z" stroke="#E38F2F" stroke-width="0.563893" stroke-miterlimit="10"/>
<path d="M95.0641 47.3536C92.7607 47.359 90.9228 48.0519 89.3718 48.5851C87.9156 49.0805 86.029 49.1725 86.029 49.1725L80.3232 49.3755C80.3232 49.3755 80.3232 50.8561 80.3232 51.1755C80.3232 51.4705 80.935 51.771 81.95 51.771C83.0246 51.771 84.47 51.7655 85.4606 51.7628C85.596 52.8401 87.5367 54.0717 88.5219 54.548C89.2717 54.9162 90.3057 54.9838 91.3586 54.8756C92.4602 54.7592 93.524 54.5345 93.7838 54.0202C94.0274 53.533 93.2262 52.3691 93.2262 52.3691C93.2262 52.3691 90.5601 52.1282 90.4951 51.7412L101.495 51.706C103.155 52.8239 104.654 53.5384 106.083 53.8795C107.545 54.2341 109.285 54.4073 111.258 54.3992C113.602 54.3938 115.649 54.1123 117.338 53.5655C118.924 53.0512 119.912 52.4016 120.283 51.641C120.981 51.6383 123.19 51.6762 124.73 51.6762C126.105 51.6762 126.013 49.2726 126.013 49.2726C126.013 49.2726 125.158 49.2943 123.842 49.2943C122.949 49.2943 121.303 49.2889 120.442 49.2943C120.294 48.3172 119.863 48.9722 119 48.4796C118.285 48.0681 114.036 46.6309 114.036 46.6309C114.036 46.6309 114.036 48.3496 114.036 48.4308C114.036 48.5039 114.109 48.5851 114.252 48.6636C115.367 49.2591 115.105 49.5217 115.105 49.5217H105.62C105.62 49.5217 101.823 48.7935 100.361 48.3902C98.8481 47.9761 96.9832 47.3454 95.0641 47.3536Z" fill="#E38F2F"/>
<path d="M95.1847 45.9703C92.8813 45.9784 90.9216 46.2491 89.3679 46.7823C87.9117 47.2777 86.9481 47.9652 86.5096 48.8151C85.5623 48.8205 83.1912 48.8286 81.9217 48.8286C80.9771 48.8286 80.3193 49.0506 80.3193 49.3727C80.3193 49.665 80.9283 49.9682 81.9461 49.9682C83.0207 49.9682 85.297 49.96 86.2904 49.9546C86.423 51.0319 87.5328 52.2662 88.518 52.7453C89.2678 53.1161 91.1787 53.1215 92.2344 53.0078C93.336 52.8941 93.7447 52.6126 93.2223 52.369C92.2966 51.936 91.8013 51.6788 91.2816 51.1835C90.8215 50.745 90.5589 50.3282 90.4912 49.9411L101.491 49.9032C103.151 51.0238 104.65 51.7357 106.079 52.0794C107.541 52.4313 109.281 52.6072 111.252 52.5991C113.599 52.5937 115.645 52.3122 117.337 51.7627C118.92 51.2512 119.911 50.6043 120.282 49.841C120.98 49.8355 122.471 49.8274 124.009 49.8274C125.386 49.8274 126.012 49.5405 126.012 49.2725C126.012 48.9937 125.302 48.6906 123.987 48.6906C123.091 48.6906 121.256 48.696 120.392 48.7014C120.244 47.727 119.857 47.1667 118.996 46.6768C118.281 46.2654 116.192 46.1571 115.066 46.2599C114.137 46.3466 114.034 46.5469 114.034 46.6308C114.034 46.7038 114.107 46.7823 114.251 46.8608C115.366 47.4617 116.013 48.0816 116.186 48.7149L104.834 48.7556C103.286 47.6972 101.822 46.9935 100.36 46.5902C98.8469 46.1733 97.1065 45.9649 95.1847 45.9703ZM99.7212 48.7691L90.7673 48.7989C91.4088 48.0058 92.7676 47.616 94.9086 47.6106C96.6545 47.5998 98.2704 47.9923 99.7212 48.7691ZM114.584 50.6097C113.793 50.8424 112.846 50.9561 111.693 50.9615C110.48 50.9669 109.482 50.8749 108.721 50.6909C108.063 50.5312 107.384 50.2632 106.694 49.887L115.972 49.8545C115.702 50.1631 115.239 50.4202 114.584 50.6097Z" fill="#FFDB31"/>
<path d="M61.1318 40.4188V48.1736C61.1318 50.0575 62.2768 51.8331 64.3122 53.4111C64.6154 53.6547 64.9429 53.8875 65.284 54.1122C66.1664 54.7022 67.1651 55.2544 68.2776 55.7795C68.597 55.9257 68.9191 56.0583 69.2493 56.2045C70.2671 56.643 71.3714 57.049 72.5542 57.4171C72.8655 57.5254 73.193 57.6228 73.5233 57.7202C74.5708 58.0396 75.6859 58.332 76.839 58.5945C77.1584 58.6622 77.4805 58.7407 77.8107 58.8084C78.8772 59.033 79.9815 59.2333 81.1238 59.4201C81.4459 59.4688 81.7652 59.5175 82.0955 59.5662C83.1727 59.7205 84.2771 59.8558 85.4031 59.9614C85.7225 60.002 86.0392 60.0318 86.3721 60.048C87.4575 60.1563 88.5673 60.2348 89.6878 60.2835C90.0072 60.3025 90.3375 60.3214 90.6569 60.3322C91.7531 60.381 92.8574 60.3999 93.9726 60.3999H94.0971C94.384 60.3999 94.6628 60.3999 94.9416 60.3891C96.0595 60.3891 97.1611 60.3512 98.2492 60.2889C98.5795 60.2889 98.8988 60.2727 99.221 60.2429C100.344 60.1861 101.449 60.0968 102.534 59.9939C102.864 59.9614 103.184 59.9371 103.506 59.8856C104.64 59.7692 105.747 59.6231 106.821 59.458C107.152 59.4092 107.471 59.3524 107.79 59.2929C108.925 59.1088 110.032 58.8841 111.098 58.6541C111.428 58.5756 111.75 58.5052 112.07 58.4213C113.223 58.1506 114.338 57.842 115.383 57.5091C115.713 57.4117 116.032 57.3061 116.355 57.2006C117.546 56.7918 118.65 56.3588 119.67 55.8986C120.009 55.7443 120.331 55.59 120.639 55.4249C121.92 54.7834 123.024 54.1041 123.947 53.3759C124.296 53.0944 124.626 52.8156 124.916 52.526C126.302 51.1754 127.071 49.711 127.071 48.179C127.071 46.038 127.071 40.4242 127.071 40.4242H61.1318V40.4188Z" fill="#DE7A00"/>
<path d="M94.0932 29.27C75.885 29.27 61.1279 34.2612 61.1279 40.4163C61.1279 46.5769 75.885 51.5681 94.0932 51.5681C112.299 51.5681 127.058 46.5769 127.058 40.4163C127.058 34.2612 112.299 29.27 94.0932 29.27Z" fill="#FEC833"/>
<path d="M127.053 40.4432C127.053 42.2053 125.843 43.8727 123.688 45.3533C121.268 47.0152 125.036 43.7915 125.036 40.7302C125.036 34.5723 108.988 30.0738 90.7799 30.0738C83.6368 30.0738 78.245 30.5177 82.9033 29.9493C86.395 29.5243 90.16 29.2888 94.0848 29.2888C112.293 29.2915 127.053 34.2854 127.053 40.4432Z" fill="#FFFBDC"/>
<path d="M94.0917 31.4003C79.3644 31.4003 67.4277 35.4387 67.4277 40.4191C67.4277 45.4022 79.3644 49.4379 94.0917 49.4379C108.816 49.4379 120.753 45.4022 120.753 40.4191C120.753 35.4387 108.816 31.4003 94.0917 31.4003Z" stroke="#E38F2F" stroke-width="0.563893" stroke-miterlimit="10"/>
<path d="M86.4987 36.2776C84.2007 36.283 82.3628 36.9759 80.8064 37.5092C79.3475 38.0045 77.4636 38.0965 77.4636 38.0965L71.7578 38.2968C71.7578 38.2968 71.7578 39.7801 71.7578 40.0995C71.7578 40.3918 72.3695 40.695 73.3846 40.695C74.4618 40.695 75.9045 40.6896 76.8979 40.6869C77.0305 41.7641 78.974 42.9957 79.9565 43.4748C80.709 43.8429 81.7402 43.9106 82.7932 43.8023C83.8975 43.6859 84.9612 43.4612 85.2184 42.9497C85.4593 42.4625 84.6635 41.2986 84.6635 41.2986C84.6635 41.2986 81.9947 41.0577 81.9297 40.6706L92.9299 40.6327C94.5891 41.7533 96.0886 42.4652 97.5151 42.8062C98.9794 43.1635 100.72 43.3367 102.69 43.3313C105.037 43.3232 107.083 43.0417 108.772 42.4949C110.361 41.9807 111.346 41.3365 111.72 40.5705C112.416 40.5678 114.627 40.6057 116.164 40.6057C117.542 40.6057 117.45 38.2048 117.45 38.2048C117.45 38.2048 116.592 38.2237 115.279 38.2237C114.383 38.2237 112.74 38.2183 111.877 38.2237C111.728 37.2466 111.298 37.9016 110.437 37.409C109.722 37.0003 105.47 35.5603 105.47 35.5603C105.47 35.5603 105.473 37.2818 105.473 37.363C105.473 37.4361 105.546 37.5146 105.689 37.5931C106.805 38.1912 106.542 38.4538 106.542 38.4538H97.0576C97.0576 38.4538 93.2601 37.7257 91.8012 37.3224C90.2854 36.8974 88.4232 36.2695 86.4987 36.2776Z" fill="#E38F2F"/>
<path d="M86.6224 34.8945C84.3217 34.9026 82.362 35.176 80.8057 35.7065C79.3467 36.2046 78.3886 36.8894 77.9501 37.7393C77.0027 37.742 74.6316 37.7528 73.3622 37.7528C72.4175 37.7528 71.7598 37.9775 71.7598 38.2942C71.7598 38.5865 72.3688 38.8897 73.3865 38.8897C74.4638 38.8897 76.7402 38.8788 77.7335 38.8761C77.8634 39.9534 78.9732 41.1877 79.9585 41.6668C80.7109 42.0349 82.6192 42.043 83.6748 41.932C84.7737 41.8183 85.1879 41.5341 84.6628 41.2905C83.7371 40.8574 83.2417 40.6003 82.7193 40.1023C82.2592 39.6665 81.9939 39.2469 81.929 38.8626L92.9291 38.822C94.5883 39.9453 96.0879 40.6544 97.5143 40.9982C98.9787 41.3528 100.719 41.526 102.69 41.5206C105.036 41.5125 107.08 41.231 108.772 40.6842C110.358 40.1726 111.346 39.5257 111.719 38.7624C112.415 38.757 113.909 38.7516 115.444 38.7516C116.821 38.7516 117.449 38.4647 117.449 38.1967C117.449 37.9152 116.738 37.6121 115.425 37.6121C114.529 37.6121 112.694 37.6202 111.83 37.6256C111.681 36.6512 111.294 36.0909 110.434 35.601C109.719 35.1895 107.627 35.0813 106.501 35.1868C105.572 35.2708 105.467 35.4738 105.467 35.555C105.467 35.6307 105.542 35.7065 105.686 35.785C106.801 36.3886 107.448 37.0085 107.619 37.6419L96.2692 37.677C94.721 36.6214 93.2566 35.915 91.795 35.5144C90.2846 35.0948 88.5415 34.8864 86.6224 34.8945ZM91.1589 37.6933L82.2078 37.7231C82.8492 36.93 84.208 36.5375 86.349 36.5321C88.0922 36.5267 89.7108 36.9165 91.1589 37.6933ZM106.022 39.5311C105.226 39.7666 104.281 39.883 103.131 39.8857C101.918 39.8884 100.917 39.7964 100.159 39.6123C99.5011 39.4554 98.8217 39.1874 98.1315 38.8112L107.41 38.7787C107.139 39.0845 106.674 39.3417 106.022 39.5311Z" fill="#FFDB31"/>
<path d="M69.208 30.4823V38.2398C69.208 40.121 70.3502 41.8966 72.3884 43.4773C72.6916 43.7182 73.0191 43.951 73.3574 44.173C74.2371 44.7657 75.2386 45.3152 76.3511 45.8403C76.6705 45.9865 76.9899 46.1218 77.3228 46.268C78.3432 46.7038 79.4449 47.1125 80.6277 47.4806C80.9363 47.5862 81.2665 47.6836 81.5994 47.781C82.6469 48.1004 83.7621 48.3901 84.9125 48.6526C85.2319 48.7203 85.5512 48.7961 85.8842 48.8637C86.9506 49.0884 88.055 49.2914 89.1972 49.4755C89.5193 49.5242 89.8387 49.5729 90.1689 49.6216C91.2462 49.7759 92.3506 49.9112 93.4738 50.0195C93.7932 50.0574 94.1153 50.0872 94.4456 50.1061C95.531 50.2117 96.6353 50.2902 97.7613 50.3389C98.0807 50.3578 98.4109 50.3768 98.7303 50.3876C99.8265 50.4363 100.934 50.4553 102.046 50.4553H102.173C102.455 50.4553 102.734 50.4553 103.015 50.4472C104.13 50.4472 105.237 50.4066 106.323 50.3497C106.653 50.3497 106.972 50.3308 107.294 50.301C108.418 50.2442 109.525 50.1548 110.607 50.0493C110.94 50.0195 111.257 49.9897 111.579 49.941C112.713 49.8246 113.82 49.6785 114.895 49.5133C115.222 49.4673 115.545 49.4105 115.867 49.351C116.998 49.1642 118.105 48.9422 119.172 48.7095C119.502 48.631 119.821 48.5633 120.143 48.4767C121.296 48.2033 122.412 47.8947 123.459 47.5645C123.787 47.4671 124.106 47.3588 124.425 47.2532C125.619 46.8445 126.726 46.4087 127.744 45.954C128.082 45.7997 128.404 45.6454 128.713 45.4803C129.996 44.8388 131.097 44.1594 132.02 43.4313C132.37 43.1552 132.697 42.8683 132.989 42.5814C134.378 41.2335 135.144 39.7691 135.144 38.2371C135.144 36.0934 135.144 30.4796 135.144 30.4796H69.208V30.4823Z" fill="#DE7A00"/>
<path d="M102.167 19.3308C83.962 19.3308 69.2021 24.3247 69.2021 30.4825C69.2021 36.6404 83.962 41.6316 102.167 41.6316C120.376 41.6316 135.135 36.6404 135.135 30.4825C135.135 24.322 120.376 19.3308 102.167 19.3308Z" fill="#FEC833"/>
<path d="M135.129 30.5071C135.129 32.2692 133.919 33.9365 131.764 35.4171C129.344 37.079 133.112 33.8526 133.112 30.7967C133.112 24.6389 117.064 20.1376 98.8585 20.1376C91.7127 20.1376 86.3236 20.5842 90.9792 20.0158C94.4736 19.5908 98.2387 19.3553 102.163 19.3553C120.369 19.3553 135.129 24.3493 135.129 30.5071Z" fill="#FFFBDC"/>
<path d="M102.166 21.4611C87.4413 21.4611 75.502 25.4995 75.502 30.4799C75.502 35.4603 87.4413 39.4987 102.166 39.4987C116.893 39.4987 128.83 35.4603 128.83 30.4799C128.83 25.4995 116.893 21.4611 102.166 21.4611Z" stroke="#E38F2F" stroke-width="0.563893" stroke-miterlimit="10"/>
<path d="M94.5799 26.3384C92.2765 26.3465 90.4414 27.0394 88.8877 27.57C87.4315 28.068 85.5422 28.1546 85.5422 28.1546L79.8418 28.3549C79.8418 28.3549 79.8418 29.8382 79.8418 30.1603C79.8418 30.4499 80.4508 30.7531 81.4658 30.7531C82.5431 30.7531 83.9858 30.7476 84.9792 30.7449C85.1118 31.8222 87.0552 33.0511 88.0378 33.5329C88.7902 33.8983 89.8242 33.9714 90.8771 33.8577C91.9761 33.744 93.0425 33.5193 93.3024 33.0024C93.5433 32.5179 92.7475 31.354 92.7475 31.354C92.7475 31.354 90.0814 31.1104 90.0164 30.726L101.014 30.6881C102.673 31.8087 104.175 32.5206 105.604 32.8643C107.069 33.2189 108.809 33.3894 110.777 33.3867C113.124 33.3786 115.167 33.0971 116.859 32.5476C118.445 32.0361 119.433 31.3891 119.804 30.6286C120.502 30.6204 122.714 30.661 124.251 30.661C125.626 30.661 125.534 28.2629 125.534 28.2629C125.534 28.2629 124.679 28.2791 123.363 28.2791C122.467 28.2791 120.824 28.2764 119.961 28.2791C119.812 27.3047 119.382 27.957 118.521 27.4671C117.804 27.0557 113.557 25.6184 113.557 25.6184C113.557 25.6184 113.557 27.3372 113.557 27.4211C113.557 27.4942 113.63 27.5727 113.776 27.6511C114.889 28.2493 114.626 28.5092 114.626 28.5092H105.144C105.144 28.5092 101.344 27.7784 99.8851 27.3778C98.364 26.9582 96.499 26.333 94.5799 26.3384Z" fill="#E38F2F"/>
<path d="M94.6973 24.9553C92.3966 24.9634 90.4396 25.2368 88.886 25.7673C87.4297 26.2654 86.4661 26.9475 86.0304 27.8001C85.0803 27.8001 82.7092 27.8109 81.4425 27.8109C80.5005 27.8109 79.8428 28.0356 79.8428 28.355C79.8428 28.65 80.4518 28.9504 81.4668 28.9504C82.5441 28.9504 84.8205 28.9423 85.8138 28.9396C85.9465 30.0142 87.0535 31.2484 88.0388 31.7302C88.7912 32.0956 90.7022 32.1038 91.7551 31.9928C92.8567 31.8764 93.2682 31.5949 92.7458 31.354C91.8174 30.9209 91.3247 30.6611 90.805 30.1658C90.3476 29.7273 90.0823 29.3104 90.0147 28.9261L101.012 28.8909C102.671 30.0088 104.174 30.7233 105.603 31.0644C107.067 31.4163 108.808 31.5895 110.775 31.5841C113.122 31.576 115.166 31.2945 116.857 30.7477C118.443 30.2361 119.431 29.5892 119.802 28.8259C120.501 28.8232 121.992 28.8178 123.529 28.8178C124.904 28.8178 125.532 28.5282 125.532 28.2629C125.532 27.9787 124.823 27.6756 123.508 27.6756C122.615 27.6756 120.777 27.6864 119.916 27.6864C119.767 26.712 119.377 26.1544 118.519 25.6618C117.805 25.253 115.712 25.1448 114.586 25.2476C113.658 25.3342 113.555 25.5345 113.555 25.6185C113.555 25.6915 113.628 25.7727 113.772 25.8485C114.887 26.4467 115.536 27.072 115.707 27.7026L104.355 27.7405C102.809 26.6849 101.342 25.9757 99.8834 25.5751C98.3622 25.1583 96.6218 24.9499 94.6973 24.9553ZM99.2365 27.7568L90.2826 27.7865C90.9214 26.9908 92.2856 26.6037 94.4212 26.5956C96.1698 26.5875 97.7857 26.9772 99.2365 27.7568ZM114.102 29.5919C113.306 29.8274 112.361 29.9411 111.208 29.9465C109.998 29.9492 108.997 29.8572 108.234 29.6758C107.579 29.5216 106.899 29.2482 106.209 28.8719L115.488 28.8422C115.217 29.148 114.754 29.3998 114.102 29.5919Z" fill="#FFDB31"/>
<path d="M61.208 20.1515V27.909C61.208 29.7902 62.3502 31.5658 64.3884 33.1465C64.6916 33.3874 65.0191 33.6202 65.3574 33.8422C66.2371 34.4349 67.2386 34.9844 68.3511 35.5095C68.6705 35.6557 68.9899 35.791 69.3228 35.9372C70.3432 36.373 71.4449 36.7817 72.6277 37.1498C72.9363 37.2553 73.2665 37.3528 73.5994 37.4502C74.6469 37.7696 75.7621 38.0592 76.9125 38.3218C77.2319 38.3895 77.5512 38.4652 77.8842 38.5329C78.9506 38.7576 80.055 38.9606 81.1972 39.1446C81.5193 39.1934 81.8387 39.2421 82.1689 39.2908C83.2462 39.4451 84.3506 39.5804 85.4738 39.6887C85.7932 39.7266 86.1153 39.7564 86.4456 39.7753C87.531 39.8809 88.6353 39.9594 89.7613 40.0081C90.0807 40.027 90.4109 40.046 90.7303 40.0568C91.8265 40.1055 92.9336 40.1245 94.0461 40.1245H94.1733C94.4548 40.1245 94.7336 40.1245 95.0151 40.1164C96.1302 40.1164 97.2373 40.0758 98.3227 40.0189C98.6529 40.0189 98.9723 40 99.2944 39.9702C100.418 39.9133 101.525 39.824 102.607 39.7185C102.94 39.6887 103.257 39.6589 103.579 39.6102C104.713 39.4938 105.82 39.3476 106.895 39.1825C107.222 39.1365 107.545 39.0797 107.867 39.0201C108.998 38.8334 110.105 38.6114 111.172 38.3786C111.502 38.3002 111.821 38.2325 112.143 38.1459C113.296 37.8725 114.412 37.5639 115.459 37.2337C115.787 37.1362 116.106 37.028 116.425 36.9224C117.619 36.5137 118.726 36.0779 119.744 35.6232C120.082 35.4689 120.404 35.3146 120.713 35.1495C121.996 34.508 123.097 33.8286 124.02 33.1005C124.37 32.8244 124.697 32.5375 124.989 32.2506C126.378 30.9027 127.144 29.4383 127.144 27.9063C127.144 25.7626 127.144 20.1488 127.144 20.1488H61.208V20.1515Z" fill="#DE7A00"/>
<path d="M94.1674 9C75.962 9 61.2021 13.9939 61.2021 20.1517C61.2021 26.3095 75.962 31.3008 94.1674 31.3008C112.376 31.3008 127.135 26.3095 127.135 20.1517C127.135 13.9912 112.376 9 94.1674 9Z" fill="#FEC833"/>
<path d="M127.129 20.1763C127.129 21.9384 125.919 23.6057 123.764 25.0863C121.344 26.7482 125.112 23.5218 125.112 20.4659C125.112 14.3081 109.064 9.80679 90.8585 9.80679C83.7127 9.80679 78.3236 10.2534 82.9792 9.68498C86.4736 9.26002 90.2387 9.02454 94.1634 9.02454C112.369 9.02454 127.129 14.0185 127.129 20.1763Z" fill="#FFFBDC"/>
<path d="M94.166 11.1302C79.4413 11.1302 67.502 15.1687 67.502 20.1491C67.502 25.1295 79.4413 29.1679 94.166 29.1679C108.893 29.1679 120.83 25.1295 120.83 20.1491C120.83 15.1687 108.893 11.1302 94.166 11.1302Z" stroke="#E38F2F" stroke-width="0.563893" stroke-miterlimit="10"/>
<path d="M86.5799 16.0076C84.2765 16.0157 82.4414 16.7086 80.8877 17.2391C79.4315 17.7372 77.5422 17.8238 77.5422 17.8238L71.8418 18.0241C71.8418 18.0241 71.8418 19.5074 71.8418 19.8295C71.8418 20.1191 72.4508 20.4223 73.4658 20.4223C74.5431 20.4223 75.9858 20.4168 76.9792 20.4141C77.1118 21.4914 79.0552 22.7203 80.0378 23.2021C80.7902 23.5675 81.8242 23.6406 82.8771 23.5269C83.9761 23.4132 85.0425 23.1885 85.3024 22.6715C85.5433 22.187 84.7475 21.0231 84.7475 21.0231C84.7475 21.0231 82.0814 20.7796 82.0164 20.3952L93.0138 20.3573C94.6731 21.4779 96.1753 22.1897 97.6045 22.5335C99.0688 22.8881 100.809 23.0586 102.777 23.0559C105.124 23.0478 107.167 22.7663 108.859 22.2168C110.445 21.7052 111.433 21.0583 111.804 20.2977C112.502 20.2896 114.714 20.3302 116.251 20.3302C117.626 20.3302 117.534 17.9321 117.534 17.9321C117.534 17.9321 116.679 17.9483 115.363 17.9483C114.467 17.9483 112.824 17.9456 111.961 17.9483C111.812 16.9739 111.382 17.6262 110.521 17.1363C109.804 16.7249 105.557 15.2876 105.557 15.2876C105.557 15.2876 105.557 17.0064 105.557 17.0903C105.557 17.1634 105.63 17.2418 105.776 17.3203C106.889 17.9185 106.626 18.1784 106.626 18.1784H97.1443C97.1443 18.1784 93.3441 17.4476 91.8851 17.047C90.364 16.6274 88.499 16.0022 86.5799 16.0076Z" fill="#E38F2F"/>
<path d="M86.6973 14.6245C84.3966 14.6326 82.4396 14.906 80.886 15.4365C79.4297 15.9346 78.4661 16.6166 78.0304 17.4693C77.0803 17.4693 74.7092 17.4801 73.4425 17.4801C72.5005 17.4801 71.8428 17.7048 71.8428 18.0241C71.8428 18.3192 72.4518 18.6196 73.4668 18.6196C74.5441 18.6196 76.8205 18.6115 77.8138 18.6088C77.9465 19.6834 79.0535 20.9176 80.0388 21.3994C80.7912 21.7648 82.7022 21.773 83.7551 21.662C84.8567 21.5456 85.2682 21.2641 84.7458 21.0232C83.8174 20.5901 83.3247 20.3303 82.805 19.8349C82.3476 19.3965 82.0823 18.9796 82.0147 18.5953L93.0121 18.5601C94.6713 19.678 96.1736 20.3925 97.6027 20.7336C99.0671 21.0855 100.808 21.2587 102.775 21.2533C105.122 21.2452 107.166 20.9636 108.857 20.4169C110.443 19.9053 111.431 19.2584 111.802 18.4951C112.501 18.4924 113.992 18.487 115.529 18.487C116.904 18.487 117.532 18.1974 117.532 17.9321C117.532 17.6479 116.823 17.3448 115.508 17.3448C114.615 17.3448 112.777 17.3556 111.916 17.3556C111.767 16.3812 111.377 15.8236 110.519 15.3309C109.805 14.9222 107.712 14.814 106.586 14.9168C105.658 15.0034 105.555 15.2037 105.555 15.2876C105.555 15.3607 105.628 15.4419 105.772 15.5177C106.887 16.1159 107.536 16.7411 107.707 17.3718L96.3549 17.4097C94.8094 16.3541 93.3423 15.6449 91.8834 15.2443C90.3622 14.8275 88.6218 14.6191 86.6973 14.6245ZM91.2365 17.426L82.2826 17.4557C82.9214 16.6599 84.2856 16.2729 86.4212 16.2648C88.1698 16.2567 89.7857 16.6464 91.2365 17.426ZM106.102 19.2611C105.306 19.4966 104.361 19.6103 103.208 19.6157C101.998 19.6184 100.997 19.5264 100.234 19.345C99.5786 19.1907 98.8993 18.9174 98.209 18.5411L107.488 18.5114C107.217 18.8172 106.754 19.0689 106.102 19.2611Z" fill="#FFDB31"/>
<path d="M74.0059 11.1515V18.909C74.0059 20.7902 75.1481 22.5658 77.1863 24.1465C77.4894 24.3874 77.8169 24.6202 78.1553 24.8422C79.035 25.4349 80.0365 25.9844 81.1489 26.5095C81.4683 26.6557 81.7877 26.791 82.1206 26.9372C83.1411 27.373 84.2427 27.7817 85.4256 28.1498C85.7341 28.2553 86.0643 28.3528 86.3973 28.4502C87.4448 28.7696 88.56 29.0592 89.7103 29.3218C90.0297 29.3895 90.3491 29.4652 90.682 29.5329C91.7485 29.7576 92.8528 29.9606 93.9951 30.1446C94.3172 30.1934 94.6366 30.2421 94.9668 30.2908C96.0441 30.4451 97.1484 30.5804 98.2717 30.6887C98.5911 30.7266 98.9132 30.7564 99.2434 30.7753C100.329 30.8809 101.433 30.9594 102.559 31.0081C102.879 31.027 103.209 31.046 103.528 31.0568C104.624 31.1055 105.731 31.1245 106.844 31.1245H106.971C107.253 31.1245 107.531 31.1245 107.813 31.1164C108.928 31.1164 110.035 31.0758 111.121 31.0189C111.451 31.0189 111.77 31 112.092 30.9702C113.216 30.9133 114.323 30.824 115.405 30.7185C115.738 30.6887 116.055 30.6589 116.377 30.6102C117.511 30.4938 118.618 30.3476 119.693 30.1825C120.02 30.1365 120.342 30.0797 120.664 30.0201C121.796 29.8334 122.903 29.6114 123.969 29.3786C124.3 29.3002 124.619 29.2325 124.941 29.1459C126.094 28.8725 127.209 28.5639 128.257 28.2337C128.584 28.1362 128.904 28.028 129.223 27.9224C130.417 27.5137 131.524 27.0779 132.542 26.6232C132.88 26.4689 133.202 26.3146 133.511 26.1495C134.794 25.508 135.895 24.8286 136.818 24.1005C137.167 23.8244 137.495 23.5375 137.787 23.2506C139.176 21.9027 139.942 20.4383 139.942 18.9063C139.942 16.7626 139.942 11.1488 139.942 11.1488H74.0059V11.1515Z" fill="#DE7A00"/>
<path d="M106.965 0C88.7598 0 74 4.99392 74 11.1517C74 17.3095 88.7598 22.3008 106.965 22.3008C125.173 22.3008 139.933 17.3095 139.933 11.1517C139.933 4.99122 125.173 0 106.965 0Z" fill="#FEC833"/>
<path d="M139.927 11.1763C139.927 12.9384 138.717 14.6057 136.562 16.0863C134.142 17.7482 137.91 14.5218 137.91 11.4659C137.91 5.30806 121.862 0.806785 103.656 0.806785C96.5106 0.806785 91.1215 1.25339 95.7771 0.684979C99.2715 0.260022 103.037 0.0245361 106.961 0.0245361C125.167 0.0245361 139.927 5.01846 139.927 11.1763Z" fill="#FFFBDC"/>
<path d="M106.964 2.13025C92.2392 2.13025 80.2998 6.16869 80.2998 11.1491C80.2998 16.1295 92.2392 20.1679 106.964 20.1679C121.691 20.1679 133.628 16.1295 133.628 11.1491C133.628 6.16869 121.691 2.13025 106.964 2.13025Z" stroke="#E38F2F" stroke-width="0.563893" stroke-miterlimit="10"/>
<path d="M99.3778 7.00758C97.0744 7.0157 95.2392 7.70862 93.6855 8.23914C92.2293 8.73718 90.34 8.8238 90.34 8.8238L84.6396 9.0241C84.6396 9.0241 84.6396 10.5074 84.6396 10.8295C84.6396 11.1191 85.2487 11.4223 86.2637 11.4223C87.341 11.4223 88.7837 11.4168 89.777 11.4141C89.9097 12.4914 91.8531 13.7203 92.8356 14.2021C93.5881 14.5675 94.6221 14.6406 95.675 14.5269C96.7739 14.4132 97.8404 14.1885 98.1002 13.6715C98.3411 13.187 97.5453 12.0231 97.5453 12.0231C97.5453 12.0231 94.8792 11.7796 94.8142 11.3952L105.812 11.3573C107.471 12.4779 108.973 13.1897 110.402 13.5335C111.867 13.8881 113.607 14.0586 115.575 14.0559C117.922 14.0478 119.965 13.7663 121.657 13.2168C123.243 12.7052 124.231 12.0583 124.602 11.2977C125.3 11.2896 127.512 11.3302 129.049 11.3302C130.424 11.3302 130.332 8.93206 130.332 8.93206C130.332 8.93206 129.477 8.9483 128.161 8.9483C127.265 8.9483 125.622 8.9456 124.759 8.9483C124.61 7.97388 124.18 8.6262 123.319 8.13628C122.602 7.72486 118.355 6.2876 118.355 6.2876C118.355 6.2876 118.355 8.00636 118.355 8.09027C118.355 8.16335 118.428 8.24184 118.574 8.32034C119.686 8.91853 119.424 9.17838 119.424 9.17838H109.942C109.942 9.17838 106.142 8.44757 104.683 8.04697C103.162 7.62743 101.297 7.00217 99.3778 7.00758Z" fill="#E38F2F"/>
<path d="M99.4952 5.62449C97.1944 5.63261 95.2375 5.90599 93.6838 6.43651C92.2276 6.93455 91.264 7.61665 90.8282 8.46927C89.8781 8.46927 87.5071 8.48009 86.2403 8.48009C85.2984 8.48009 84.6406 8.70475 84.6406 9.02415C84.6406 9.31918 85.2496 9.61963 86.2647 9.61963C87.3419 9.61963 89.6183 9.6115 90.6117 9.60879C90.7443 10.6834 91.8514 11.9176 92.8366 12.3994C93.5891 12.7648 95.5 12.773 96.553 12.662C97.6546 12.5456 98.066 12.2641 97.5436 12.0232C96.6152 11.5901 96.1226 11.3303 95.6029 10.8349C95.1454 10.3965 94.8802 9.97962 94.8125 9.59526L105.81 9.56007C107.469 10.678 108.971 11.3925 110.401 11.7336C111.865 12.0855 113.605 12.2587 115.573 12.2533C117.92 12.2452 119.963 11.9636 121.655 11.4169C123.241 10.9053 124.229 10.2584 124.6 9.49511C125.298 9.49241 126.79 9.48699 128.327 9.48699C129.702 9.48699 130.33 9.19737 130.33 8.93211C130.33 8.6479 129.621 8.34475 128.306 8.34475C127.412 8.34475 125.575 8.35557 124.714 8.35557C124.565 7.38115 124.175 6.82357 123.317 6.33095C122.603 5.92223 120.51 5.81395 119.384 5.91681C118.456 6.00342 118.353 6.20374 118.353 6.28764C118.353 6.36073 118.426 6.44192 118.569 6.51771C119.685 7.1159 120.334 7.74115 120.505 8.37181L109.153 8.40971C107.607 7.35409 106.14 6.64492 104.681 6.24433C103.16 5.82749 101.42 5.61908 99.4952 5.62449ZM104.034 8.42595L95.0805 8.45572C95.7193 7.65994 97.0835 7.27289 99.2191 7.26477C100.968 7.25665 102.584 7.64641 104.034 8.42595ZM118.9 10.2611C118.104 10.4966 117.159 10.6103 116.006 10.6157C114.796 10.6184 113.795 10.5264 113.032 10.345C112.377 10.1907 111.697 9.91736 111.007 9.54112L120.286 9.51135C120.015 9.81721 119.552 10.0689 118.9 10.2611Z" fill="#FFDB31"/>
<path d="M42.8438 68.3252L49.0178 73.0214C50.5119 74.1609 52.6205 74.3233 55.1107 73.6629C55.4842 73.5681 55.8685 73.449 56.2529 73.3137C57.2571 72.9699 58.3046 72.5098 59.3954 71.9387C59.704 71.7736 60.0071 71.6003 60.3211 71.4271C61.2874 70.8803 62.2808 70.2497 63.2904 69.5297C63.5611 69.3483 63.8399 69.1426 64.1159 68.9396C65.0038 68.3008 65.9132 67.5917 66.8173 66.8284C67.0636 66.6172 67.3207 66.4088 67.5751 66.1869C68.398 65.4723 69.2263 64.7171 70.0708 63.9186C70.3008 63.6913 70.5336 63.4666 70.7745 63.2365C71.5459 62.4732 72.3228 61.6775 73.0915 60.8465C73.3161 60.6137 73.5327 60.3782 73.7492 60.1265C74.4909 59.3253 75.2217 58.4916 75.9444 57.6282C76.1501 57.3873 76.3666 57.1356 76.5669 56.8865C77.2707 56.0447 77.9555 55.1759 78.6294 54.2881L78.7079 54.1906C78.8785 53.966 79.0463 53.7413 79.2114 53.5113C79.8827 52.6262 80.5242 51.7221 81.1359 50.8235C81.3362 50.5636 81.5121 50.2929 81.6853 50.0223C82.3187 49.0939 82.9196 48.1573 83.4907 47.2316C83.6694 46.9501 83.8426 46.6795 83.9915 46.3952C84.587 45.4208 85.1391 44.4545 85.6615 43.4963C85.8212 43.204 85.9701 42.9144 86.119 42.6275C86.6576 41.6098 87.1529 40.5974 87.6104 39.6068C87.7484 39.2982 87.8892 39.0032 88.0137 38.6946C88.4955 37.6119 88.9258 36.5373 89.2967 35.5034C89.4212 35.184 89.5294 34.8646 89.6377 34.5452C90.0383 33.3515 90.3577 32.2039 90.6148 31.1212C90.696 30.7558 90.7664 30.4066 90.8233 30.0601C91.0885 28.6526 91.2184 27.3642 91.1968 26.1895C91.186 25.7429 91.1616 25.3098 91.1048 24.9011C90.8747 22.982 90.1709 21.4852 88.9502 20.5568C87.2477 19.2603 82.7816 15.8579 82.7816 15.8579L42.8438 68.3252Z" fill="#DE7A00"/>
<path d="M53.9326 35.3439C42.9053 49.8276 37.9385 64.5955 42.8377 68.3254C47.7369 72.0553 60.648 63.3315 71.6779 48.8451C82.7024 34.3587 87.6693 19.588 82.7701 15.8609C77.8682 12.1337 64.9598 20.8548 53.9326 35.3439Z" fill="#FEC833"/>
<path d="M82.7868 15.8822C84.1889 16.9487 84.7817 18.9219 84.6572 21.5339C84.5137 24.4652 84.2295 19.5146 81.7962 17.6605C76.897 13.9306 63.5934 23.978 52.5689 38.4644C48.2408 44.1486 45.3311 48.7121 47.7022 44.6602C49.4751 41.6232 51.5701 38.4861 53.9493 35.3625C64.9765 20.8734 77.8903 12.1523 82.7868 15.8822Z" fill="#FFFBDC"/>
<path d="M55.6306 36.6324C46.712 48.3525 42.6925 60.2946 46.6578 63.3126C50.6205 66.3279 61.0657 59.2742 69.9817 47.5567C78.8977 35.8393 82.9199 23.8945 78.9545 20.8765C74.9919 17.8612 64.5466 24.9149 55.6306 36.6324Z" stroke="#E38F2F" stroke-width="0.563893" stroke-miterlimit="10"/>
<path d="M54.9096 45.6268C53.5183 47.4647 52.958 49.3431 52.4384 50.9022C51.9511 52.3611 50.882 53.9175 50.882 53.9175L47.5879 58.5785C47.5879 58.5785 48.7653 59.4744 49.0225 59.6693C49.2552 59.8452 49.8615 59.5448 50.4814 58.7355C51.131 57.8802 52.0026 56.7271 52.6008 55.934C53.5373 56.4808 55.6946 55.6796 56.6717 55.187C57.4214 54.8134 58.1008 54.0312 58.6476 53.1244C59.2241 52.1798 59.6924 51.1945 59.438 50.6775C59.1971 50.193 57.7896 50.12 57.7896 50.12C57.7896 50.12 55.9815 52.0986 55.6323 51.9199L62.2665 43.142C64.1639 42.5005 65.6391 41.7372 66.7759 40.8088C67.9425 39.8587 69.1362 38.5812 70.3271 37.0085C71.7373 35.1382 72.7578 33.3409 73.3451 31.6628C73.8973 30.0901 73.9812 28.91 73.5996 28.1548C74.0191 27.5973 75.3887 25.8568 76.3171 24.6361C77.1508 23.5399 75.1857 22.1594 75.1857 22.1594C75.1857 22.1594 74.6796 22.8523 73.8865 23.8971C73.3424 24.609 72.3436 25.9191 71.8212 26.6066C70.9605 26.1302 71.2176 26.8718 70.3028 27.2589C69.5449 27.5783 65.8258 30.0901 65.8258 30.0901C65.8258 30.0901 67.1954 31.1295 67.2604 31.1783C67.32 31.227 67.4255 31.2134 67.5744 31.1458C68.7275 30.6234 68.7762 30.9888 68.7762 30.9888L63.0325 38.5351C63.0325 38.5351 60.1498 41.1147 58.948 42.0322C57.6975 42.9904 56.0654 44.0921 54.9096 45.6268Z" fill="#E38F2F"/>
<path d="M53.8815 44.6958C52.4929 46.5309 51.5239 48.2524 51.0069 49.8115C50.5197 51.2731 50.4791 52.4506 50.8905 53.314C50.3194 54.0719 48.893 55.9666 48.127 56.9762C47.5531 57.726 47.3339 58.3864 47.5883 58.5813C47.8184 58.7545 48.4274 58.4568 49.0473 57.6448C49.6969 56.7921 51.0692 54.9732 51.6701 54.1829C52.6039 54.7296 54.2604 54.5916 55.2376 54.1044C55.9873 53.7254 57.1512 52.2097 57.7007 51.3056C58.2745 50.3583 58.3016 49.8602 57.79 50.1255C56.8832 50.6046 56.3771 50.8401 55.6706 50.951C55.0427 51.0512 54.55 51.0106 54.2009 50.8319L60.8351 42.0594C62.7325 41.4179 64.2077 40.6546 65.3418 39.7262C66.5084 38.7762 67.7048 37.4959 68.893 35.9233C70.3059 34.0529 71.3209 32.2529 71.911 30.5775C72.4632 29.0049 72.5498 27.8274 72.1654 27.0695C72.585 26.512 73.4836 25.3183 74.4175 24.0975C75.2484 23.0013 75.3973 22.3301 75.1889 22.1677C74.9615 21.9944 74.2956 22.3788 73.4972 23.4263C72.9558 24.1409 71.8488 25.6052 71.3291 26.2927C70.4656 25.819 69.7862 25.792 68.8714 26.1763C68.1135 26.4957 66.7574 28.0954 66.1592 29.0563C65.6639 29.8494 65.764 30.047 65.829 30.0984C65.8885 30.1444 65.9941 30.1309 66.143 30.0659C67.296 29.5381 68.1838 29.4 68.7929 29.6491L61.9475 38.7031C60.1692 39.2958 58.7157 40.0321 57.5139 40.9497C56.2634 41.8997 55.0427 43.1611 53.8815 44.6958ZM58.8592 42.7767L53.4619 49.9171C53.2183 48.9264 53.7299 47.6082 55.0183 45.903C56.0739 44.5117 57.365 43.4588 58.8592 42.7767ZM69.3261 32.0662C69.0283 32.8403 68.5466 33.6631 67.8536 34.5834C67.1255 35.547 66.4461 36.2887 65.8398 36.784C65.3174 37.2117 64.6922 37.5879 63.9749 37.91L69.567 30.5071C69.6455 30.9023 69.5643 31.4274 69.3261 32.0662Z" fill="#FFDB31"/>
<path d="M89.9527 84.2753L80.6254 90.9006L9.66406 30.1685L31.7507 27.5632C32.3233 27.4961 32.9019 27.4849 33.4765 27.5327L90.2008 32.1658C93.1112 32.4038 95.2976 34.9237 95.1237 37.8382L92.6272 79.4561C92.5112 81.3852 91.5279 83.1567 89.9527 84.2753Z" fill="#002247"/>
<path d="M87.22 42.1991L83.1248 86.344C82.9764 87.9558 82.2533 89.3805 81.1723 90.432C79.8971 91.6757 78.1256 92.3988 76.2117 92.2889L6.56533 88.3107C2.96235 88.1053 0.202405 85.0301 0.383418 81.4231L2.66134 36.3853C2.73557 34.9606 3.25319 33.6711 4.07894 32.6369C5.37552 31.0037 7.42362 30.0153 9.66595 30.1678L81.1306 35.043C84.8109 35.2941 87.5597 38.5249 87.22 42.1991Z" fill="#2F76FC"/>
<path d="M67.7995 33.7575C69.1612 33.7575 70.3591 32.769 70.5788 31.3809L71.7005 24.2909C71.975 22.554 71.495 20.7754 70.3856 19.4107C69.2761 18.046 67.6307 17.2151 65.8745 17.1317L43.137 16.0456C39.9184 15.9155 37.0771 18.2819 36.6886 21.4913L35.9035 27.9681C35.7164 29.5128 36.8167 30.9162 38.3604 31.1033C39.9143 31.2945 41.3085 30.1911 41.4956 28.6454L42.2797 22.1686C42.3153 21.8788 42.5766 21.6347 42.8654 21.6744L65.603 22.7604C65.8114 22.7696 65.9416 22.8784 66.0138 22.9669C66.087 23.0564 66.1653 23.2058 66.1338 23.4113L65.0121 30.5023C64.7691 32.0389 65.8186 33.4819 67.3541 33.725C67.5056 33.7463 67.6531 33.7575 67.7995 33.7575Z" fill="#F4BA2B"/>
<path d="M46.1359 76.2425L35.1357 75.8194L35.6778 46.5227L46.2915 46.9976L46.1359 76.2425Z" fill="white"/>
<path d="M25.5156 65.6605L25.838 55.0641L55.5303 56.3332L55.5944 66.8788L25.5156 65.6605Z" fill="white"/>
</svg>
