<svg width="170" height="190" viewBox="0 0 170 190" fill="none" xmlns="http://www.w3.org/2000/svg">
<path d="M47.5632 68.5025C57.2177 58.5292 115.477 54.688 126.789 68.5025C138.102 82.3187 139.993 155.21 139.993 160.359C139.993 166.542 116.348 171.553 87.1785 171.553C58.0093 171.553 34.3604 166.542 34.3604 160.359C34.3586 155.21 37.9052 78.4757 47.5632 68.5025Z" fill="#BBE0FA"/>
<path d="M34.3584 160.359C34.3584 166.542 58.009 171.553 87.1766 171.553C116.346 171.553 139.991 166.542 139.991 160.359C139.991 154.179 116.346 149.164 87.1766 149.164C58.0073 149.164 34.3584 154.179 34.3584 160.359Z" fill="#79BDD1"/>
<path d="M60.5596 153.685V159.337C60.5596 160.708 61.394 162 62.876 163.151C63.0953 163.329 63.3351 163.497 63.5836 163.66C64.2261 164.09 64.9542 164.495 65.7681 164.875C66.0011 164.981 66.2341 165.079 66.4739 165.187C67.2158 165.504 68.0211 165.8 68.8829 166.069C69.1107 166.146 69.3489 166.216 69.5905 166.287C70.3529 166.518 71.1667 166.732 72.0063 166.922C72.2375 166.972 72.4706 167.029 72.7121 167.08C73.49 167.243 74.2952 167.39 75.1296 167.525C75.3609 167.561 75.5957 167.594 75.8355 167.63C76.6185 167.743 77.4255 167.842 78.2444 167.923C78.4775 167.95 78.7105 167.973 78.952 167.985C79.7436 168.063 80.5489 168.12 81.3678 168.154C81.6008 168.168 81.8407 168.183 82.0737 168.188C82.8721 168.224 83.6774 168.24 84.4895 168.24H84.582C84.7859 168.24 84.9915 168.24 85.1971 168.231C86.0109 168.231 86.8145 168.202 87.606 168.161C87.8459 168.161 88.0789 168.147 88.3119 168.127C89.1326 168.084 89.9378 168.021 90.7277 167.943C90.9675 167.923 91.2023 167.901 91.4336 167.866C92.2611 167.779 93.0664 167.673 93.8493 167.554C94.0892 167.52 94.3222 167.477 94.5552 167.435C95.3811 167.299 96.188 167.138 96.9659 166.969C97.2057 166.912 97.4388 166.864 97.6718 166.799C98.5113 166.602 99.3251 166.376 100.088 166.136C100.327 166.067 100.56 165.989 100.793 165.91C101.662 165.613 102.467 165.295 103.209 164.962C103.458 164.849 103.689 164.736 103.915 164.616C104.847 164.15 105.654 163.655 106.324 163.126C106.578 162.922 106.819 162.716 107.032 162.504C108.042 161.524 108.599 160.456 108.599 159.341C108.599 157.778 108.599 153.689 108.599 153.689H60.5596V153.685Z" fill="#DE7A00"/>
<path d="M84.5749 145.559C71.3087 145.559 60.5576 149.198 60.5576 153.684C60.5576 158.169 71.3104 161.806 84.5749 161.806C97.8394 161.806 108.59 158.169 108.59 153.684C108.592 149.198 97.8394 145.559 84.5749 145.559Z" fill="#FEC833"/>
<path d="M108.589 153.701C108.589 154.986 107.707 156.2 106.137 157.278C104.376 158.491 107.121 156.14 107.121 153.913C107.121 149.426 95.4256 146.148 82.1628 146.148C76.9577 146.148 73.0308 146.472 76.4232 146.059C78.9674 145.749 81.7122 145.578 84.5717 145.578C97.8345 145.578 108.589 149.215 108.589 153.701Z" fill="#FFFBDC"/>
<path d="M84.5748 147.113C73.8443 147.113 65.1475 150.055 65.1475 153.683C65.1475 157.311 73.846 160.252 84.5748 160.252C95.3019 160.252 104 157.311 104 153.683C104 150.055 95.3019 147.113 84.5748 147.113Z" stroke="#E38F2F" stroke-width="0.410837" stroke-miterlimit="10"/>
<path d="M79.0438 150.665C77.3664 150.672 76.0283 151.175 74.8958 151.562C73.8336 151.926 72.4595 151.991 72.4595 151.991L68.3047 152.136C68.3047 152.136 68.3047 153.216 68.3047 153.451C68.3047 153.663 68.7484 153.884 69.4886 153.884C70.2716 153.884 71.3236 153.879 72.0483 153.877C72.1459 154.66 73.5594 155.558 74.2756 155.907C74.8239 156.176 75.5777 156.226 76.3453 156.147C77.1488 156.06 77.9233 155.899 78.1117 155.524C78.2882 155.169 77.7074 154.319 77.7074 154.319C77.7074 154.319 75.7645 154.144 75.7165 153.862L83.7297 153.836C84.9376 154.652 86.0324 155.171 87.0724 155.419C88.1381 155.678 89.4076 155.805 90.8434 155.801C92.5516 155.796 94.0422 155.59 95.274 155.191C96.4288 154.816 97.1501 154.345 97.4191 153.79C97.928 153.786 99.5402 153.815 100.661 153.815C101.663 153.815 101.594 152.068 101.594 152.068C101.594 152.068 100.971 152.078 100.011 152.078C99.3586 152.078 98.1627 152.075 97.5322 152.078C97.426 151.369 97.109 151.843 96.4819 151.484C95.9628 151.187 92.8668 150.139 92.8668 150.139C92.8668 150.139 92.8668 151.391 92.8668 151.453C92.8668 151.506 92.9199 151.562 93.0262 151.621C93.8383 152.056 93.6464 152.246 93.6464 152.246H86.7366C86.7366 152.246 83.9696 151.713 82.9073 151.422C81.8005 151.117 80.4418 150.661 79.0438 150.665Z" fill="#E38F2F"/>
<path d="M79.1334 149.659C77.4543 149.664 76.0288 149.863 74.8946 150.25C73.8323 150.611 73.1333 151.108 72.8129 151.73C72.1225 151.732 70.3954 151.74 69.4702 151.74C68.7832 151.74 68.3018 151.903 68.3018 152.135C68.3018 152.349 68.7455 152.57 69.4857 152.57C70.2686 152.57 71.9289 152.563 72.6536 152.561C72.7478 153.344 73.5565 154.245 74.2727 154.595C74.8209 154.862 76.2139 154.869 76.9814 154.788C77.785 154.703 78.0848 154.499 77.7044 154.321C77.0277 154.006 76.6679 153.819 76.291 153.457C75.9552 153.137 75.7615 152.835 75.7136 152.553L83.7268 152.525C84.9347 153.341 86.0295 153.86 87.0677 154.11C88.1351 154.367 89.4047 154.496 90.8387 154.489C92.5469 154.485 94.0375 154.278 95.2694 153.88C96.4259 153.507 97.1455 153.034 97.4162 152.477C97.925 152.476 99.0113 152.472 100.132 152.472C101.134 152.472 101.592 152.261 101.592 152.069C101.592 151.86 101.074 151.643 100.116 151.643C99.4636 151.643 98.1272 151.648 97.4967 151.651C97.3905 150.94 97.1078 150.534 96.4807 150.175C95.9616 149.876 94.4367 149.798 93.616 149.873C92.9376 149.936 92.8656 150.08 92.8656 150.142C92.8656 150.197 92.9187 150.253 93.0249 150.31C93.8371 150.745 94.3082 151.199 94.4333 151.662L86.1648 151.689C85.0357 150.92 83.9683 150.404 82.9061 150.111C81.801 149.804 80.5314 149.654 79.1334 149.659ZM82.4401 151.696L75.9157 151.718C76.3818 151.139 77.3721 150.856 78.9312 150.851C80.2042 150.85 81.3829 151.132 82.4401 151.696ZM93.2648 153.037C92.6857 153.207 91.9969 153.289 91.1574 153.293C90.2751 153.294 89.5469 153.229 88.9918 153.096C88.5138 152.979 88.0203 152.784 87.5149 152.51L94.2757 152.488C94.0821 152.714 93.7428 152.899 93.2648 153.037Z" fill="#FFDB31"/>
<path d="M63.9365 144.815V150.466C63.9365 151.836 64.7709 153.13 66.2546 154.281C66.4739 154.458 66.7138 154.629 66.9605 154.79C67.603 155.22 68.3312 155.625 69.145 156.007C69.378 156.111 69.611 156.212 69.8509 156.317C70.5928 156.634 71.398 156.932 72.2615 157.199C72.486 157.278 72.7258 157.348 72.9674 157.42C73.7299 157.653 74.5437 157.866 75.3832 158.054C75.6145 158.104 75.8492 158.162 76.0908 158.21C76.8669 158.373 77.6722 158.522 78.5049 158.655C78.7379 158.691 78.9709 158.726 79.2108 158.76C79.9955 158.875 80.8007 158.972 81.6214 159.051C81.8527 159.08 82.0857 159.101 82.3273 159.115C83.1171 159.192 83.9241 159.248 84.7448 159.284C84.9778 159.298 85.2177 159.312 85.4507 159.319C86.2491 159.355 87.0543 159.368 87.8664 159.368H87.9573C88.1646 159.368 88.3702 159.368 88.574 159.361C89.3862 159.361 90.1914 159.332 90.9847 159.291C91.2245 159.291 91.4576 159.277 91.6906 159.257C92.5113 159.214 93.3165 159.151 94.1064 159.072C94.3479 159.051 94.5792 159.031 94.8122 158.995C95.6398 158.911 96.4433 158.805 97.228 158.685C97.4679 158.649 97.7009 158.606 97.9356 158.563C98.7614 158.429 99.5667 158.267 100.345 158.097C100.584 158.04 100.817 157.991 101.052 157.927C101.892 157.73 102.705 157.504 103.468 157.264C103.708 157.194 103.939 157.115 104.172 157.036C105.042 156.74 105.848 156.421 106.588 156.091C106.836 155.978 107.069 155.863 107.295 155.745C108.229 155.279 109.033 154.783 109.704 154.254C109.96 154.048 110.198 153.844 110.41 153.632C111.421 152.65 111.98 151.583 111.98 150.468C111.98 148.908 111.98 144.817 111.98 144.817H63.9365V144.815Z" fill="#DE7A00"/>
<path d="M87.9536 136.691C74.6874 136.691 63.9346 140.33 63.9346 144.815C63.9346 149.301 74.6874 152.936 87.9536 152.936C101.218 152.936 111.971 149.301 111.971 144.815C111.971 140.328 101.218 136.691 87.9536 136.691Z" fill="#FEC833"/>
<path d="M111.968 144.832C111.968 146.116 111.086 147.33 109.517 148.408C107.754 149.619 110.498 147.27 110.498 145.041C110.498 140.556 98.805 137.277 85.5405 137.277C80.3354 137.277 76.4068 137.602 79.8008 137.187C82.3451 136.877 85.0881 136.709 87.9494 136.709C101.214 136.709 111.968 140.347 111.968 144.832Z" fill="#FFFBDC"/>
<path d="M87.9527 138.243C77.2239 138.243 68.5254 141.185 68.5254 144.813C68.5254 148.442 77.2239 151.384 87.9527 151.384C98.6815 151.384 107.378 148.442 107.378 144.813C107.378 141.185 98.6815 138.243 87.9527 138.243Z" stroke="#E38F2F" stroke-width="0.410837" stroke-miterlimit="10"/>
<path d="M82.4227 141.795C80.7436 141.802 79.4072 142.304 78.2747 142.692C77.2125 143.054 75.8401 143.121 75.8401 143.121L71.6836 143.266C71.6836 143.266 71.6836 144.346 71.6836 144.581C71.6836 144.793 72.1273 145.014 72.8692 145.014C73.6522 145.014 74.7059 145.011 75.4272 145.007C75.5249 145.792 76.9401 146.688 77.6545 147.037C78.2028 147.306 78.9549 147.358 79.7242 147.276C80.526 147.192 81.3022 147.029 81.4906 146.652C81.6654 146.301 81.0846 145.451 81.0846 145.451C81.0846 145.451 79.1417 145.276 79.0937 144.993L87.1086 144.966C88.3165 145.783 89.4113 146.302 90.4496 146.553C91.5153 146.81 92.7848 146.936 94.2206 146.931C95.9288 146.928 97.4193 146.722 98.6512 146.321C99.806 145.949 100.527 145.477 100.798 144.921C101.307 144.918 102.919 144.945 104.038 144.945C105.038 144.945 104.972 143.196 104.972 143.196C104.972 143.196 104.35 143.208 103.392 143.208C102.739 143.208 101.542 143.206 100.913 143.208C100.807 142.499 100.49 142.977 99.8625 142.617C99.3417 142.319 96.2457 141.27 96.2457 141.27C96.2457 141.27 96.2474 142.525 96.2474 142.583C96.2474 142.639 96.3006 142.694 96.4068 142.749C97.2189 143.186 97.027 143.376 97.027 143.376H90.1138C90.1138 143.376 87.3467 142.843 86.2845 142.552C85.1794 142.249 83.8225 141.791 82.4227 141.795Z" fill="#E38F2F"/>
<path d="M82.5105 140.789C80.8315 140.796 79.4077 140.994 78.2735 141.378C77.2113 141.741 76.5122 142.24 76.1918 142.86C75.5014 142.864 73.7743 142.872 72.8474 142.872C72.1621 142.872 71.6807 143.035 71.6807 143.266C71.6807 143.481 72.1244 143.7 72.8663 143.7C73.6493 143.7 75.3095 143.693 76.0308 143.69C76.1284 144.476 76.9371 145.374 77.6533 145.723C78.2016 145.991 79.5928 145.997 80.362 145.915C81.1656 145.829 81.4654 145.626 81.0834 145.449C80.4083 145.136 80.0468 144.945 79.6682 144.584C79.3341 144.263 79.1405 143.959 79.0908 143.679L87.1057 143.652C88.3136 144.467 89.4084 144.987 90.4466 145.238C91.5123 145.495 92.7819 145.622 94.2177 145.617C95.9258 145.612 97.4164 145.406 98.6483 145.007C99.8031 144.634 100.524 144.161 100.795 143.606C101.302 143.602 102.39 143.599 103.509 143.599C104.511 143.599 104.967 143.39 104.967 143.194C104.967 142.989 104.451 142.769 103.492 142.769C102.841 142.769 101.504 142.775 100.874 142.778C100.768 142.067 100.485 141.661 99.8579 141.301C99.337 141.005 97.8139 140.924 96.9915 141C96.3148 141.063 96.2411 141.209 96.2411 141.269C96.2411 141.323 96.2959 141.38 96.4004 141.435C97.2125 141.872 97.6854 142.326 97.8105 142.788L89.5403 142.816C88.4129 142.045 87.3455 141.529 86.2816 141.238C85.1799 140.935 83.9103 140.785 82.5105 140.789ZM85.8173 142.828L79.2947 142.85C79.7607 142.271 80.751 141.988 82.3101 141.983C83.5831 141.98 84.7601 142.264 85.8173 142.828ZM96.6454 144.168C96.068 144.335 95.3776 144.421 94.5398 144.425C93.6574 144.426 92.9275 144.359 92.3741 144.228C91.8944 144.113 91.3992 143.917 90.8955 143.642L97.6563 143.619C97.4593 143.844 97.12 144.029 96.6454 144.168Z" fill="#FFDB31"/>
<path d="M57.7002 136.746V142.398C57.7002 143.767 58.5346 145.061 60.0183 146.212C60.2376 146.387 60.4758 146.558 60.7242 146.719C61.3667 147.151 62.0931 147.553 62.907 147.936C63.14 148.04 63.373 148.139 63.6129 148.246C64.3547 148.563 65.16 148.861 66.0218 149.128C66.2479 149.205 66.4895 149.277 66.7294 149.347C67.4901 149.58 68.3039 149.791 69.1452 149.981C69.3782 150.031 69.6112 150.089 69.851 150.137C70.6272 150.3 71.4324 150.449 72.2668 150.583C72.4998 150.619 72.7328 150.653 72.9727 150.689C73.7574 150.802 74.5627 150.901 75.3834 150.978C75.6147 151.008 75.8494 151.026 76.091 151.043C76.8808 151.119 77.6878 151.177 78.505 151.213C78.738 151.225 78.9796 151.241 79.2109 151.247C80.0093 151.282 80.8146 151.297 81.6284 151.297H81.7209C81.9248 151.297 82.1287 151.297 82.3343 151.289C83.1481 151.289 83.9517 151.261 84.7449 151.218C84.9831 151.218 85.2178 151.205 85.4508 151.182C86.2698 151.141 87.075 151.076 87.8666 151.001C88.1065 150.978 88.3395 150.958 88.5725 150.92C89.3983 150.836 90.2053 150.73 90.9883 150.61C91.2281 150.574 91.4629 150.533 91.6941 150.49C92.5217 150.355 93.3269 150.192 94.1031 150.024C94.3447 149.966 94.576 149.918 94.809 149.853C95.6502 149.656 96.4623 149.43 97.2247 149.19C97.4646 149.118 97.6976 149.041 97.9323 148.964C98.7993 148.667 99.6063 148.348 100.348 148.018C100.595 147.905 100.828 147.792 101.052 147.672C101.986 147.206 102.791 146.711 103.463 146.179C103.717 145.976 103.956 145.77 104.167 145.559C105.178 144.577 105.735 143.51 105.735 142.395C105.735 140.832 105.735 136.742 105.735 136.742H57.7002V136.746Z" fill="#DE7A00"/>
<path d="M81.7153 128.621C68.4508 128.621 57.6963 132.259 57.6963 136.742C57.6963 141.23 68.4508 144.867 81.7153 144.867C94.9798 144.867 105.733 141.23 105.733 136.742C105.733 132.257 94.9798 128.621 81.7153 128.621Z" fill="#FEC833"/>
<path d="M105.73 136.761C105.73 138.044 104.848 139.259 103.277 140.34C101.515 141.551 104.26 139.201 104.26 136.973C104.26 132.488 92.565 129.207 79.3022 129.207C74.0971 129.207 70.1685 129.533 73.5626 129.12C76.1068 128.808 78.8516 128.638 81.7111 128.638C94.9756 128.636 105.73 132.276 105.73 136.761Z" fill="#FFFBDC"/>
<path d="M81.7154 130.172C70.9849 130.172 62.2881 133.114 62.2881 136.742C62.2881 140.371 70.9866 143.315 81.7154 143.315C92.4442 143.315 101.141 140.371 101.141 136.742C101.141 133.115 92.4442 130.172 81.7154 130.172Z" stroke="#E38F2F" stroke-width="0.410837" stroke-miterlimit="10"/>
<path d="M76.1842 133.725C74.5051 133.729 73.1704 134.236 72.0362 134.621C70.974 134.984 69.5999 135.049 69.5999 135.049L65.4434 135.197C65.4434 135.197 65.4434 136.276 65.4434 136.508C65.4434 136.722 65.8871 136.943 66.629 136.943C67.4103 136.943 68.4639 136.938 69.1887 136.934C69.2863 137.719 70.6998 138.613 71.4177 138.966C71.966 139.235 72.7181 139.287 73.4857 139.204C74.2875 139.117 75.0619 138.956 75.2504 138.581C75.4286 138.226 74.8461 137.378 74.8461 137.378C74.8461 137.378 72.9032 137.203 72.8552 136.922L80.8701 136.896C82.0763 137.712 83.1728 138.231 84.2111 138.481C85.2785 138.738 86.5446 138.865 87.9821 138.86C89.6902 138.855 91.1791 138.649 92.4127 138.252C93.5675 137.878 94.2871 137.407 94.5578 136.85C95.0684 136.847 96.6789 136.874 97.7977 136.874C98.8017 136.874 98.7349 135.125 98.7349 135.125C98.7349 135.125 98.1112 135.137 97.1517 135.137C96.499 135.137 95.3031 135.135 94.6726 135.137C94.5646 134.429 94.2511 134.902 93.624 134.544C93.1032 134.246 90.0055 133.197 90.0055 133.197C90.0055 133.197 90.0055 134.448 90.0055 134.51C90.0055 134.563 90.0603 134.619 90.1648 134.678C90.9787 135.113 90.7868 135.303 90.7868 135.303H83.877C83.877 135.303 81.1082 134.77 80.0443 134.479C78.9426 134.179 77.5822 133.722 76.1842 133.725Z" fill="#E38F2F"/>
<path d="M76.2735 132.719C74.5961 132.723 73.1707 132.923 72.0364 133.309C70.9742 133.674 70.2752 134.171 69.9548 134.791C69.266 134.794 67.5373 134.801 66.6121 134.801C65.925 134.801 65.4453 134.962 65.4453 135.197C65.4453 135.409 65.8891 135.63 66.6309 135.63C67.4122 135.63 69.0724 135.623 69.7954 135.618C69.8931 136.403 70.7018 137.304 71.4197 137.654C71.9679 137.921 73.3591 137.926 74.1267 137.844C74.9285 137.76 75.2284 137.556 74.848 137.378C74.173 137.063 73.8114 136.874 73.4328 136.513C73.1004 136.192 72.9051 135.891 72.8554 135.608L80.8703 135.579C82.0765 136.396 83.173 136.917 84.2113 137.165C85.277 137.422 86.5448 137.551 87.9823 137.546C89.6888 137.539 91.1794 137.335 92.4129 136.936C93.5677 136.562 94.2873 136.091 94.558 135.534C95.0669 135.531 96.1548 135.526 97.2736 135.526C98.2759 135.526 98.7351 135.317 98.7351 135.123C98.7351 134.918 98.2177 134.698 97.2599 134.698C96.6072 134.698 95.2708 134.703 94.6403 134.707C94.5357 133.994 94.2479 133.59 93.6243 133.232C93.1034 132.934 91.5786 132.851 90.7596 132.93C90.0811 132.992 90.0075 133.137 90.0075 133.197C90.0075 133.252 90.0623 133.307 90.1668 133.364C90.9806 133.799 91.4535 134.254 91.5751 134.715L83.3067 134.744C82.1793 133.975 81.1119 133.458 80.0479 133.167C78.9428 132.865 77.6733 132.714 76.2735 132.719ZM79.5785 134.758L73.0542 134.78C73.5219 134.2 74.5122 133.915 76.0713 133.912C77.346 133.908 78.5231 134.193 79.5785 134.758ZM90.4049 136.098C89.8258 136.266 89.1371 136.352 88.2993 136.355C87.4169 136.357 86.6887 136.29 86.1336 136.158C85.6539 136.043 85.1605 135.848 84.6568 135.572L91.4175 135.55C91.2222 135.774 90.883 135.958 90.4049 136.098Z" fill="#FFDB31"/>
<path d="M63.583 129.505V135.156C63.583 136.526 64.4174 137.82 65.8994 138.971C66.1204 139.148 66.3603 139.317 66.6087 139.48C67.2512 139.912 67.9777 140.315 68.7898 140.695C69.0228 140.801 69.2558 140.901 69.4974 141.007C70.2392 141.324 71.0445 141.62 71.908 141.889C72.1325 141.966 72.3723 142.036 72.6139 142.108C73.3763 142.34 74.1884 142.552 75.0297 142.744C75.261 142.794 75.4957 142.85 75.7356 142.9C76.5134 143.061 77.3187 143.21 78.1514 143.345C78.3861 143.381 78.6174 143.416 78.8572 143.452C79.6419 143.563 80.4489 143.664 81.2662 143.741C81.5009 143.77 81.7322 143.791 81.9738 143.805C82.7653 143.882 83.5689 143.938 84.3895 143.974C84.6208 143.988 84.8607 144.003 85.0954 144.008C85.8938 144.044 86.6991 144.06 87.5095 144.06H87.6037C87.8076 144.06 88.0115 144.06 88.2188 144.051C89.0309 144.051 89.8345 144.022 90.626 143.983C90.8659 143.983 91.0989 143.967 91.3319 143.947C92.1526 143.904 92.9561 143.841 93.7494 143.763C93.9876 143.743 94.2223 143.722 94.4536 143.686C95.2811 143.601 96.0847 143.494 96.8694 143.375C97.1092 143.34 97.3422 143.296 97.5753 143.253C98.4011 143.121 99.208 142.957 99.9842 142.787C100.224 142.73 100.457 142.681 100.69 142.619C101.531 142.42 102.343 142.194 103.106 141.954C103.346 141.884 103.579 141.805 103.81 141.728C104.68 141.432 105.486 141.113 106.228 140.781C106.474 140.668 106.707 140.556 106.935 140.435C107.867 139.968 108.672 139.475 109.342 138.944C109.599 138.74 109.837 138.534 110.052 138.324C111.061 137.342 111.619 136.273 111.619 135.159C111.619 133.598 111.619 129.509 111.619 129.509H63.583V129.505Z" fill="#DE7A00"/>
<path d="M87.5984 121.379C74.3338 121.379 63.5811 125.016 63.5811 129.504C63.5811 133.989 74.3338 137.626 87.5984 137.626C100.865 137.626 111.617 133.989 111.617 129.504C111.617 125.016 100.865 121.379 87.5984 121.379Z" fill="#FEC833"/>
<path d="M111.612 129.521C111.612 130.806 110.73 132.019 109.16 133.098C107.399 134.309 110.142 131.959 110.142 129.733C110.142 125.246 98.4502 121.968 85.184 121.968C79.9789 121.968 76.0503 122.292 79.4444 121.878C81.9904 121.567 84.7317 121.4 87.5929 121.4C100.859 121.398 111.612 125.037 111.612 129.521Z" fill="#FFFBDC"/>
<path d="M87.5975 122.933C76.8687 122.933 68.1719 125.875 68.1719 129.504C68.1719 133.132 76.8704 136.072 87.5975 136.072C98.3263 136.072 107.027 133.132 107.027 129.504C107.027 125.875 98.3263 122.933 87.5975 122.933Z" stroke="#E38F2F" stroke-width="0.410837" stroke-miterlimit="10"/>
<path d="M82.0674 126.485C80.3901 126.492 79.052 126.995 77.9212 127.381C76.859 127.744 75.4849 127.809 75.4849 127.809L71.3301 127.953C71.3301 127.953 71.3301 129.034 71.3301 129.267C71.3301 129.481 71.7721 129.701 72.514 129.701C73.297 129.701 74.3489 129.695 75.0737 129.692C75.1713 130.477 76.5848 131.373 77.301 131.722C77.851 131.991 78.6031 132.041 79.369 131.962C80.1708 131.877 80.9469 131.714 81.1354 131.339C81.3119 130.986 80.7293 130.136 80.7293 130.136C80.7293 130.136 78.7882 129.961 78.7385 129.68L86.7517 129.654C87.9595 130.47 89.0544 130.989 90.0926 131.239C91.16 131.496 92.4279 131.623 93.8636 131.62C95.5718 131.614 97.0624 131.409 98.2943 131.01C99.4491 130.636 100.169 130.163 100.441 129.608C100.948 129.606 102.56 129.634 103.679 129.634C104.682 129.634 104.613 127.885 104.613 127.885C104.613 127.885 103.991 127.895 103.033 127.895C102.381 127.895 101.181 127.895 100.552 127.895C100.446 127.185 100.129 127.662 99.5022 127.304C98.983 127.006 95.8871 125.957 95.8871 125.957C95.8871 125.957 95.8871 127.209 95.8871 127.269C95.8871 127.324 95.9402 127.379 96.0464 127.436C96.8585 127.873 96.6666 128.063 96.6666 128.063H89.7568C89.7568 128.063 86.9915 127.53 85.9258 127.237C84.8259 126.937 83.4672 126.48 82.0674 126.485Z" fill="#E38F2F"/>
<path d="M82.158 125.477C80.479 125.482 79.0535 125.683 77.921 126.068C76.8587 126.43 76.158 126.928 75.8393 127.547C75.1471 127.55 73.4218 127.557 72.4966 127.557C71.8096 127.557 71.3281 127.72 71.3281 127.951C71.3281 128.165 71.7702 128.388 72.512 128.388C73.295 128.388 74.9552 128.38 75.6782 128.376C75.7759 129.161 76.5829 130.059 77.299 130.412C77.849 130.677 79.2402 130.684 80.0061 130.603C80.8096 130.519 81.1095 130.314 80.7274 130.137C80.0523 129.824 79.6925 129.635 79.3139 129.272C78.9798 128.954 78.7862 128.649 78.7382 128.368L86.7514 128.342C87.9593 129.159 89.0541 129.677 90.0924 129.927C91.1598 130.182 92.4276 130.31 93.8634 130.305C95.5716 130.3 97.0622 130.095 98.2958 129.697C99.4505 129.322 100.17 128.851 100.443 128.296C100.95 128.292 102.038 128.287 103.156 128.287C104.159 128.287 104.614 128.076 104.614 127.884C104.614 127.677 104.099 127.458 103.141 127.458C102.488 127.458 101.152 127.461 100.523 127.465C100.417 126.754 100.132 126.348 99.5054 125.989C98.9862 125.691 97.4614 125.611 96.6407 125.686C95.9622 125.748 95.8903 125.895 95.8903 125.955C95.8903 126.01 95.9434 126.067 96.0496 126.121C96.8617 126.56 97.3346 127.012 97.4579 127.475L89.1878 127.502C88.0604 126.733 86.9947 126.217 85.929 125.924C84.8256 125.625 83.5544 125.472 82.158 125.477ZM85.463 127.518L78.9387 127.538C79.4064 126.961 80.395 126.676 81.9558 126.671C83.2271 126.668 84.4059 126.952 85.463 127.518ZM96.2912 128.858C95.7121 129.027 95.0233 129.111 94.1838 129.116C93.3014 129.118 92.5716 129.051 92.0182 128.918C91.5401 128.803 91.045 128.606 90.5413 128.332L97.302 128.309C97.105 128.534 96.7675 128.717 96.2912 128.858Z" fill="#FFDB31"/>
<path opacity="0.3" d="M47.5632 68.5025C57.2177 58.5292 115.477 54.688 126.789 68.5025C138.102 82.3187 139.993 155.21 139.993 160.359C139.993 166.542 116.348 171.553 87.1785 171.553C58.0093 171.553 34.3604 166.542 34.3604 160.359C34.3586 155.21 37.9052 78.4757 47.5632 68.5025Z" fill="white"/>
<path d="M104.714 153.685C113.098 137.146 115.698 107.607 108.302 89.6602C102.232 74.9239 88.1362 67.8633 73.0795 65.5658C67.7237 64.7468 62.2753 64.166 56.791 63.8319C76.4548 57.7239 117.489 57.1448 126.789 68.5024C138.102 82.3186 139.993 155.21 139.993 160.359C139.993 166.542 116.348 171.553 87.1784 171.553C84.3069 171.553 81.4971 171.504 78.7506 171.411C88.2784 163.809 99.1768 164.606 104.714 153.685Z" fill="#A7D7F9" fill-opacity="0.6"/>
<path d="M55.7178 63.8937C55.7178 68.5299 70.3615 72.2889 88.4302 72.2889C106.495 72.2889 121.139 68.5299 121.139 63.8937C121.139 61.2672 121.139 53.3773 121.139 53.3773H55.7178C55.7178 53.3773 55.7178 59.2557 55.7178 63.8937Z" fill="#B7DEFA"/>
<path d="M89.146 58.7948C87.6108 56.8965 85.9386 55.0701 84.1396 53.3773H121.137C121.137 53.3773 121.137 61.2672 121.137 63.8937C121.137 68.069 109.26 71.5299 93.7068 72.1793C96.2597 68.3603 91.6046 61.8325 89.146 58.7948Z" fill="#CFE9FC"/>
<path d="M53.4424 55.4915C53.4424 59.5641 69.0216 62.8656 88.2382 62.8656C107.453 62.8656 123.032 59.5624 123.032 55.4915C123.032 53.1854 123.032 46.2533 123.032 46.2533H53.4424C53.4424 46.2533 53.4424 51.4172 53.4424 55.4915Z" fill="#121B74"/>
<path d="M53.4424 46.2533C53.4424 50.3258 69.0216 53.6274 88.2382 53.6274C107.453 53.6274 123.032 50.3241 123.032 46.2533C123.032 42.179 107.455 38.8792 88.2382 38.8792C69.0216 38.8792 53.4424 42.179 53.4424 46.2533Z" fill="#060C4B"/>
<path d="M59.2236 46.2534C59.2236 49.6491 72.214 52.4025 88.2387 52.4025C104.263 52.4025 117.254 49.6474 117.254 46.2534C117.254 42.8558 104.263 40.1025 88.2387 40.1025C72.214 40.1025 59.2236 42.8558 59.2236 46.2534Z" fill="#A7D7F9"/>
<path opacity="0.5" d="M88.2387 42.2579C73.9496 42.2579 62.0815 44.4475 59.676 47.331C59.3847 46.9798 59.2236 46.62 59.2236 46.2534C59.2236 42.8558 72.214 40.1025 88.2387 40.1025C104.263 40.1025 117.254 42.8558 117.254 46.2534C117.254 46.6217 117.093 46.9815 116.8 47.331C114.396 44.4492 102.528 42.2579 88.2387 42.2579Z" fill="#0085F0"/>
<path d="M72.874 46.6954C72.874 47.5606 73.8232 48.2613 74.9985 48.2613H105.045C106.22 48.2613 107.17 47.5606 107.17 46.6954C107.17 45.8336 106.22 45.1345 105.045 45.1345H74.9968C73.8232 45.1328 72.874 45.8336 72.874 46.6954Z" fill="#0074A2"/>
<path d="M32.9141 171.864V176.772C32.9141 177.963 33.6371 179.087 34.9272 180.086C35.1174 180.24 35.3264 180.386 35.5406 180.528C36.0991 180.903 36.7313 181.253 37.4372 181.583C37.6394 181.676 37.8416 181.761 38.0489 181.852C38.6948 182.128 39.3921 182.387 40.1443 182.62C40.3396 182.688 40.5486 182.748 40.7576 182.812C41.419 183.016 42.1266 183.197 42.8564 183.363C43.0586 183.408 43.2591 183.456 43.4698 183.499C44.1466 183.639 44.8439 183.768 45.5686 183.884C45.7708 183.915 45.973 183.946 46.182 183.978C46.8639 184.076 47.5629 184.162 48.2757 184.23C48.4778 184.254 48.68 184.271 48.889 184.285C49.5761 184.354 50.2768 184.4 50.9879 184.432C51.1917 184.444 51.3991 184.456 51.6029 184.463C52.2951 184.496 52.9942 184.506 53.7 184.506H53.7806C53.957 184.506 54.1369 184.506 54.3134 184.501C55.021 184.501 55.72 184.477 56.4071 184.438C56.6161 184.438 56.8183 184.427 57.0205 184.408C57.7332 184.371 58.4322 184.316 59.121 184.247C59.3283 184.23 59.5322 184.211 59.7343 184.181C60.4522 184.107 61.1513 184.014 61.8332 183.91C62.0422 183.879 62.2444 183.841 62.4482 183.805C63.1661 183.689 63.8652 183.547 64.5402 183.401C64.7492 183.351 64.9514 183.308 65.1536 183.254C65.8834 183.082 66.5893 182.885 67.2524 182.678C67.4614 182.616 67.6636 182.548 67.8675 182.481C68.6213 182.222 69.3204 181.946 69.9646 181.659C70.1804 181.559 70.3826 181.462 70.5797 181.359C71.39 180.953 72.0891 180.524 72.6716 180.063C72.8926 179.885 73.1017 179.707 73.2884 179.524C74.1656 178.671 74.6505 177.744 74.6505 176.774C74.6505 175.419 74.6505 171.865 74.6505 171.865H32.9141V171.864Z" fill="#DE7A00"/>
<path d="M53.7767 164.805C42.2529 164.805 32.9102 167.966 32.9102 171.862C32.9102 175.76 42.2529 178.921 53.7767 178.921C65.3004 178.921 74.6449 175.76 74.6449 171.862C74.6449 167.964 65.3022 164.805 53.7767 164.805Z" fill="#FEC833"/>
<path d="M74.6399 171.877C74.6399 172.993 73.8757 174.05 72.5102 174.987C70.9785 176.039 73.3634 173.998 73.3634 172.061C73.3634 168.163 63.2035 165.314 51.6797 165.314C47.1582 165.314 43.7453 165.596 46.6939 165.236C48.9041 164.967 51.2873 164.818 53.7734 164.818C65.2989 164.818 74.6399 167.979 74.6399 171.877Z" fill="#FFFBDC"/>
<path d="M53.7756 166.151C44.4552 166.151 36.8994 168.708 36.8994 171.86C36.8994 175.013 44.4552 177.569 53.7756 177.569C63.0978 177.569 70.6535 175.013 70.6535 171.86C70.6552 168.709 63.0978 166.151 53.7756 166.151Z" stroke="#E38F2F" stroke-width="0.356936" stroke-miterlimit="10"/>
<path d="M48.9723 169.239C47.5126 169.244 46.3527 169.683 45.3692 170.018C44.4457 170.334 43.2516 170.39 43.2516 170.39L39.6416 170.517C39.6416 170.517 39.6416 171.456 39.6416 171.658C39.6416 171.843 40.0271 172.035 40.6696 172.035C41.3498 172.035 42.2664 172.032 42.8935 172.028C42.9791 172.71 44.2059 173.488 44.8278 173.793C45.3041 174.026 45.9586 174.069 46.6268 173.998C47.3207 173.926 47.9957 173.784 48.1602 173.457C48.3127 173.15 47.8073 172.414 47.8073 172.414C47.8073 172.414 46.1197 172.261 46.0768 172.016L53.0415 171.99C54.0917 172.701 55.0409 173.152 55.9438 173.368C56.8707 173.591 57.9741 173.702 59.2214 173.697C60.7051 173.692 62.0004 173.515 63.0695 173.169C64.0735 172.844 64.6989 172.434 64.9336 171.951C65.3774 171.948 66.7771 171.972 67.7486 171.972C68.619 171.972 68.5624 170.454 68.5624 170.454C68.5624 170.454 68.0193 170.462 67.1883 170.462C66.6212 170.462 65.5812 170.46 65.0347 170.462C64.9422 169.845 64.668 170.26 64.1232 169.948C63.6692 169.689 60.981 168.778 60.981 168.778C60.981 168.778 60.9827 169.866 60.9827 169.919C60.9827 169.965 61.0272 170.015 61.1198 170.063C61.8256 170.443 61.6595 170.608 61.6595 170.608H55.656C55.656 170.608 53.2505 170.145 52.3287 169.892C51.3676 169.635 50.1871 169.235 48.9723 169.239Z" fill="#E38F2F"/>
<path d="M49.0492 168.365C47.5912 168.37 46.3524 168.541 45.3673 168.879C44.4438 169.194 43.8373 169.626 43.558 170.164C42.9583 170.167 41.4575 170.173 40.6522 170.173C40.056 170.173 39.6396 170.315 39.6396 170.517C39.6396 170.702 40.0251 170.894 40.6676 170.894C41.3478 170.894 42.7887 170.887 43.4175 170.885C43.5032 171.567 44.2039 172.348 44.8276 172.652C45.3039 172.885 46.5135 172.89 47.18 172.82C47.879 172.744 48.1394 172.566 47.807 172.415C47.2211 172.141 46.9075 171.978 46.5786 171.663C46.2873 171.384 46.1194 171.12 46.0749 170.877L53.0395 170.853C54.0898 171.564 55.039 172.013 55.9419 172.229C56.8688 172.453 57.9722 172.563 59.2195 172.559C60.7032 172.554 61.9985 172.376 63.0676 172.03C64.0716 171.706 64.6969 171.295 64.9317 170.813C65.372 170.81 66.3177 170.806 67.2909 170.806C68.1613 170.806 68.5588 170.625 68.5588 170.455C68.5588 170.274 68.1081 170.085 67.2755 170.085C66.7084 170.085 65.5485 170.089 65.0019 170.092C64.9077 169.475 64.6627 169.122 64.1195 168.81C63.6655 168.55 62.3428 168.482 61.6284 168.547C61.039 168.601 60.9756 168.728 60.9756 168.781C60.9756 168.828 61.0219 168.877 61.1127 168.927C61.8186 169.306 62.2298 169.701 62.336 170.102L55.152 170.126C54.172 169.458 53.2451 169.009 52.3216 168.756C51.3673 168.492 50.2656 168.36 49.0492 168.365ZM51.9224 170.137L46.2531 170.155C46.6591 169.652 47.5192 169.405 48.8744 169.402C49.9812 169.398 51.0024 169.645 51.9224 170.137ZM61.3285 171.3C60.8248 171.449 60.2286 171.521 59.4987 171.523C58.7329 171.526 58.0989 171.466 57.6175 171.351C57.2029 171.252 56.7711 171.081 56.3325 170.842L62.2075 170.824C62.0379 171.017 61.7432 171.178 61.3285 171.3Z" fill="#FFDB31"/>
<path d="M35.8467 164.157V169.067C35.8467 170.258 36.5731 171.382 37.8615 172.383C38.0517 172.537 38.2607 172.682 38.4749 172.825C39.0317 173.198 39.6657 173.549 40.3698 173.88C40.572 173.973 40.7759 174.057 40.9849 174.149C41.6291 174.427 42.3282 174.685 43.0769 174.917C43.2739 174.985 43.4812 175.045 43.692 175.107C44.3533 175.309 45.0592 175.494 45.7908 175.658C45.9929 175.701 46.1934 175.751 46.4041 175.792C47.0792 175.934 47.7782 176.063 48.503 176.181C48.7051 176.212 48.9073 176.244 49.1163 176.274C49.7999 176.371 50.4973 176.457 51.21 176.525C51.4122 176.549 51.6143 176.568 51.8234 176.58C52.5104 176.647 53.2094 176.698 53.9222 176.728C54.1244 176.738 54.3334 176.752 54.5373 176.758C55.2295 176.788 55.9285 176.8 56.6344 176.8H56.7149C56.8931 176.8 57.0696 176.8 57.2477 176.794C57.9536 176.794 58.6527 176.77 59.3397 176.733C59.5487 176.733 59.7509 176.721 59.9548 176.702C60.6658 176.664 61.3648 176.609 62.0519 176.541C62.2609 176.524 62.4648 176.505 62.667 176.474C63.3848 176.402 64.0839 176.308 64.7641 176.205C64.9731 176.172 65.177 176.138 65.3791 176.101C66.0953 175.984 66.7961 175.842 67.4711 175.696C67.6801 175.646 67.8823 175.602 68.0845 175.549C68.8161 175.378 69.5219 175.18 70.185 174.971C70.394 174.91 70.5945 174.843 70.7984 174.774C71.5522 174.517 72.253 174.242 72.8972 173.954C73.1131 173.856 73.3152 173.757 73.5106 173.654C74.3227 173.248 75.02 172.818 75.6042 172.359C75.827 172.18 76.0326 172.002 76.2193 171.819C77.0982 170.966 77.5814 170.039 77.5814 169.069C77.5814 167.712 77.5814 164.159 77.5814 164.159H35.8467V164.157Z" fill="#DE7A00"/>
<path d="M56.7132 157.098C45.1894 157.098 35.8467 160.259 35.8467 164.155C35.8467 168.053 45.1894 171.214 56.7132 171.214C68.237 171.214 77.5797 168.053 77.5797 164.155C77.578 160.258 68.237 157.098 56.7132 157.098Z" fill="#FEC833"/>
<path d="M77.5757 164.173C77.5757 165.288 76.8098 166.342 75.446 167.279C73.916 168.332 76.301 166.288 76.301 164.354C76.301 160.456 66.141 157.607 54.6172 157.607C50.094 157.607 46.6811 157.89 49.6314 157.53C51.8399 157.261 54.2231 157.114 56.7109 157.114C68.2329 157.114 77.5757 160.273 77.5757 164.173Z" fill="#FFFBDC"/>
<path d="M56.7129 158.448C47.389 158.448 39.835 161.003 39.835 164.155C39.835 167.31 47.389 169.864 56.7129 169.864C66.0333 169.864 73.5908 167.311 73.5908 164.155C73.5908 161.003 66.0333 158.448 56.7129 158.448Z" stroke="#E38F2F" stroke-width="0.356936" stroke-miterlimit="10"/>
<path d="M51.9069 161.534C50.4489 161.537 49.2855 161.976 48.3038 162.314C47.382 162.627 46.1878 162.685 46.1878 162.685L42.5762 162.814C42.5762 162.814 42.5762 163.751 42.5762 163.953C42.5762 164.14 42.9634 164.33 43.6059 164.33C44.2861 164.33 45.201 164.327 45.828 164.325C45.9137 165.007 47.1422 165.786 47.7658 166.088C48.2404 166.321 48.8949 166.364 49.5614 166.295C50.2587 166.222 50.932 166.079 51.0965 165.754C51.2507 165.446 50.7436 164.709 50.7436 164.709C50.7436 164.709 49.0559 164.556 49.0148 164.311L55.9777 164.289C57.028 164.997 57.9772 165.449 58.8818 165.665C59.807 165.889 60.9087 165.999 62.1577 165.994C63.6414 165.99 64.9367 165.812 66.0058 165.466C67.0098 165.141 67.6352 164.729 67.8699 164.248C68.3119 164.246 69.71 164.27 70.6849 164.27C71.5552 164.27 71.497 162.749 71.497 162.749C71.497 162.749 70.9556 162.762 70.1229 162.762C69.5575 162.762 68.5158 162.759 67.971 162.762C67.8767 162.144 67.6043 162.559 67.0578 162.247C66.6055 161.986 63.9156 161.077 63.9156 161.077C63.9156 161.077 63.9156 162.164 63.9156 162.216C63.9156 162.262 63.9618 162.314 64.0526 162.363C64.7585 162.74 64.5923 162.906 64.5923 162.906H58.5888C58.5888 162.906 56.1851 162.445 55.2599 162.19C54.3021 161.928 53.1216 161.529 51.9069 161.534Z" fill="#E38F2F"/>
<path d="M51.9838 160.658C50.5257 160.664 49.2853 160.835 48.3018 161.172C47.3801 161.486 46.7701 161.921 46.4926 162.459C45.8929 162.463 44.392 162.468 43.5885 162.468C42.9906 162.468 42.5742 162.608 42.5742 162.812C42.5742 162.997 42.9597 163.189 43.6039 163.189C44.2841 163.189 45.725 163.184 46.3538 163.18C46.4378 163.862 47.1402 164.644 47.7639 164.947C48.2384 165.182 49.4481 165.185 50.1162 165.113C50.8136 165.041 51.0723 164.863 50.7416 164.709C50.1557 164.435 49.8421 164.272 49.5132 163.958C49.2219 163.681 49.0557 163.417 49.0129 163.172L55.9758 163.148C57.0261 163.857 57.9752 164.308 58.8799 164.525C59.8051 164.748 60.9067 164.859 62.154 164.854C63.6395 164.851 64.9347 164.673 66.0056 164.325C67.0079 164.001 67.6349 163.592 67.8696 163.108C68.3117 163.105 69.2557 163.1 70.2289 163.1C71.101 163.1 71.4967 162.918 71.4967 162.749C71.4967 162.572 71.0479 162.38 70.2152 162.38C69.6481 162.38 68.4864 162.384 67.9399 162.387C67.8457 161.77 67.6007 161.416 67.0558 161.106C66.6035 160.845 65.2808 160.777 64.5681 160.842C63.9804 160.897 63.9153 161.023 63.9153 161.076C63.9153 161.123 63.9616 161.172 64.0524 161.222C64.7583 161.602 65.1677 161.995 65.2774 162.396L58.0917 162.421C57.1117 161.751 56.1848 161.306 55.2596 161.051C54.3019 160.787 53.2002 160.655 51.9838 160.658ZM54.8553 162.43L49.1876 162.449C49.5937 161.947 50.4538 161.7 51.809 161.697C52.9141 161.69 53.9369 161.938 54.8553 162.43ZM64.2631 163.595C63.7628 163.742 63.1632 163.814 62.4333 163.818C61.6657 163.821 61.0335 163.763 60.5521 163.646C60.1357 163.545 59.7057 163.376 59.2688 163.138L65.142 163.117C64.9707 163.312 64.6777 163.475 64.2631 163.595Z" fill="#FFDB31"/>
<path d="M30.4287 157.144V162.053C30.4287 163.245 31.1534 164.369 32.4419 165.368C32.6338 165.522 32.8411 165.67 33.0569 165.812C33.6155 166.185 34.2477 166.535 34.9519 166.867C35.154 166.96 35.3579 167.044 35.567 167.136C36.2112 167.414 36.9102 167.671 37.6589 167.904C37.8559 167.972 38.0633 168.034 38.2723 168.096C38.9353 168.298 39.6412 168.483 40.3711 168.649C40.5733 168.692 40.7772 168.742 40.9862 168.785C41.6612 168.927 42.3603 169.054 43.0833 169.172C43.2872 169.203 43.4893 169.233 43.6984 169.264C44.3803 169.362 45.0793 169.448 45.792 169.514C45.9942 169.54 46.1947 169.559 46.4054 169.569C47.0924 169.638 47.7949 169.687 48.5042 169.718C48.7064 169.73 48.9154 169.742 49.1176 169.749C49.8115 169.78 50.5105 169.792 51.2164 169.792H51.2952C51.4768 169.792 51.6533 169.792 51.8298 169.785C52.5374 169.785 53.2347 169.761 53.9234 169.722C54.1325 169.722 54.3346 169.711 54.5385 169.693C55.2496 169.657 55.9486 169.6 56.6356 169.535C56.8447 169.514 57.0468 169.499 57.2507 169.466C57.9686 169.393 58.6693 169.3 59.3495 169.196C59.5586 169.165 59.7607 169.129 59.9629 169.091C60.6808 168.975 61.3815 168.833 62.0566 168.687C62.2656 168.637 62.4695 168.593 62.6716 168.54C63.4015 168.368 64.1074 168.173 64.7688 167.962C64.9778 167.9 65.18 167.834 65.3838 167.767C66.1377 167.508 66.8367 167.234 67.4827 166.943C67.6968 166.845 67.9007 166.747 68.096 166.643C68.9064 166.237 69.6054 165.807 70.1897 165.346C70.4107 165.168 70.6197 164.991 70.8031 164.808C71.6803 163.953 72.1669 163.026 72.1669 162.056C72.1669 160.701 72.1669 157.148 72.1669 157.148H30.4287V157.144Z" fill="#DE7A00"/>
<path d="M51.2933 150.087C39.7678 150.087 30.4268 153.247 30.4268 157.143C30.4268 161.042 39.7678 164.202 51.2933 164.202C62.817 164.202 72.1598 161.042 72.1598 157.143C72.1598 153.247 62.817 150.087 51.2933 150.087Z" fill="#FEC833"/>
<path d="M72.1565 157.16C72.1565 158.275 71.3906 159.331 70.0268 160.268C68.4951 161.32 70.88 159.279 70.88 157.341C70.88 153.444 60.7218 150.596 49.1963 150.596C44.6748 150.596 41.2619 150.877 44.2105 150.517C46.4207 150.248 48.8039 150.099 51.2883 150.099C62.8137 150.101 72.1565 153.262 72.1565 157.16Z" fill="#FFFBDC"/>
<path d="M51.2929 151.436C41.9708 151.436 34.415 153.992 34.415 157.144C34.415 160.299 41.9708 162.853 51.2929 162.853C60.6134 162.853 68.1691 160.299 68.1691 157.144C68.1691 153.992 60.6134 151.436 51.2929 151.436Z" stroke="#E38F2F" stroke-width="0.356936" stroke-miterlimit="10"/>
<path d="M46.486 154.523C45.0314 154.526 43.8681 154.965 42.8829 155.303C41.9594 155.616 40.7669 155.674 40.7669 155.674L37.1553 155.801C37.1553 155.801 37.1553 156.74 37.1553 156.942C37.1553 157.127 37.5425 157.319 38.185 157.319C38.8669 157.319 39.7801 157.316 40.4089 157.314C40.4928 157.996 41.723 158.775 42.3449 159.079C42.8212 159.312 43.474 159.355 44.1405 159.286C44.8395 159.212 45.5128 159.07 45.6756 158.746C45.8281 158.438 45.3244 157.701 45.3244 157.701C45.3244 157.701 43.635 157.549 43.5939 157.304L50.5569 157.28C51.6071 157.989 52.5563 158.44 53.4592 158.656C54.3861 158.882 55.4878 158.991 56.7351 158.988C58.2205 158.983 59.5158 158.805 60.5849 158.458C61.5906 158.133 62.2143 157.725 62.4507 157.24C62.891 157.239 64.2908 157.263 65.264 157.263C66.1361 157.263 66.0778 155.743 66.0778 155.743C66.0778 155.743 65.5347 155.755 64.7037 155.755C64.1366 155.755 63.0966 155.751 62.5501 155.755C62.4558 155.136 62.1834 155.551 61.6386 155.239C61.1863 154.98 58.4947 154.069 58.4947 154.069C58.4947 154.069 58.4964 155.159 58.4964 155.21C58.4964 155.256 58.5426 155.306 58.6334 155.356C59.3393 155.734 59.1731 155.901 59.1731 155.901H53.1697C53.1697 155.901 50.7659 155.44 49.8424 155.184C48.8829 154.915 47.7042 154.518 46.486 154.523Z" fill="#E38F2F"/>
<path d="M46.5641 153.647C45.1078 153.653 43.8673 153.826 42.8822 154.161C41.9587 154.477 41.3522 154.91 41.0746 155.448C40.475 155.45 38.9741 155.457 38.1705 155.457C37.5726 155.457 37.1562 155.599 37.1562 155.799C37.1562 155.984 37.5417 156.176 38.186 156.176C38.8679 156.176 40.3088 156.169 40.9375 156.168C41.0198 156.85 41.7222 157.631 42.3459 157.934C42.8222 158.167 44.0301 158.172 44.6983 158.102C45.3939 158.03 45.656 157.85 45.3236 157.696C44.7377 157.422 44.4241 157.259 44.0935 156.944C43.8022 156.668 43.6343 156.403 43.5932 156.159L50.5561 156.134C51.6064 156.845 52.5556 157.293 53.4585 157.511C54.3854 157.735 55.487 157.845 56.7343 157.842C58.2198 157.837 59.5133 157.658 60.5842 157.312C61.5882 156.988 62.2135 156.579 62.45 156.096C62.8903 156.092 63.836 156.089 64.8075 156.089C65.6796 156.089 66.0771 155.907 66.0771 155.738C66.0771 155.56 65.6265 155.368 64.7955 155.368C64.2284 155.368 63.0668 155.373 62.5202 155.376C62.426 154.759 62.181 154.405 61.6362 154.095C61.1838 153.834 59.8594 153.766 59.1467 153.833C58.559 153.886 58.4922 154.014 58.4922 154.066C58.4922 154.114 58.5402 154.161 58.631 154.211C59.3369 154.593 59.7464 154.986 59.8543 155.387L52.6704 155.409C51.6903 154.741 50.7634 154.293 49.8382 154.04C48.8822 153.774 47.7788 153.642 46.5641 153.647ZM49.4356 155.419L43.7697 155.438C44.1757 154.936 45.0358 154.687 46.391 154.684C47.4944 154.681 48.519 154.927 49.4356 155.419ZM58.8434 156.582C58.3397 156.731 57.7418 156.805 57.0136 156.807C56.246 156.809 55.6121 156.75 55.1324 156.634C54.7161 156.534 54.286 156.365 53.8491 156.127L59.7224 156.106C59.551 156.3 59.2563 156.462 58.8434 156.582Z" fill="#FFDB31"/>
<path d="M35.542 150.855V155.765C35.542 156.956 36.265 158.08 37.5551 159.08C37.747 159.233 37.9543 159.38 38.1685 159.521C38.7253 159.896 39.3593 160.244 40.0634 160.576C40.2656 160.669 40.4678 160.754 40.6785 160.847C41.3244 161.123 42.0218 161.381 42.7705 161.614C42.9658 161.681 43.1748 161.743 43.3856 161.804C44.0486 162.007 44.7545 162.19 45.4827 162.356C45.6848 162.399 45.887 162.447 46.0977 162.49C46.7728 162.632 47.4718 162.76 48.1948 162.877C48.3987 162.908 48.6009 162.939 48.8099 162.969C49.4918 163.067 50.1909 163.153 50.9019 163.221C51.1041 163.245 51.3079 163.264 51.517 163.276C52.204 163.343 52.903 163.393 53.6158 163.424C53.818 163.436 54.027 163.448 54.2292 163.454C54.923 163.485 55.6238 163.497 56.328 163.497H56.4085C56.5867 163.497 56.7632 163.497 56.9413 163.492C57.6472 163.492 58.348 163.466 59.035 163.43C59.244 163.43 59.4462 163.418 59.6501 163.4C60.3611 163.364 61.0619 163.307 61.7472 163.24C61.9579 163.221 62.1584 163.203 62.3623 163.172C63.0802 163.098 63.7809 163.005 64.4611 162.901C64.6684 162.872 64.8723 162.836 65.0762 162.798C65.7923 162.68 66.4931 162.539 67.1681 162.392C67.3772 162.342 67.5793 162.3 67.7832 162.245C68.5131 162.072 69.219 161.876 69.882 161.667C70.0893 161.606 70.2915 161.537 70.4937 161.47C71.2493 161.212 71.95 160.936 72.5942 160.648C72.8084 160.55 73.0123 160.453 73.2076 160.348C74.0197 159.942 74.717 159.512 75.3013 159.051C75.5223 158.876 75.7296 158.695 75.9146 158.513C76.7936 157.66 77.2784 156.733 77.2784 155.763C77.2784 154.406 77.2784 150.853 77.2784 150.853H35.542V150.855Z" fill="#DE7A00"/>
<path d="M56.4046 143.796C44.8808 143.796 35.5381 146.957 35.5381 150.855C35.5381 154.753 44.8808 157.912 56.4046 157.912C67.9301 157.912 77.2728 154.753 77.2728 150.855C77.2728 146.955 67.9301 143.796 56.4046 143.796Z" fill="#FEC833"/>
<path d="M77.269 150.87C77.269 151.986 76.5031 153.041 75.1393 153.978C73.6076 155.03 75.9926 152.988 75.9926 151.054C75.9926 147.156 65.8343 144.307 54.3105 144.307C49.7874 144.307 46.3761 144.589 49.3231 144.229C51.5349 143.96 53.9182 143.811 56.4025 143.811C67.9263 143.811 77.269 146.972 77.269 150.87Z" fill="#FFFBDC"/>
<path d="M56.4043 145.144C47.0838 145.144 39.5264 147.701 39.5264 150.853C39.5264 154.006 47.0838 156.562 56.4043 156.562C65.7264 156.562 73.2822 154.006 73.2822 150.853C73.2822 147.701 65.7264 145.144 56.4043 145.144Z" stroke="#E38F2F" stroke-width="0.356936" stroke-miterlimit="10"/>
<path d="M51.6015 148.232C50.1434 148.237 48.9818 148.675 47.9984 149.011C47.0766 149.326 45.8807 149.381 45.8807 149.381L42.2725 149.508C42.2725 149.508 42.2725 150.447 42.2725 150.651C42.2725 150.834 42.658 151.026 43.3005 151.026C43.9824 151.026 44.8956 151.023 45.5243 151.021C45.6083 151.703 46.8385 152.481 47.4604 152.786C47.9367 153.017 48.5912 153.063 49.2577 152.991C49.9533 152.919 50.6283 152.777 50.7928 152.45C50.9453 152.143 50.4416 151.406 50.4416 151.406C50.4416 151.406 48.7539 151.252 48.7128 151.009L55.674 150.985C56.7243 151.694 57.6752 152.145 58.5798 152.362C59.5067 152.587 60.6084 152.695 61.854 152.693C63.3394 152.688 64.633 152.51 65.7038 152.162C66.7078 151.838 67.3332 151.429 67.5679 150.947C68.0099 150.942 69.4097 150.968 70.3829 150.968C71.2532 150.968 71.195 149.45 71.195 149.45C71.195 149.45 70.6536 149.46 69.8209 149.46C69.2538 149.46 68.2138 149.458 67.6673 149.46C67.573 148.843 67.3006 149.256 66.7558 148.946C66.3018 148.686 63.6136 147.776 63.6136 147.776C63.6136 147.776 63.6136 148.864 63.6136 148.917C63.6136 148.963 63.6598 149.013 63.7523 149.063C64.4565 149.441 64.2903 149.606 64.2903 149.606H58.2886C58.2886 149.606 55.8831 149.143 54.9596 148.89C53.9967 148.624 52.8162 148.228 51.6015 148.232Z" fill="#E38F2F"/>
<path d="M51.6761 147.356C50.2198 147.361 48.9811 147.534 47.9976 147.87C47.0759 148.185 46.4659 148.617 46.1901 149.157C45.5887 149.157 44.0878 149.164 43.286 149.164C42.6898 149.164 42.2734 149.306 42.2734 149.508C42.2734 149.695 42.6589 149.885 43.3014 149.885C43.9833 149.885 45.4242 149.88 46.053 149.878C46.137 150.558 46.8377 151.34 47.4614 151.645C47.9377 151.876 49.1473 151.881 49.8138 151.811C50.5111 151.737 50.7715 151.559 50.4408 151.406C49.8532 151.132 49.5413 150.968 49.2124 150.654C48.9228 150.377 48.7549 150.113 48.7121 149.87L55.6733 149.847C56.7236 150.555 57.6745 151.007 58.5791 151.223C59.506 151.446 60.6077 151.555 61.8532 151.552C63.3387 151.547 64.6322 151.369 65.7031 151.023C66.7071 150.699 67.3324 150.289 67.5672 149.806C68.0092 149.804 68.9532 149.801 69.9264 149.801C70.7968 149.801 71.1943 149.618 71.1943 149.45C71.1943 149.27 70.7454 149.078 69.9127 149.078C69.3473 149.078 68.184 149.085 67.6391 149.085C67.5449 148.468 67.2982 148.115 66.755 147.803C66.3027 147.545 64.9783 147.476 64.2656 147.541C63.6779 147.596 63.6128 147.723 63.6128 147.776C63.6128 147.822 63.6591 147.874 63.7499 147.922C64.4558 148.3 64.867 148.696 64.9749 149.095L57.7892 149.119C56.8109 148.451 55.8823 148.002 54.9588 147.748C53.996 147.485 52.8943 147.353 51.6761 147.356ZM54.5494 149.129L48.8817 149.148C49.2861 148.645 50.1496 148.4 51.5014 148.394C52.6082 148.389 53.631 148.636 54.5494 149.129ZM63.9589 150.291C63.4552 150.44 62.8572 150.512 62.1274 150.516C61.3615 150.517 60.7276 150.459 60.2444 150.344C59.8298 150.247 59.3998 150.073 58.9629 149.835L64.8361 149.816C64.6648 150.01 64.3718 150.169 63.9589 150.291Z" fill="#FFDB31"/>
<path d="M18.8535 174.809L22.7616 177.781C23.7073 178.503 25.042 178.605 26.6183 178.187C26.8547 178.127 27.098 178.052 27.3413 177.966C27.9769 177.749 28.64 177.457 29.3305 177.096C29.5258 176.991 29.7177 176.882 29.9164 176.772C30.5281 176.426 31.1569 176.027 31.7959 175.571C31.9673 175.456 32.1437 175.326 32.3185 175.198C32.8805 174.793 33.4561 174.344 34.0284 173.861C34.1843 173.728 34.3471 173.596 34.5081 173.455C35.029 173.003 35.5532 172.525 36.0878 172.019C36.2334 171.875 36.3808 171.733 36.5332 171.588C37.0215 171.104 37.5133 170.601 37.9998 170.075C38.1421 169.927 38.2791 169.778 38.4162 169.619C38.8856 169.112 39.3482 168.584 39.8057 168.038C39.9359 167.885 40.073 167.726 40.1997 167.568C40.6452 167.035 41.0787 166.485 41.5053 165.923L41.555 165.862C41.6629 165.719 41.7691 165.577 41.8737 165.432C42.2986 164.871 42.7046 164.299 43.0918 163.73C43.2186 163.566 43.33 163.394 43.4396 163.223C43.8406 162.635 44.2209 162.043 44.5824 161.457C44.6955 161.279 44.8051 161.107 44.8994 160.927C45.2763 160.311 45.6258 159.699 45.9565 159.092C46.0576 158.907 46.1518 158.724 46.246 158.542C46.587 157.898 46.9005 157.257 47.1901 156.63C47.2775 156.435 47.3666 156.248 47.4454 156.053C47.7503 155.368 48.0228 154.687 48.2575 154.033C48.3363 153.831 48.4048 153.629 48.4734 153.426C48.7269 152.671 48.9291 151.944 49.0919 151.259C49.1433 151.028 49.1878 150.807 49.2238 150.587C49.3917 149.697 49.4739 148.881 49.4602 148.137C49.4534 147.855 49.438 147.581 49.402 147.322C49.2564 146.107 48.8109 145.16 48.0382 144.572C46.9605 143.751 44.1335 141.598 44.1335 141.598L18.8535 174.809Z" fill="#DE7A00"/>
<path d="M25.8719 153.932C18.8919 163.1 15.7479 172.448 18.849 174.809C21.9501 177.17 30.1227 171.648 37.1045 162.478C44.0828 153.308 47.2267 143.959 44.1256 141.599C41.0228 139.24 32.852 144.761 25.8719 153.932Z" fill="#FEC833"/>
<path d="M44.1358 141.613C45.0233 142.288 45.3986 143.537 45.3197 145.191C45.2289 147.046 45.049 143.912 43.5088 142.739C40.4077 140.378 31.9867 146.738 25.0084 155.907C22.2688 159.505 20.4269 162.394 21.9278 159.829C23.05 157.907 24.3761 155.921 25.8821 153.944C32.8622 144.772 41.0364 139.252 44.1358 141.613Z" fill="#FFFBDC"/>
<path d="M26.9466 154.748C21.3012 162.166 18.757 169.725 21.267 171.636C23.7753 173.544 30.387 169.079 36.0306 161.662C41.6743 154.246 44.2203 146.685 41.7103 144.774C39.202 142.866 32.5903 147.331 26.9466 154.748Z" stroke="#E38F2F" stroke-width="0.356936" stroke-miterlimit="10"/>
<path d="M26.49 160.441C25.6093 161.604 25.2547 162.793 24.9257 163.78C24.6173 164.704 23.9406 165.689 23.9406 165.689L21.8555 168.639C21.8555 168.639 22.6008 169.206 22.7635 169.33C22.9109 169.441 23.2947 169.251 23.687 168.738C24.0982 168.197 24.6499 167.467 25.0285 166.965C25.6213 167.311 26.9869 166.804 27.6054 166.492C28.08 166.256 28.51 165.761 28.8561 165.187C29.221 164.589 29.5174 163.965 29.3564 163.638C29.2039 163.331 28.313 163.285 28.313 163.285C28.313 163.285 27.1685 164.537 26.9475 164.424L31.1468 158.868C32.3478 158.462 33.2816 157.979 34.0012 157.391C34.7396 156.79 35.4952 155.981 36.2491 154.986C37.1417 153.802 37.7876 152.664 38.1594 151.602C38.5089 150.606 38.562 149.859 38.3205 149.381C38.586 149.028 39.453 147.927 40.0406 147.154C40.5683 146.46 39.3245 145.586 39.3245 145.586C39.3245 145.586 39.0041 146.025 38.5021 146.686C38.1577 147.137 37.5255 147.966 37.1948 148.401C36.65 148.1 36.8127 148.569 36.2336 148.814C35.7539 149.016 33.3998 150.606 33.3998 150.606C33.3998 150.606 34.2667 151.264 34.3079 151.295C34.3456 151.326 34.4124 151.317 34.5066 151.275C35.2365 150.944 35.2673 151.175 35.2673 151.175L31.6317 155.952C31.6317 155.952 29.807 157.585 29.0463 158.166C28.2547 158.772 27.2216 159.469 26.49 160.441Z" fill="#E38F2F"/>
<path d="M25.8389 159.852C24.96 161.013 24.3466 162.103 24.0194 163.09C23.711 164.015 23.6853 164.76 23.9457 165.307C23.5842 165.786 22.6813 166.986 22.1964 167.625C21.8332 168.099 21.6944 168.517 21.8555 168.641C22.0011 168.751 22.3866 168.562 22.779 168.048C23.1902 167.508 24.0588 166.357 24.4392 165.857C25.0303 166.203 26.0788 166.115 26.6973 165.807C27.1719 165.567 27.9086 164.608 28.2564 164.035C28.6197 163.436 28.6368 163.121 28.313 163.288C27.739 163.592 27.4186 163.741 26.9715 163.811C26.574 163.874 26.2621 163.849 26.0411 163.736L30.2405 158.183C31.4415 157.777 32.3753 157.294 33.0931 156.706C33.8316 156.105 34.5889 155.294 35.341 154.299C36.2354 153.115 36.8779 151.975 37.2514 150.915C37.6009 149.919 37.6557 149.174 37.4124 148.694C37.678 148.341 38.2468 147.586 38.8379 146.813C39.3639 146.119 39.4581 145.694 39.3262 145.592C39.1823 145.482 38.7608 145.725 38.2554 146.388C37.9127 146.841 37.212 147.768 36.883 148.203C36.3365 147.903 35.9064 147.886 35.3273 148.129C34.8476 148.331 33.9892 149.344 33.6106 149.952C33.297 150.454 33.3604 150.579 33.4015 150.612C33.4392 150.641 33.5061 150.632 33.6003 150.591C34.3302 150.257 34.8921 150.17 35.2776 150.327L30.9446 156.058C29.819 156.433 28.8989 156.899 28.1382 157.48C27.3467 158.082 26.574 158.88 25.8389 159.852ZM28.9897 158.637L25.5734 163.157C25.4192 162.529 25.743 161.695 26.5585 160.616C27.2267 159.735 28.044 159.069 28.9897 158.637ZM35.6151 151.857C35.4267 152.347 35.1217 152.868 34.6831 153.451C34.2222 154.061 33.7922 154.53 33.4084 154.844C33.0777 155.114 32.6819 155.352 32.2279 155.556L35.7676 150.87C35.8173 151.12 35.7659 151.453 35.6151 151.857Z" fill="#FFDB31"/>
<path d="M108.446 38.7574C108.377 39.3297 108.28 39.8916 108.155 40.4433C108.115 40.6061 108.076 40.774 108.036 40.935C107.887 41.5056 107.713 42.0693 107.51 42.6158C107.445 42.782 107.382 42.9465 107.313 43.1092C107.075 43.6901 106.806 44.2503 106.505 44.7934C106.416 44.9613 106.321 45.1241 106.224 45.2869C105.924 45.7957 105.595 46.2823 105.242 46.7518H88.042V20.0788L91.8147 20C93.672 20 95.4607 20.2998 97.1311 20.8618C97.5698 21.0091 97.9981 21.1736 98.4213 21.3552C99.487 21.8127 100.491 22.3747 101.426 23.036C101.654 23.1936 101.88 23.3598 102.096 23.5277C102.761 24.04 103.381 24.6054 103.959 25.2119C104.111 25.3747 104.26 25.5374 104.408 25.7054C104.875 26.2382 105.309 26.7984 105.708 27.3895C105.816 27.5523 105.926 27.7151 106.03 27.883C106.364 28.4244 106.676 28.9812 106.95 29.562C107.024 29.7248 107.104 29.8858 107.171 30.0538C107.413 30.6003 107.625 31.1623 107.802 31.7397C107.857 31.9007 107.899 32.0635 107.949 32.2314C108.103 32.7831 108.23 33.345 108.324 33.9156C108.353 34.0783 108.379 34.2411 108.403 34.409C108.482 34.959 108.532 35.521 108.55 36.0881C108.561 36.2508 108.564 36.4187 108.564 36.5815V36.7477C108.564 37.2617 108.54 37.7637 108.497 38.2657C108.48 38.4285 108.466 38.5964 108.446 38.7574Z" fill="#DE7A00"/>
<path d="M74.5549 46.7484C72.5075 43.9711 71.291 40.5427 71.291 36.8283C71.291 27.578 78.7902 20.0806 88.0387 20.0806C97.2889 20.0806 104.788 27.578 104.788 36.8283C104.788 40.5444 103.572 43.9711 101.524 46.7484H74.5549Z" fill="#FEC833"/>
<path d="M101.831 36.8282C101.831 29.2228 95.6447 23.036 88.0393 23.036C80.4356 23.036 74.2471 29.2228 74.2471 36.8282C74.2471 40.5701 75.7805 44.1561 78.4653 46.7483H97.6116C100.298 44.1561 101.831 40.5701 101.831 36.8282ZM101.34 36.8282C101.34 40.565 99.7584 44.1424 96.9965 46.661H79.0855C76.3219 44.1424 74.7405 40.565 74.7405 36.8282C74.7405 29.4952 80.7063 23.5277 88.0393 23.5277C95.374 23.5277 101.34 29.4952 101.34 36.8282Z" fill="#E38F2F"/>
<path d="M93.0198 42.1206C92.845 41.5603 91.7279 40.7825 91.363 41.048C90.7119 41.5192 91.0203 42.3399 90.275 42.6037C89.6171 42.8367 88.99 42.9721 88.4092 43.0063L88.3544 37.4192C90.0369 36.5763 91.106 35.8138 91.6234 35.0891C92.1511 34.3455 92.415 33.4597 92.4047 32.4591C92.3927 31.2684 91.9712 30.2301 91.1488 29.37C90.3778 28.5648 89.4081 28.0628 88.2602 27.8743C88.2533 27.5197 88.243 26.7624 88.243 25.9811C88.243 25.2821 87.179 24.5282 86.7764 24.5282C86.3515 24.5282 86.5314 25.3249 86.5314 25.9931C86.5314 26.4488 86.5434 27.3809 86.5486 27.8195C85.0854 27.8932 84.2458 28.0919 83.5057 28.5271C82.8906 28.8903 81.9928 29.7898 82.1487 30.3603C82.2772 30.8332 83.3138 31.0474 83.4372 31.0474C83.5485 31.0474 83.6668 31.0114 83.7815 30.9377C84.681 30.3723 85.6182 30.0417 86.5708 29.9543L86.6256 35.7213C85.0408 36.5077 83.9751 37.2513 83.3755 37.9932C82.7501 38.7624 82.4366 39.6482 82.4469 40.6231C82.4589 41.7933 82.8683 42.7887 83.665 43.5769C84.4138 44.317 85.4383 44.8053 86.7182 45.0281C86.7216 45.4067 86.2282 46.1383 86.014 46.7482H88.4469C88.4435 46.1845 88.4332 45.4992 88.4298 45.1394C90.0471 45.0726 91.901 44.5089 92.6223 44.0086C93.1757 43.6266 93.1859 42.6551 93.0198 42.1206ZM86.6959 42.8658C85.5051 42.5403 84.9192 41.8498 84.9089 40.7619C84.9003 39.8744 85.4863 39.0537 86.6514 38.317L86.6959 42.8658ZM88.3287 34.7773L88.2841 30.0639C88.7467 30.1993 89.1254 30.4374 89.4149 30.7681C89.7644 31.169 89.9392 31.6505 89.9461 32.2364C89.9495 32.8515 89.8141 33.3604 89.5383 33.7459C89.2984 34.0799 88.8941 34.4243 88.3287 34.7773Z" fill="#E38F2F"/>
<path d="M92.1339 41.6411C91.9592 41.0808 91.5377 40.8718 91.171 41.1373C90.52 41.6085 90.1328 41.8604 89.3875 42.1242C88.7296 42.3572 88.1025 42.4926 87.5217 42.5268L87.4668 36.938C89.151 36.0968 90.2184 35.3326 90.7359 34.6079C91.2618 33.8643 91.5274 32.9785 91.5171 31.9779C91.5068 30.7889 91.0837 29.7472 90.2613 28.8888C89.492 28.0836 88.5205 27.5816 87.3726 27.3931C87.3675 27.0384 87.3572 26.2812 87.3572 25.4999C87.3572 24.8009 86.9254 24.4822 86.5245 24.4822C86.0979 24.4822 85.6456 24.842 85.6456 25.5102C85.6456 25.9659 85.6576 26.898 85.6627 27.3366C84.1995 27.4102 83.3617 27.609 82.6216 28.0459C82.0065 28.4091 81.8403 29.4731 81.9979 30.0453C82.1281 30.5182 82.428 30.5679 82.553 30.5679C82.6644 30.5679 82.7809 30.5319 82.8974 30.4565C83.7986 29.8911 84.7341 29.5622 85.6867 29.4748L85.7432 35.2418C84.1567 36.0282 83.0927 36.7735 82.4897 37.5137C81.866 38.2847 81.5525 39.1687 81.5627 40.1436C81.573 41.3155 81.9842 42.3075 82.7809 43.0974C83.5279 43.8392 84.5542 44.3258 85.8323 44.5486C85.8392 44.9992 85.8529 46.0837 85.8546 46.7485H87.5645C87.5645 46.1694 87.5508 45.1328 87.5439 44.6599C89.1613 44.5931 91.0151 44.0294 91.7381 43.5291C92.2898 43.1488 92.3001 42.1773 92.1339 41.6411ZM85.8101 42.3864C84.6193 42.0608 84.0316 41.3704 84.0231 40.2824C84.0145 39.3949 84.6005 38.5742 85.7655 37.8375L85.8101 42.3864ZM87.4429 34.2961L87.3966 29.5827C87.8609 29.7198 88.2395 29.9562 88.5274 30.2869C88.8786 30.6895 89.0517 31.1693 89.0551 31.7552C89.0619 32.3703 88.9249 32.8792 88.649 33.2664C88.4109 33.6005 88.01 33.9465 87.4429 34.2961Z" fill="#FFDB31"/>
</svg>
