<svg width="258" height="152" viewBox="0 0 258 152" fill="none" xmlns="http://www.w3.org/2000/svg">
<path d="M225.127 142.332L222.497 140.511L217.737 140.936L214.254 143.274L210.921 144.852C210.921 144.852 218.072 147.287 218.355 147.304C218.638 147.32 226.042 147.925 226.706 148.436C227.37 148.948 231.666 151.346 231.666 151.346C231.666 151.346 237.265 151.023 237.792 150.8C238.319 150.576 240.062 149.733 240.227 149.709C240.391 149.687 241.972 149.571 242.661 149.482C243.35 149.392 250.305 148.948 250.305 148.948C250.305 148.948 257.261 147.468 258 145.987C258 145.987 254.133 144.279 253.848 144.319C253.562 144.359 247.664 142.757 247.664 142.757L237.316 141.214L232.447 143.389L225.74 142.757L225.127 142.332Z" fill="#A8D6F9"/>
<path d="M238.178 144.984L231.949 144.754L229.228 145.872L224.145 146.029C224.145 146.029 220.403 144.856 220.111 144.755C219.821 144.656 217.393 144.024 217.393 144.024L219.585 141.611C219.695 141.512 220.505 140.848 221.353 140.162C222.313 139.389 223.323 138.588 223.443 138.537C223.668 138.44 223.4 136.85 224.494 136.831C225.592 136.813 227.702 136.377 228.792 136.298C229.882 136.221 231.2 135.683 231.502 135.877C231.806 136.073 234.09 139.609 234.09 139.609L234.273 139.928L234.842 140.919L235.28 142.038C235.28 142.038 238.436 142.481 238.525 143.049C238.615 143.618 238.178 144.984 238.178 144.984Z" fill="#C6854F"/>
<path d="M238.178 144.984L231.949 144.754L229.228 145.872L224.145 146.029C224.145 146.029 220.403 144.856 220.111 144.755C219.821 144.656 217.393 144.024 217.393 144.024L219.585 141.611C219.695 141.512 220.505 140.848 221.353 140.162L221.357 140.161L223.356 140.64L224.145 140.919C224.145 140.919 225.473 141.044 226.864 141C228.256 140.956 229.852 140.62 230.46 140.64C230.847 140.652 232.856 140.234 234.276 139.926L234.845 140.917L235.282 142.036C235.282 142.036 238.439 142.479 238.528 143.048C238.615 143.618 238.178 144.984 238.178 144.984Z" fill="#AD6B3A"/>
<path d="M253.117 144.406V145.313L249.838 145.88C249.838 145.88 243.324 145.772 243.033 145.88C242.743 145.986 239.757 144.836 239.757 144.836L240.14 143.328L241.325 142.354L244.174 140.012L246.888 140.067L250.752 142.314L250.806 142.361L253.117 144.406Z" fill="#C6854F"/>
<path d="M253.117 144.406V145.312L249.838 145.88C249.838 145.88 243.324 145.772 243.033 145.88C242.743 145.986 239.757 144.836 239.757 144.836L240.14 143.328L241.325 142.354C242.517 142.681 243.712 143.052 243.712 143.052L246.013 143.273L249.519 143.053C249.519 143.053 250.116 142.721 250.804 142.359L253.117 144.406Z" fill="#AD6B3A"/>
<path d="M5.8073 139.536C5.44986 139.2 0.164227 140.601 0.164227 140.601L0 143.073C0 143.073 6.46006 145.038 7.19702 144.948C7.93259 144.859 15.5491 145.992 16.8478 145.909C18.1464 145.826 25.4345 145.909 25.4345 145.909C25.4345 145.909 27.7144 143.826 29.278 144.135C30.8416 144.444 26.0459 140.39 26.0459 140.39L18.9551 139.485L5.8073 139.536Z" fill="#A8D6F9"/>
<path d="M23.6462 141.889L16.1511 143.249L13.1756 143.357L8.4241 142.439L4.375 141.394L5.47905 138.942L7.47738 137.845L10.381 136.25C10.381 136.25 11.7142 134.62 12.2386 134.356C12.763 134.094 13.1163 133.532 13.6987 133.398C14.2811 133.266 17.6967 134.356 17.6967 134.356L19.0519 135.502C19.0519 135.502 20.305 137.051 20.2595 137.504C20.2443 137.664 20.4306 137.951 20.6777 138.253C21.1317 138.808 21.79 139.418 21.79 139.418L23.6462 141.889Z" fill="#7F4205"/>
<path d="M23.6462 141.888L16.1511 143.249L13.1756 143.357L8.4241 142.439L4.375 141.394L5.47905 138.942L7.47738 137.845L9.31286 140.166H12.033L14.6385 139.651C14.6385 139.651 16.997 138.182 17.2261 138.208C17.4552 138.234 18.2736 138.027 19.3818 138.062C19.7075 138.073 20.1726 138.147 20.6777 138.253C21.1317 138.808 21.79 139.418 21.79 139.418L23.6462 141.888Z" fill="#703603"/>
<path d="M129.376 43.1993L100.419 111.249L70.9002 134.37H32.8584C34.0038 133.04 37.0068 129.513 40.8906 124.676C48.0244 115.792 58.1244 102.5 65.0962 90.3337C72.4659 77.4777 77.4982 68.1846 80.9152 61.5801C86.7336 50.3347 87.871 46.8777 87.871 46.8777C87.871 46.8777 91.8221 45.4837 103.674 35.7238C121.156 21.3277 135.976 0.168457 135.976 0.168457L136.271 4.2816L137.668 23.7164L129.379 43.1977V43.1993H129.376Z" fill="#0085F0"/>
<path d="M70.5312 134.37C73.0065 130.498 87.4122 107.811 99.843 85.0944C105.256 75.2045 110.293 65.3083 113.808 56.9568C121.004 39.853 127.984 21.6197 132.129 10.5588C134.474 4.30246 135.912 0.340105 135.973 0.173269C135.974 0.171665 135.974 0.168457 135.974 0.168457C135.974 0.168457 148.867 30.8952 161.418 58.3332C173.307 84.3147 201.278 128.789 204.805 134.372H70.5312V134.37Z" fill="white"/>
<path d="M125.757 134.483L97.7305 118.484C97.7305 118.484 107.011 110.035 115.688 92.8073C127.267 69.816 136.44 35.0836 136.44 35.0836L128.972 134.428L125.757 134.483Z" fill="#A7D7F9"/>
<path d="M125.64 134.37L136.437 35.0259C134.798 31.9105 150.2 69.5336 161.335 92.9741C171.234 113.816 178.957 124.525 178.957 124.525L157.14 134.426L125.64 134.37Z" fill="#A7D7F9"/>
<path d="M125.642 134.37H157.15L136.439 35.026L125.642 134.37Z" fill="#121B74"/>
<path d="M155.563 126.76H126.467L125.64 134.37H157.149L155.563 126.76Z" fill="#121B74"/>
<path d="M210.159 137.269C209.842 133.96 210.127 130.506 211.055 127.142C209.29 130.151 208.037 133.554 207.431 137.155L210.159 137.269Z" fill="#A7D7F9"/>
<path d="M206.993 137.85C207.767 133.376 207.625 128.846 206.648 124.596C206.723 128.955 205.918 133.236 204.363 137.115L206.993 137.85Z" fill="#A7D7F9"/>
<path d="M204.728 137.311C204.55 133.466 203.635 129.747 202.111 126.399C202.766 130.018 202.708 133.679 202.004 137.114L204.728 137.311Z" fill="#A7D7F9"/>
<path d="M199.891 137.645C199.989 136.961 199.941 136.324 199.854 135.758C199.766 135.189 199.637 134.678 199.532 134.196C199.317 133.23 199.143 132.248 199.023 131.254C198.776 129.266 198.729 127.233 198.879 125.191C198.282 127.148 197.865 129.184 197.658 131.265C197.55 132.304 197.499 133.355 197.496 134.412C197.494 134.942 197.502 135.439 197.469 135.886C197.436 136.334 197.361 136.725 197.229 137.033L199.891 137.645Z" fill="#A7D7F9"/>
<path d="M196.835 137.288C196.244 133.649 195.483 130.058 194.555 126.532C194.579 130.177 194.429 133.801 194.104 137.388L196.835 137.288Z" fill="#A7D7F9"/>
<path d="M194.461 136.799C193.258 133.357 191.601 130.142 189.576 127.257C190.794 130.564 191.53 133.981 191.79 137.372L194.461 136.799Z" fill="#A7D7F9"/>
<path d="M189.283 139.114C189.025 135.553 188.285 132.091 187.122 128.844C187.395 132.282 187.193 135.697 186.556 138.963L189.283 139.114Z" fill="#A7D7F9"/>
<path d="M186.065 138.973C185.784 134.882 184.955 130.892 183.636 127.139C184.066 131.095 183.955 135.049 183.336 138.857L186.065 138.973Z" fill="#A7D7F9"/>
<path d="M161.212 140.611C160.931 136.52 160.102 132.53 158.783 128.777C159.213 132.733 159.103 136.687 158.483 140.495L161.212 140.611Z" fill="#A7D7F9"/>
<path d="M183.31 138.306C182.848 135.017 181.523 131.99 179.612 129.569C180.732 132.441 181.03 135.501 180.578 138.309L183.31 138.306Z" fill="#A7D7F9"/>
<path d="M179.287 140.579C179.455 140.235 179.552 139.863 179.582 139.518C179.613 139.172 179.585 138.851 179.529 138.562C179.415 137.983 179.208 137.515 178.989 137.093C178.552 136.286 178.074 135.561 177.551 134.85C176.504 133.445 175.283 132.206 173.943 131.17C174.957 132.526 175.767 133.995 176.359 135.516C176.65 136.273 176.9 137.061 177.073 137.818C177.152 138.179 177.184 138.522 177.15 138.779C177.118 139.043 177.015 139.165 176.932 139.194L179.287 140.579Z" fill="#A7D7F9"/>
<path d="M174.781 138.036C174.06 137.266 173.566 136.153 173.287 134.921C173.002 133.685 172.902 132.352 172.822 131.024C172.451 132.303 172.089 133.592 171.924 134.985C171.842 135.679 171.813 136.401 171.88 137.147C171.948 137.892 172.116 138.662 172.421 139.411L174.781 138.036Z" fill="#A7D7F9"/>
<path d="M158.12 137.218C157.4 136.448 156.906 135.335 156.627 134.103C156.341 132.867 156.242 131.534 156.162 130.206C155.791 131.484 155.429 132.774 155.263 134.167C155.182 134.861 155.153 135.583 155.22 136.329C155.287 137.073 155.456 137.843 155.761 138.593L158.12 137.218Z" fill="#A7D7F9"/>
<path d="M171.163 138.994C171.203 135.561 170.336 132.254 168.78 129.46C169.485 132.58 169.335 135.768 168.462 138.601L171.163 138.994Z" fill="#A7D7F9"/>
<path d="M168.107 138.947C168.283 136.923 167.864 134.958 167.045 133.265C166.225 131.571 164.988 130.134 163.506 129.163C164.69 130.482 165.437 132.086 165.753 133.708C166.071 135.331 165.952 136.985 165.431 138.403L168.107 138.947Z" fill="#A7D7F9"/>
<path d="M160.628 139.035C159.342 136.929 158.588 134.341 158.594 131.629C157.691 134.186 157.466 137.109 158.074 140.003L160.628 139.035Z" fill="#A7D7F9"/>
<path d="M136.323 136.576C135.037 134.47 134.283 131.882 134.289 129.17C133.386 131.727 133.162 134.649 133.77 137.543L136.323 136.576Z" fill="#A7D7F9"/>
<path d="M166.091 135.758C164.805 133.652 164.051 131.064 164.057 128.351C163.154 130.909 162.929 133.831 163.537 136.725L166.091 135.758Z" fill="#A7D7F9"/>
<path d="M164.421 138.784C163.134 135.926 162.005 132.97 161.044 129.933C161.107 133.118 161.355 136.324 161.795 139.531L164.421 138.784Z" fill="#A7D7F9"/>
<path d="M155.673 139.59C155.633 136.437 154.858 133.408 153.512 130.785C153.993 133.693 153.775 136.61 152.967 139.23L155.673 139.59Z" fill="#A7D7F9"/>
<path d="M151.813 138.565C152.084 134.402 150.662 130.389 148.167 127.514C149.909 130.899 150.172 134.81 149.125 138.089L151.813 138.565Z" fill="#A7D7F9"/>
<path d="M155.091 140.203C155.362 136.04 153.939 132.027 151.444 129.152C153.186 132.537 153.45 136.448 152.402 139.727L155.091 140.203Z" fill="#A7D7F9"/>
<path d="M147.963 136.268C147.571 132.648 147.318 128.995 147.206 125.32C146.413 128.91 145.754 132.546 145.232 136.22L147.963 136.268Z" fill="#A7D7F9"/>
<path d="M145.806 138.32C145.747 134.151 144.226 130.211 141.749 127.261C143.466 130.71 143.879 134.613 143.089 138.058L145.806 138.32Z" fill="#A7D7F9"/>
<path d="M143.164 138.772C141.508 135.777 139.732 132.87 137.846 130.06C138.916 133.27 139.84 136.509 140.619 139.764L143.164 138.772Z" fill="#A7D7F9"/>
<path d="M146.441 138.227C144.785 135.232 143.01 132.325 141.123 129.515C142.193 132.725 143.117 135.963 143.897 139.218L146.441 138.227Z" fill="#A7D7F9"/>
<path d="M121.316 137.407C119.66 134.412 117.885 131.505 115.998 128.695C117.068 131.905 117.992 135.144 118.772 138.399L121.316 137.407Z" fill="#A7D7F9"/>
<path d="M139.387 136.847C137.218 134.263 135.91 130.716 135.984 127.012C135.011 130.586 135.327 134.667 137.077 138.304L139.387 136.847Z" fill="#A7D7F9"/>
<path d="M133.925 136.028C131.756 133.443 130.449 129.896 130.522 126.192C129.549 129.766 129.865 133.847 131.615 137.484L133.925 136.028Z" fill="#A7D7F9"/>
<path d="M126.724 136.531C127.077 136.581 127.439 136.52 127.722 136.396C128.007 136.275 128.225 136.103 128.397 135.92C128.567 135.736 128.695 135.537 128.792 135.318C128.888 135.105 128.949 134.839 128.96 134.653C128.994 134.245 128.917 133.91 128.833 133.647C128.747 133.377 128.652 133.183 128.564 132.992C128.204 132.218 127.792 131.476 127.337 130.772C126.427 129.364 125.336 128.108 124.125 127.038C124.991 128.403 125.654 129.859 126.1 131.351C126.324 132.096 126.494 132.85 126.608 133.604C126.639 133.794 126.666 133.982 126.663 134.104C126.661 134.231 126.629 134.3 126.599 134.29C126.581 134.301 126.583 134.231 126.587 134.194C126.592 134.154 126.6 134.119 126.626 134.072C126.653 134.027 126.7 133.969 126.799 133.918C126.894 133.865 127.051 133.828 127.207 133.843L126.724 136.531Z" fill="#A7D7F9"/>
<path d="M125.084 136.863C123.576 133.026 121.327 129.588 118.571 126.77C120.609 130.145 121.913 133.852 122.449 137.576L125.084 136.863Z" fill="#A7D7F9"/>
<path d="M123.328 138.578C121.832 135.546 119.915 132.8 117.69 130.432C119.171 133.323 120.19 136.377 120.737 139.444L123.328 138.578Z" fill="#A7D7F9"/>
<path d="M119.261 135.684C119.643 132.951 119.89 130.219 120.004 127.503C119 130.029 117.88 132.487 116.656 134.866L119.261 135.684Z" fill="#A7D7F9"/>
<path d="M116.249 138.419C116.827 134.491 116.573 130.543 115.582 126.89C115.672 130.674 114.971 134.383 113.61 137.715L116.249 138.419Z" fill="#A7D7F9"/>
<path d="M113.875 136.976C114.186 136.724 114.431 136.374 114.561 136.04C114.694 135.705 114.734 135.394 114.739 135.12C114.741 134.571 114.619 134.143 114.481 133.745C114.205 133.032 113.884 132.378 113.514 131.748C112.776 130.49 111.852 129.383 110.811 128.465C111.499 129.672 111.98 130.955 112.243 132.248C112.375 132.89 112.455 133.551 112.479 134.175C112.481 134.446 112.442 134.707 112.367 134.84C112.331 134.906 112.286 134.932 112.269 134.903C112.248 134.877 112.267 134.8 112.299 134.746L113.875 136.976Z" fill="#A7D7F9"/>
<path d="M110.599 137.784C110.863 137.451 111.025 137.057 111.09 136.716C111.155 136.372 111.152 136.066 111.123 135.801C111.094 135.535 111.043 135.299 110.987 135.084C110.929 134.873 110.87 134.691 110.81 134.494C110.563 133.722 110.276 132.973 109.949 132.247C109.294 130.795 108.483 129.442 107.546 128.218C108.085 129.664 108.447 131.144 108.637 132.623C108.73 133.363 108.78 134.103 108.791 134.834C108.791 135.014 108.792 135.208 108.788 135.375C108.781 135.538 108.763 135.683 108.735 135.798C108.707 135.914 108.664 135.992 108.627 136.015C108.59 136.04 108.569 135.992 108.581 135.944L110.599 137.784Z" fill="#A7D7F9"/>
<path d="M108.486 136.395C107.809 133.207 107.78 129.781 108.473 126.407C106.92 129.481 105.967 132.96 105.762 136.583L108.486 136.395Z" fill="#A7D7F9"/>
<path d="M105.165 135.402C104.048 133.081 103.569 130.297 103.934 127.487C102.696 130.036 102.155 133.061 102.532 136.13L105.165 135.402Z" fill="#A7D7F9"/>
<path d="M112.871 137.81C112.735 137.768 112.56 137.609 112.417 137.309C112.275 137.014 112.174 136.624 112.101 136.191C111.951 135.318 111.877 134.422 111.891 133.514C111.906 132.611 112 131.685 112.19 130.79C112.385 129.906 112.721 129.022 113.425 128.372C112.581 128.831 111.973 129.685 111.546 130.56C111.12 131.446 110.792 132.364 110.539 133.321C110.287 134.279 110.125 135.269 110.054 136.278C110.019 136.783 110.006 137.34 110.117 137.951C110.173 138.257 110.263 138.581 110.415 138.909C110.566 139.236 110.783 139.568 111.065 139.855L112.871 137.81Z" fill="#A7D7F9"/>
<path d="M101.128 139.175C100.992 139.133 100.817 138.974 100.674 138.674C100.531 138.379 100.43 137.99 100.358 137.556C100.207 136.684 100.134 135.787 100.148 134.879C100.162 133.976 100.257 133.05 100.446 132.155C100.642 131.271 100.977 130.387 101.682 129.738C100.838 130.196 100.23 131.05 99.8031 131.926C99.3764 132.811 99.0492 133.729 98.7957 134.686C98.5439 135.644 98.3818 136.634 98.3113 137.643C98.276 138.148 98.2631 138.705 98.3738 139.316C98.43 139.623 98.5198 139.947 98.6722 140.274C98.823 140.601 99.0396 140.933 99.3219 141.22L101.128 139.175Z" fill="#A7D7F9"/>
<path d="M94.3011 137.81C94.1647 137.768 93.9898 137.609 93.8471 137.309C93.7043 137.014 93.6032 136.624 93.5311 136.191C93.3803 135.318 93.3065 134.422 93.3209 133.514C93.3353 132.611 93.43 131.685 93.6193 130.79C93.815 129.906 94.1503 129.022 94.8545 128.372C94.0107 128.831 93.4027 129.685 92.976 130.56C92.5493 131.446 92.222 132.364 91.9686 133.321C91.7167 134.279 91.5547 135.269 91.4841 136.278C91.4488 136.783 91.436 137.34 91.5467 137.951C91.6028 138.257 91.6926 138.581 91.845 138.909C91.9958 139.236 92.2124 139.568 92.4947 139.855L94.3011 137.81Z" fill="#A7D7F9"/>
<path d="M98.6588 137.627C98.0235 134.387 97.7331 131.027 97.815 127.628C96.8332 130.883 96.1931 134.292 95.9316 137.778L98.6588 137.627Z" fill="#A7D7F9"/>
<path d="M96.189 136.66C97.3199 133.076 96.6831 129.276 94.8254 126.507C95.8649 129.675 95.3211 133.1 93.7041 135.524L96.189 136.66Z" fill="#A7D7F9"/>
<path d="M91.9703 138.614C92.2462 137.999 92.3265 137.378 92.3216 136.838C92.3168 136.292 92.2382 135.808 92.15 135.359C91.9703 134.475 91.757 133.608 91.5035 132.757C90.9982 131.053 90.3421 129.417 89.5576 127.867C89.9121 129.568 90.1127 131.279 90.156 132.975C90.1784 133.822 90.1608 134.667 90.1079 135.501C90.0806 135.91 90.0325 136.289 89.9442 136.6C89.8576 136.915 89.7261 137.147 89.5817 137.287L91.9703 138.614Z" fill="#A7D7F9"/>
<path d="M89.5626 139.154C89.3284 137.178 89.0925 135.105 88.4861 133.116C88.183 132.121 87.7851 131.159 87.2702 130.268C86.7568 129.38 86.1216 128.568 85.374 127.909C85.9531 128.72 86.3638 129.619 86.6445 130.543C86.9253 131.467 87.0793 132.418 87.1434 133.368C87.2702 135.277 87.0504 137.186 86.8306 139.164L89.5626 139.154Z" fill="#A7D7F9"/>
<path d="M87.3633 135.538C87.4627 135.227 87.5012 134.892 87.4756 134.582C87.4483 134.273 87.3633 134.003 87.2606 133.772C87.0472 133.315 86.7745 133.007 86.5066 132.747C86.3719 132.619 86.2355 132.501 86.0976 132.397C86.0286 132.343 85.9596 132.295 85.8922 132.245L85.7013 132.115C85.4463 131.943 85.1912 131.775 84.9329 131.611C83.9014 130.955 82.8427 130.363 81.7646 129.835C82.5683 130.726 83.3143 131.651 83.9993 132.606C84.3265 133.079 84.718 133.591 84.8864 133.997C84.9762 134.204 85.0179 134.402 84.9891 134.507C84.973 134.556 84.9442 134.577 84.9169 134.563C84.8864 134.547 84.8623 134.504 84.8527 134.465L87.3633 135.538Z" fill="#A7D7F9"/>
<path d="M128.281 138.254C127.362 136.607 126.742 134.757 126.823 132.845C126.863 131.9 127.095 130.937 127.53 130.052C127.963 129.168 128.606 128.355 129.457 127.76C128.496 128.153 127.633 128.838 126.956 129.683C126.277 130.53 125.77 131.536 125.475 132.623C125.181 133.705 125.09 134.845 125.154 135.971C125.218 137.099 125.435 138.212 125.754 139.292L128.281 138.254Z" fill="#A7D7F9"/>
<path d="M131.662 137.022C132.263 135.428 132.855 133.878 133.651 132.429C134.442 130.989 135.452 129.633 136.857 128.637C136.052 128.932 135.277 129.354 134.559 129.866C133.838 130.378 133.173 130.974 132.555 131.613C131.318 132.893 130.267 134.332 129.257 135.726L131.662 137.022Z" fill="#A7D7F9"/>
<path d="M200.665 136.336L201.924 133.397L202.556 131.924C202.773 131.44 202.992 130.96 203.22 130.487C203.679 129.54 204.171 128.615 204.757 127.745C205.339 126.872 206.019 126.057 206.822 125.345C205.888 125.871 205.018 126.544 204.234 127.306C203.443 128.064 202.734 128.905 202.062 129.765C201.727 130.195 201.401 130.631 201.08 131.067L200.145 132.381L198.274 135.017L200.665 136.336Z" fill="#A7D7F9"/>
<path d="M198.528 138.981C198.404 136.69 197.621 134.549 196.425 132.776C195.226 131 193.596 129.576 191.755 128.717C193.357 129.965 194.53 131.632 195.218 133.414C195.908 135.198 196.112 137.112 195.801 138.854L198.528 138.981Z" fill="#A7D7F9"/>
<path d="M191.682 137.183C191.624 136.228 191.34 135.352 190.947 134.592C190.552 133.83 190.05 133.174 189.492 132.599C188.374 131.459 187.094 130.669 185.836 129.882C186.8 131.011 187.767 132.16 188.388 133.405C188.696 134.019 188.916 134.661 189.019 135.283C189.121 135.906 189.1 136.507 188.956 137.024L191.682 137.183Z" fill="#A7D7F9"/>
<path d="M181.305 136.637C181.247 135.683 180.963 134.807 180.57 134.046C180.175 133.284 179.673 132.628 179.115 132.054C177.997 130.913 176.717 130.124 175.459 129.336C176.423 130.466 177.39 131.614 178.011 132.859C178.319 133.474 178.539 134.115 178.642 134.738C178.744 135.36 178.724 135.962 178.579 136.478L181.305 136.637Z" fill="#A7D7F9"/>
<path d="M29.7389 137.114C30.0565 133.804 29.771 130.35 28.8438 126.986C30.6084 129.996 31.8612 133.398 32.4676 137L29.7389 137.114Z" fill="#A7D7F9"/>
<path d="M32.9054 137.694C32.1305 133.22 32.2733 128.69 33.2503 124.44C33.1749 128.799 33.9802 133.081 35.5346 136.96L32.9054 137.694Z" fill="#A7D7F9"/>
<path d="M35.1709 137.155C35.349 133.31 36.2634 129.591 37.7873 126.244C37.1328 129.863 37.1906 133.523 37.8948 136.958L35.1709 137.155Z" fill="#A7D7F9"/>
<path d="M40.0074 137.489C39.9095 136.806 39.9576 136.169 40.0443 135.602C40.1325 135.033 40.2608 134.523 40.3667 134.04C40.5817 133.074 40.7549 132.092 40.8753 131.098C41.1223 129.11 41.1688 127.078 41.0196 125.036C41.6164 126.993 42.0335 129.028 42.2404 131.109C42.3479 132.149 42.3992 133.199 42.404 134.257C42.4056 134.786 42.3976 135.283 42.4313 135.731C42.4634 136.178 42.5388 136.57 42.6703 136.878L40.0074 137.489Z" fill="#A7D7F9"/>
<path d="M43.0635 137.133C43.6538 133.493 44.4158 129.903 45.343 126.377C45.319 130.021 45.4698 133.645 45.7938 137.232L43.0635 137.133Z" fill="#A7D7F9"/>
<path d="M45.4375 136.645C46.6406 133.203 48.2978 129.988 50.3223 127.103C49.1047 130.41 48.3684 133.827 48.1085 137.218L45.4375 136.645Z" fill="#A7D7F9"/>
<path d="M50.6162 138.958C50.8745 135.397 51.614 131.935 52.7771 128.688C52.5043 132.126 52.7065 135.541 53.3433 138.808L50.6162 138.958Z" fill="#A7D7F9"/>
<path d="M53.834 138.817C54.1147 134.726 54.9441 130.737 56.2627 126.983C55.8328 130.939 55.9435 134.893 56.5627 138.702L53.834 138.817Z" fill="#A7D7F9"/>
<path d="M78.6855 140.455C78.9663 136.364 79.7956 132.375 81.1143 128.621C80.6844 132.577 80.7951 136.531 81.4143 140.34L78.6855 140.455Z" fill="#A7D7F9"/>
<path d="M56.5879 138.15C57.0499 134.861 58.375 131.834 60.2856 129.413C59.1658 132.285 58.8674 135.346 59.3198 138.153L56.5879 138.15Z" fill="#A7D7F9"/>
<path d="M60.6115 140.423C60.4431 140.08 60.3468 139.708 60.3164 139.363C60.2859 139.016 60.3132 138.695 60.3693 138.407C60.4832 137.827 60.6901 137.359 60.9099 136.937C61.3463 136.13 61.8243 135.405 62.3473 134.694C63.3948 133.289 64.6156 132.051 65.9551 131.014C64.9412 132.37 64.1311 133.839 63.5392 135.36C63.2488 136.117 62.9986 136.905 62.8253 137.662C62.7467 138.023 62.7146 138.366 62.7483 138.623C62.7804 138.888 62.8831 139.01 62.9665 139.039L60.6115 140.423Z" fill="#A7D7F9"/>
<path d="M65.1182 137.882C65.8384 137.112 66.3325 135.999 66.6117 134.767C66.8972 133.531 66.9967 132.198 67.0769 130.87C67.4475 132.149 67.81 133.438 67.9752 134.831C68.057 135.525 68.0859 136.247 68.0185 136.993C67.9512 137.738 67.7827 138.508 67.4779 139.257L65.1182 137.882Z" fill="#A7D7F9"/>
<path d="M81.7773 137.062C82.4976 136.292 82.9917 135.179 83.2708 133.947C83.5564 132.712 83.6559 131.379 83.7361 130.05C84.1066 131.329 84.4692 132.619 84.6344 134.011C84.7162 134.706 84.7451 135.428 84.6777 136.173C84.6103 136.918 84.4419 137.688 84.1371 138.437L81.7773 137.062Z" fill="#A7D7F9"/>
<path d="M68.7347 138.84C68.6946 135.407 69.5625 132.1 71.1186 129.306C70.4127 132.426 70.5635 135.614 71.4362 138.447L68.7347 138.84Z" fill="#A7D7F9"/>
<path d="M71.7918 138.792C71.6154 136.767 72.0341 134.802 72.8538 133.109C73.6736 131.415 74.9104 129.978 76.3927 129.008C75.2088 130.326 74.4612 131.93 74.1452 133.552C73.8276 135.176 73.9463 136.83 74.4676 138.248L71.7918 138.792Z" fill="#A7D7F9"/>
<path d="M79.2695 138.88C80.5561 136.773 81.3101 134.186 81.3037 131.473C82.2068 134.03 82.4314 136.953 81.8234 139.847L79.2695 138.88Z" fill="#A7D7F9"/>
<path d="M73.8076 135.602C75.0942 133.496 75.8481 130.909 75.8417 128.196C76.7449 130.753 76.9695 133.676 76.3615 136.57L73.8076 135.602Z" fill="#A7D7F9"/>
<path d="M75.4766 138.628C76.7631 135.771 77.8925 132.814 78.8534 129.778C78.7908 132.962 78.5422 136.169 78.1026 139.375L75.4766 138.628Z" fill="#A7D7F9"/>
<path d="M84.2256 139.435C84.2657 136.281 85.0405 133.252 86.3864 130.629C85.9052 133.538 86.1233 136.454 86.9319 139.074L84.2256 139.435Z" fill="#A7D7F9"/>
<path d="M88.0846 138.41C87.8135 134.247 89.2364 130.233 91.731 127.358C89.9888 130.743 89.7257 134.654 90.7733 137.933L88.0846 138.41Z" fill="#A7D7F9"/>
<path d="M84.8073 140.048C84.5362 135.885 85.9591 131.871 88.4536 128.996C86.7115 132.381 86.4484 136.292 87.4959 139.571L84.8073 140.048Z" fill="#A7D7F9"/>
<path d="M91.9355 136.113C92.327 132.492 92.5804 128.839 92.6927 125.164C93.4852 128.754 94.1445 132.391 94.6659 136.064L91.9355 136.113Z" fill="#A7D7F9"/>
<path d="M94.0928 138.164C94.1521 133.995 95.6729 130.055 98.1498 127.105C96.4333 130.554 96.0194 134.457 96.8103 137.903L94.0928 138.164Z" fill="#A7D7F9"/>
<path d="M96.7334 138.618C98.3889 135.623 100.165 132.716 102.051 129.906C100.981 133.116 100.057 136.355 99.2776 139.61L96.7334 138.618Z" fill="#A7D7F9"/>
<path d="M93.4561 138.071C95.1116 135.076 96.8874 132.169 98.7739 129.359C97.7039 132.569 96.7799 135.808 96.0003 139.063L93.4561 138.071Z" fill="#A7D7F9"/>
<path d="M103.207 131.723V137.274C103.087 137.567 102.96 137.859 102.821 138.148L100.511 136.692C101.696 135.28 102.622 133.579 103.207 131.723Z" fill="#A7D7F9"/>
<path d="M39.234 136.18L37.9747 133.241L37.3427 131.768C37.1261 131.284 36.9064 130.804 36.6786 130.331C36.2198 129.385 35.7273 128.459 35.1417 127.589C34.5594 126.717 33.8792 125.902 33.0771 125.19C34.0108 125.716 34.8803 126.388 35.6647 127.15C36.4556 127.909 37.1646 128.749 37.8368 129.609C38.1721 130.039 38.4977 130.475 38.8186 130.912L39.7538 132.226L41.6243 134.861L39.234 136.18Z" fill="#A7D7F9"/>
<path d="M41.3711 138.825C41.4946 136.534 42.2775 134.393 43.4742 132.62C44.6725 130.844 46.3024 129.42 48.144 128.562C46.5414 129.81 45.3687 131.476 44.6805 133.259C43.9907 135.043 43.787 136.956 44.0982 138.699L41.3711 138.825Z" fill="#A7D7F9"/>
<path d="M48.2158 137.029C48.2736 136.074 48.5575 135.198 48.9505 134.438C49.3452 133.676 49.8473 133.02 50.4055 132.445C51.5237 131.305 52.8038 130.516 54.0615 129.728C53.0974 130.857 52.13 132.006 51.5092 133.251C51.2012 133.865 50.9814 134.507 50.8788 135.129C50.7761 135.752 50.797 136.353 50.9413 136.87L48.2158 137.029Z" fill="#A7D7F9"/>
<path d="M58.5938 136.481C58.6515 135.527 58.9354 134.651 59.3285 133.891C59.7231 133.129 60.2252 132.473 60.7835 131.898C61.9016 130.758 63.1817 129.968 64.4394 129.181C63.4753 130.31 62.508 131.459 61.8872 132.704C61.5791 133.318 61.3594 133.96 61.2567 134.582C61.154 135.205 61.1749 135.806 61.3193 136.323L58.5938 136.481Z" fill="#A7D7F9"/>
<path d="M20.5866 137.819C20.6379 137.819 20.6892 137.795 20.7213 137.752L88.1728 46.9772C88.2273 46.9034 88.2129 46.7976 88.1375 46.743C88.0637 46.6869 87.9578 46.7029 87.9033 46.7783L20.4518 137.553C20.3973 137.627 20.4117 137.733 20.4871 137.787C20.5176 137.81 20.5513 137.819 20.5866 137.819Z" fill="#FFB600"/>
<path d="M57.3689 143.237C57.4283 143.237 57.486 143.205 57.5165 143.15L135.992 0.486325L232.774 139.307C232.827 139.382 232.932 139.401 233.009 139.348C233.084 139.295 233.103 139.191 233.05 139.114L136.112 0.0724429C136.079 0.0243171 136.024 -0.00295367 135.966 0.000254719C135.909 0.0034631 135.856 0.0355459 135.828 0.08688L57.223 142.988C57.178 143.07 57.2085 143.171 57.2887 143.216C57.3144 143.231 57.3417 143.237 57.3689 143.237Z" fill="#FFB600"/>
<path d="M232.912 142.006C233.223 142.006 233.483 141.761 233.498 141.446L233.666 137.895C233.682 137.571 233.432 137.295 233.108 137.28C232.782 137.266 232.508 137.515 232.493 137.839L232.325 141.39C232.309 141.714 232.559 141.99 232.883 142.005C232.894 142.006 232.902 142.006 232.912 142.006Z" fill="#FFB600"/>
<path d="M57.3684 146.006C57.3877 146.006 57.4069 146.004 57.4262 146.002C57.7486 145.97 57.9844 145.683 57.9523 145.361L57.6171 141.958C57.585 141.636 57.301 141.402 56.9754 141.432C56.6529 141.464 56.4171 141.751 56.4492 142.074L56.7845 145.476C56.815 145.779 57.07 146.006 57.3684 146.006Z" fill="#FFB600"/>
<path d="M20.7841 139.964C20.7969 139.964 20.8097 139.964 20.8226 139.963C21.1466 139.942 21.3921 139.663 21.3712 139.339L21.1739 136.235C21.153 135.911 20.8803 135.665 20.5499 135.686C20.2258 135.707 19.9804 135.986 20.0012 136.31L20.1985 139.414C20.2178 139.725 20.4761 139.964 20.7841 139.964Z" fill="#FFB600"/>
</svg>
