<?xml version="1.0" standalone="no"?>
<!DOCTYPE svg PUBLIC "-//W3C//DTD SVG 20010904//EN"
 "http://www.w3.org/TR/2001/REC-SVG-20010904/DTD/svg10.dtd">
<svg version="1.0" xmlns="http://www.w3.org/2000/svg"
 width="700.000000pt" height="700.000000pt" viewBox="0 0 700.000000 700.000000"
 preserveAspectRatio="xMidYMid meet">
<metadata>
Created by potrace 1.14, written by Peter Selinger 2001-2017
</metadata>
<g transform="translate(0.000000,700.000000) scale(0.100000,-0.100000)"
fill="#000000" stroke="none">
<path d="M3038 6295 c-2 -1 -76 -5 -166 -8 -89 -4 -166 -8 -170 -10 -4 -3 -32
-8 -62 -11 -305 -36 -701 -175 -1000 -350 -379 -221 -672 -499 -915 -866 -86
-130 -110 -171 -191 -330 -100 -194 -168 -379 -210 -566 -22 -103 -41 -210
-48 -279 -3 -27 -9 -79 -13 -115 -9 -74 -9 -488 0 -566 32 -285 116 -581 238
-841 22 -46 39 -85 39 -87 0 -11 140 -250 191 -327 157 -234 372 -464 584
-626 247 -187 542 -341 860 -448 91 -31 278 -81 335 -90 25 -4 54 -9 65 -11
59 -12 148 -24 210 -29 39 -3 86 -8 105 -10 53 -5 261 -6 290 -1 14 2 61 7
105 10 44 4 94 8 110 10 17 3 51 7 76 10 123 14 440 96 544 141 17 7 75 32
130 55 114 49 188 88 330 173 139 83 170 104 254 169 40 32 76 58 80 57 3 0
41 -44 84 -97 42 -53 90 -111 105 -129 15 -17 99 -119 187 -227 l160 -195 619
-1 618 0 -34 43 c-19 23 -50 62 -69 87 -19 25 -36 47 -39 50 -3 3 -35 43 -71
90 -36 47 -154 199 -262 337 -108 139 -214 275 -235 301 -80 105 -246 317
-251 322 -4 3 -28 34 -56 70 -27 36 -62 82 -78 102 l-29 37 20 33 c62 102 151
299 205 458 63 184 115 471 133 725 3 55 8 101 9 103 1 1 36 -30 77 -70 212
-206 241 -231 303 -260 156 -73 368 -31 465 92 60 75 85 146 86 244 2 91 -11
149 -52 229 -11 20 -260 279 -554 577 -294 298 -595 602 -669 677 l-134 136
-526 -530 c-770 -776 -815 -824 -847 -890 -64 -130 -27 -338 80 -445 85 -85
171 -117 309 -114 135 2 184 28 357 197 227 222 229 224 225 203 -2 -10 -6
-66 -9 -124 -6 -101 -9 -129 -23 -195 -3 -16 -7 -40 -9 -52 -21 -181 -140
-470 -282 -683 -261 -393 -679 -688 -1125 -795 -287 -69 -670 -67 -927 5 -41
12 -88 25 -105 29 -59 15 -222 84 -305 128 -496 265 -866 732 -984 1243 -14
63 -20 95 -36 210 -10 71 -10 369 0 440 4 30 11 75 14 100 4 25 9 56 11 70 3
14 7 36 10 49 75 395 324 786 690 1083 257 208 620 353 960 384 146 14 396 8
510 -11 30 -5 91 -16 110 -20 102 -22 369 -118 422 -153 13 -8 29 -12 36 -9
11 4 120 177 150 237 4 8 18 33 32 55 29 47 167 299 219 400 l36 70 -47 24
c-330 168 -740 277 -1113 297 -58 3 -113 7 -122 8 -9 2 -18 3 -20 1z"/>
</g>
</svg>
